<?xml version="1.0" encoding="UTF-8" standalone="no"?>
<!DOCTYPE svg PUBLIC "-//W3C//DTD SVG 1.1//EN" "http://www.w3.org/Graphics/SVG/1.1/DTD/svg11.dtd">
<svg width="100%" height="100%" viewBox="0 0 879 1158" version="1.1" xmlns="http://www.w3.org/2000/svg" xmlns:xlink="http://www.w3.org/1999/xlink" xml:space="preserve" xmlns:serif="http://www.serif.com/" style="fill-rule:evenodd;clip-rule:evenodd;stroke-miterlimit:10;">
    <style>
      .hangerman-bkg {fill: #f3cbba}
    </style>
    <ellipse cx="439.068" cy="530.706" rx="409.278" ry="402.762" class="hangerman-bkg" />
    <g id="White-background" serif:id="White background" transform="matrix(1,0,0,1,-0.44129,4.1132)">
        <path d="M72.52,371.109C61.61,369.884 37.023,363.323 36.358,352.799C35.694,342.274 36.358,342.122 36.358,342.122C36.358,342.122 8.284,311.501 9.626,299.497C10.967,287.492 13.556,281.817 25.626,275.257C31.982,271.802 36.358,268.778 36.358,268.778C36.358,268.778 32.7,265.74 36.358,254.594C40.017,243.447 53.815,244.604 58.333,245.592C62.852,246.579 62.467,246.508 62.467,246.508C62.467,246.508 62.681,231.728 70.715,229.709C78.75,227.689 95.29,227.786 104.265,236.436C114.517,246.318 121.016,265.271 121.016,265.271C121.016,265.271 136.874,264.845 143.353,278.916C149.634,292.559 149.277,313.629 139.403,323.271C131.015,331.461 126.458,334.766 126.458,334.766C126.458,334.766 133.048,348.934 121.64,355.351C110.232,361.768 96.491,369.03 96.491,369.03C96.491,369.03 82.91,372.276 72.52,371.109Z" style="fill:#fff;"/>
        <g transform="matrix(0.971555,0.236816,-0.236816,0.971555,239.78,-46.5218)">
            <path d="M316.589,954.884C309.914,957.541 294.275,965.84 289.051,970.523C275.348,982.809 283.052,996.801 289.347,997.759L291.431,1022.33C291.431,1022.33 264.618,1038.11 250.168,1058.18C235.037,1079.2 232.678,1114.58 235.081,1121.77C236.844,1127.06 236.158,1128.7 241.446,1130.19C246.734,1131.68 320.805,1118.63 341.242,1110.56C366.94,1100.4 420.535,1065.88 423.723,1059.65C426.911,1053.42 427.559,1045.66 424.455,1039.4C421.351,1033.15 389.27,985.934 384.147,980.475C379.024,975.016 373.029,968.951 373.029,968.951C373.029,968.951 378.684,962.28 371.39,953.136C361.771,941.077 331.318,949.02 316.589,954.884Z" style="fill:#fff;"/>
        </g>
        <path d="M521.325,957.99C508.626,966.26 486.044,979.528 487.801,991.06C490.152,1006.5 498.97,1005.76 498.97,1005.76L504.77,1028.97C504.77,1028.97 485.592,1042.48 473.593,1058.2C458.45,1078.03 455.302,1122.49 459.892,1130.31C464.63,1138.37 463.263,1141.08 467.648,1142.38C472.032,1143.67 554.23,1118.62 574.601,1106.48C599.211,1091.82 638.237,1055.7 639.57,1049.37C640.904,1043.04 642.015,1035.97 638.169,1030.13C634.323,1024.3 601.279,985.219 593.248,979.145C585.217,973.071 574.231,965.058 574.231,965.058C574.231,965.058 581.033,952.526 568.104,946.842C550.453,939.081 529.294,952.8 521.325,957.99Z" style="fill:#fff;"/>
        <path d="M804.46,591.194C791.393,592.082 762.743,601.773 766.011,615.706C761.419,624.477 746.262,643.704 750.516,656.841C756.455,675.187 773.751,673.408 773.751,673.408C773.751,673.408 769.8,711.49 786.768,712.56C800.657,713.436 801.796,699.738 801.796,699.738C801.796,699.738 805.235,713.902 818.762,713.643C832.419,713.382 837.951,701.25 837.951,701.25C837.951,701.25 842.897,711.824 854.437,709.96C865.976,708.097 869.711,685.965 870.318,679.328C870.926,672.69 866.31,632.618 860.339,627.021C854.368,621.425 853.639,620.534 853.639,620.534C853.639,620.534 860.603,615.57 855.43,609.173C850.258,602.775 844.794,588.452 804.46,591.194Z" style="fill:#fff;"/>
        <path d="M359.185,154.134C366.998,153.705 396.613,172.4 398.452,278.512C399.761,354.043 377.008,390.635 377.008,390.635C377.008,390.635 372.756,386.148 359.185,386.36C345.614,386.573 338.295,387.808 338.295,387.808C338.295,387.808 317.932,339.495 323.176,271.334C328.42,203.173 337.358,155.332 359.185,154.134Z" style="fill:#fff;"/>
        <g transform="matrix(1,0,0,1,186.477,0)">
            <path d="M359.185,154.134C366.998,153.705 396.613,172.4 398.452,278.512C399.761,354.043 377.008,390.635 377.008,390.635C377.008,390.635 372.756,386.148 359.185,386.36C345.614,386.573 338.295,387.808 338.295,387.808C338.295,387.808 317.932,339.495 323.176,271.334C328.42,203.173 337.358,155.332 359.185,154.134Z" style="fill:#fff;"/>
        </g>
        <path d="M378.473,166.916C378.473,166.916 378.997,48.627 378.13,43.146C377.263,37.665 375.724,25.378 366.198,24.391C356.671,23.404 248.104,12.307 240.616,11.441C233.129,10.575 222.924,9.081 221.432,23.512C219.941,37.943 221.87,229.969 221.662,232.155C221.454,234.341 220.229,242.955 228.625,244.881C237.021,246.806 243.536,244.909 247.805,246.47C252.073,248.032 256.309,249.308 256.517,256.278C256.725,263.247 259.818,317.361 257.944,323.121C256.07,328.881 252.996,333.073 248.07,333.385C243.144,333.697 236.62,332.859 231.972,333.917C227.324,334.975 222.934,336.013 221.893,341.321C220.852,346.629 221.856,397.559 222.065,403.318C222.273,409.077 226.901,413.602 231.546,414.745C236.191,415.889 244.422,414.078 248.759,415.119C253.096,416.16 258.191,417.777 259.075,423.458C259.959,429.139 260.852,482.162 259.169,486.359C257.486,490.556 258.527,496.691 252.629,496.378C246.73,496.066 239.266,494.241 233.818,496.548C228.37,498.856 221.868,499.871 221.73,506.108C221.592,512.344 219.37,549.094 220.74,554.817C222.111,560.541 227.649,563.6 230.876,566.203C234.104,568.805 285.13,604.248 287.678,608.651C290.227,613.053 294.123,613.883 290.413,623.104C286.704,632.324 253.74,716.008 252.682,721.178C251.624,726.348 249.946,749.291 274.366,756.04C298.787,762.789 425.455,777.58 435.027,779.627C444.599,781.673 470.322,781.809 487.007,770.757C503.692,759.706 713.657,606.601 719.744,601.503C725.83,596.404 727.043,595.683 726.297,590.863C725.551,586.043 725.585,567.81 725.585,563.438C725.585,559.067 724.766,554.753 716.874,554.319C708.983,553.886 697.181,554.71 692.846,554.277C688.51,553.843 678.542,553.065 678.524,547.106C678.507,541.147 677.448,495.612 678.402,490.241C679.356,484.87 683.877,479.951 689.244,479.31C694.61,478.67 714.687,478.967 719.576,478.308C724.465,477.649 730.194,473.644 730.732,468.653C731.269,463.661 729.266,398.693 730.029,392.914C730.792,387.134 727.779,382.69 722.887,381.84C717.996,380.99 693.854,380.84 688.066,380.302C682.278,379.765 673.773,377.618 674.085,372.003C674.397,366.389 672.561,318.949 673.566,312.189C674.572,305.429 679.47,301.801 684.362,300.968C689.253,300.135 711.894,300.917 717.399,300.813C722.904,300.709 730.366,296.905 730.124,291.117C729.881,285.33 729.645,60.298 729.645,53.573C729.645,46.849 730.809,41.811 719.799,40.721C708.789,39.631 571.953,35.892 561.737,36.863C551.521,37.834 544.974,42.33 542.498,49.811C540.021,57.292 543.495,138.899 542.766,145.458C542.037,152.017 526.853,564.557 526.615,578.154C526.378,591.751 528.122,589.49 527.357,592.157C526.592,594.825 530.899,597.54 533.828,598.976C536.756,600.412 541.971,600.48 545.664,601.636C549.358,602.792 554.61,603.925 554.889,608.339C555.168,612.753 556.665,617.846 555.181,619.918C553.698,621.989 523.681,678.156 515.552,686.118C507.423,694.079 506.775,693.142 496.876,692.373C486.978,691.604 381.974,682.755 372.983,681.265C363.992,679.774 353.2,679.08 360.56,674.318C367.92,669.555 372.289,669.821 372.098,661.798C371.906,653.775 373.059,584.419 371.547,578.154C370.034,571.89 377.961,187.223 378.473,166.916Z" style="fill:#fff;"/>
        <g transform="matrix(1.13694,0,0,1.13694,-70.5352,-66.0734)">
            <circle cx="379.038" cy="458.548" r="62.732" style="fill:#fff;"/>
        </g>
        <g transform="matrix(1.13694,0,0,1.13694,119.353,-61.3875)">
            <circle cx="379.038" cy="458.548" r="62.732" style="fill:#fff;"/>
        </g>
        <g transform="matrix(1,0,0,1.55679,0,-237.193)">
            <path d="M580.836,425.999L319.336,425.999L319.336,578.154C397.604,631.076 485.305,627.895 580.836,578.154L580.836,425.999Z" style="fill:#fff;"/>
        </g>
    </g>
    <g id="Hangerman" transform="matrix(4.16667,0,0,4.16667,-837.936,-1068.18)">
        <g transform="matrix(0,-1,-1,0,279.229,362.008)">
            <path d="M-0.928,-0.928C-1.415,-0.928 -1.809,-0.513 -1.809,-0C-1.809,0.511 -1.415,0.928 -0.928,0.928C-0.44,0.928 -0.045,0.511 -0.045,-0C-0.045,-0.513 -0.44,-0.928 -0.928,-0.928" style="fill:#231f20;fill-rule:nonzero;"/>
        </g>
        <g transform="matrix(0,-1,-1,0,287.422,359.675)">
            <path d="M-0.928,-0.928C-1.415,-0.928 -1.809,-0.513 -1.809,-0C-1.809,0.513 -1.415,0.928 -0.928,0.928C-0.44,0.928 -0.045,0.513 -0.045,-0C-0.045,-0.513 -0.44,-0.928 -0.928,-0.928" style="fill:#231f20;fill-rule:nonzero;"/>
        </g>
        <g transform="matrix(0,-1,-1,0,282.386,357.08)">
            <path d="M-0.928,-0.928C-1.415,-0.928 -1.809,-0.513 -1.809,-0C-1.809,0.513 -1.415,0.928 -0.928,0.928C-0.44,0.928 -0.045,0.513 -0.045,-0C-0.045,-0.513 -0.44,-0.928 -0.928,-0.928" style="fill:#231f20;fill-rule:nonzero;"/>
        </g>
        <g transform="matrix(0,-1,-1,0,326.096,362.139)">
            <path d="M-0.928,-0.928C-1.415,-0.928 -1.809,-0.513 -1.809,-0C-1.809,0.511 -1.415,0.928 -0.928,0.928C-0.44,0.928 -0.045,0.511 -0.045,-0C-0.045,-0.513 -0.44,-0.928 -0.928,-0.928" style="fill:#231f20;fill-rule:nonzero;"/>
        </g>
        <g transform="matrix(0,-1,-1,0,334.289,359.806)">
            <path d="M-0.928,-0.928C-1.415,-0.928 -1.809,-0.513 -1.809,-0C-1.809,0.513 -1.415,0.928 -0.928,0.928C-0.44,0.928 -0.045,0.513 -0.045,-0C-0.045,-0.513 -0.44,-0.928 -0.928,-0.928" style="fill:#231f20;fill-rule:nonzero;"/>
        </g>
        <g transform="matrix(0,-1,-1,0,329.253,357.211)">
            <path d="M-0.928,-0.928C-1.415,-0.928 -1.809,-0.513 -1.809,-0C-1.809,0.513 -1.415,0.928 -0.928,0.928C-0.44,0.928 -0.045,0.513 -0.045,-0C-0.045,-0.513 -0.44,-0.928 -0.928,-0.928" style="fill:#231f20;fill-rule:nonzero;"/>
        </g>
        <g transform="matrix(1,0,0,1,263.166,346.573)">
            <path d="M0,22.644C0.004,21.724 -0.102,15.273 -0.109,13.76C-1.642,15.002 -3.293,16.099 -5.067,16.99C-7.383,18.155 -12.214,20.581 -17.766,19.93C-22.584,19.366 -25.623,16.794 -27.439,15.258C-31.518,11.806 -33.398,7.315 -35.575,2.113C-36.305,0.37 -36.95,-1.421 -37.491,-3.21C-38.21,-5.589 -40.819,-6.963 -43.318,-6.278C-45.832,-5.593 -47.261,-3.112 -46.542,-0.734C-45.916,1.339 -45.169,3.414 -44.324,5.43C-41.925,11.164 -39.443,17.093 -33.698,21.954C-31.41,23.89 -26.651,27.919 -18.917,28.825C-12.249,29.607 -6.599,27.653 -3.065,26.067C-2.1,25.634 -1.293,25.229 -0.666,24.914C-0.429,24.795 -0.203,24.657 0.025,24.523C-0.025,23.892 -0.002,23.172 0,22.644" style="fill:#231f20;fill-rule:nonzero;"/>
        </g>
        <g transform="matrix(1,0,0,1,209.715,321.546)">
            <path d="M0.546,17.167C-0.529,16.467 -2.198,15.174 -3.434,13.065C-3.782,12.472 -4.622,11.049 -5.059,9.328C-5.46,7.748 -5.531,5.891 -4.384,4.263C-2.924,2.188 0.025,1.058 2.631,1.598L2.631,1.598C4.499,1.985 5.659,3.135 6.03,3.535C6.337,3.867 6.795,4.38 7.132,5.009C7.41,5.528 7.617,6.136 7.484,6.782C7.363,7.367 6.93,7.814 6.355,8.141C5.643,8.547 4.716,8.765 3.724,8.786C3.172,8.798 2.734,9.255 2.745,9.807C2.757,10.359 3.214,10.797 3.766,10.786C6.638,10.726 9.007,9.288 9.442,7.188L9.442,7.188C9.885,5.045 8.339,3.086 7.497,2.176L7.497,2.175C7.01,1.652 5.486,0.147 3.037,-0.36C-0.331,-1.058 -4.132,0.43 -6.02,3.111L-6.02,3.111C-7.246,4.854 -7.478,6.784 -7.241,8.57C-6.909,11.068 -5.638,13.261 -5.16,14.077L-5.16,14.077C-3.724,16.524 -1.793,18.029 -0.546,18.843C-0.084,19.144 0.536,19.014 0.838,18.551C1.139,18.089 1.009,17.469 0.546,17.167Z" style="fill:#231f20;"/>
        </g>
        <g transform="matrix(0.786967,0.616995,0.616995,-0.786967,208.946,316.991)">
            <path d="M3.572,-2.88C3.262,-2.659 2.473,-2.049 2.224,-0.972C1.776,0.979 3.449,2.573 3.689,2.807L3.689,2.807C5.095,4.173 6.888,4.254 8.29,4.362C10.47,4.53 12.123,4.012 14.412,3.324C14.941,3.165 15.499,3.466 15.658,3.994C15.816,4.523 15.516,5.081 14.988,5.24C12.428,6.008 10.573,6.544 8.137,6.356L8.136,6.356C6.342,6.218 4.093,5.989 2.296,4.241C1.938,3.894 -0.39,1.472 0.275,-1.421L0.276,-1.422C0.676,-3.153 1.914,-4.155 2.413,-4.51C2.863,-4.83 3.488,-4.724 3.808,-4.274C4.127,-3.824 4.022,-3.2 3.572,-2.88Z" style="fill:#231f20;"/>
        </g>
        <g transform="matrix(0.765523,0.643408,0.643408,-0.765523,217.851,312.541)">
            <path d="M2.031,-2.868C1.794,-2.78 0.817,-2.456 0.585,-1.598C0.458,-1.127 0.634,-0.668 0.865,-0.262C1.331,0.559 2.087,1.192 2.335,1.405C4.417,3.187 7.097,2.98 8.082,2.92C10.721,2.757 12.579,1.554 13.466,0.874C13.904,0.538 14.532,0.621 14.868,1.059C15.204,1.497 15.121,2.126 14.683,2.461C13.616,3.279 11.379,4.72 8.205,4.916L8.204,4.916C6.971,4.991 3.642,5.155 1.034,2.924L1.034,2.924C0.709,2.645 -0.263,1.801 -0.874,0.726C-1.361,-0.132 -1.614,-1.123 -1.346,-2.118L-1.346,-2.119C-0.894,-3.793 0.876,-4.573 1.337,-4.744C1.855,-4.935 2.431,-4.67 2.622,-4.152C2.813,-3.635 2.548,-3.059 2.031,-2.868Z" style="fill:#231f20;"/>
        </g>
        <g transform="matrix(1,0,0,1,231.109,332.606)">
            <path d="M-0.963,-7.174C-1.039,-6.901 -1.526,-5.262 -3.233,-4.46C-3.349,-4.406 -3.95,-4.135 -4.723,-4.025C-5.417,-3.927 -6.271,-3.946 -6.994,-4.481C-7.991,-5.219 -8.225,-6.537 -7.994,-7.491L-7.994,-7.491C-7.79,-8.336 -7.171,-9.005 -6.385,-9.519C-5.043,-10.398 -3.208,-10.823 -1.64,-10.737L-1.639,-10.736C-1.343,-10.721 1.804,-10.521 3.474,-8.062L3.474,-8.062C4.514,-6.531 4.398,-4.942 4.346,-3.891C4.219,-1.355 2.993,0.437 2.375,1.33L2.375,1.33C1.422,2.708 0.357,3.634 -0.385,4.196C-0.825,4.529 -0.912,5.156 -0.579,5.596C-0.246,6.036 0.381,6.123 0.821,5.79C1.681,5.14 2.916,4.064 4.019,2.468C4.759,1.399 6.191,-0.757 6.344,-3.791L6.344,-3.791C6.412,-5.156 6.478,-7.199 5.128,-9.186C2.945,-12.402 -1.144,-12.713 -1.532,-12.734C-3.498,-12.842 -5.797,-12.295 -7.481,-11.193C-8.713,-10.386 -9.618,-9.286 -9.938,-7.961C-10.329,-6.343 -9.875,-4.125 -8.184,-2.873L-8.184,-2.873C-5.855,-1.15 -2.717,-2.493 -2.383,-2.65L-2.383,-2.65C0.128,-3.83 0.851,-6.235 0.963,-6.636C1.112,-7.168 0.8,-7.72 0.269,-7.868C-0.263,-8.017 -0.815,-7.705 -0.963,-7.174Z" style="fill:#231f20;"/>
        </g>
        <g transform="matrix(-0.124142,-0.992264,-0.992264,0.124142,217.859,329.89)">
            <path d="M-10.786,-12.22C-13.753,-12.258 -16.157,-7.422 -16.158,-1.419C-16.158,4.585 -13.752,9.483 -10.786,9.521C-7.82,9.559 -5.415,4.723 -5.415,-1.28C-5.415,-7.285 -7.82,-12.182 -10.786,-12.22Z" style="fill:none;fill-rule:nonzero;stroke:#231f20;stroke-width:2px;"/>
        </g>
        <g transform="matrix(1,0,0,1,364.506,369.283)">
            <path d="M-0.512,-15.885C-2.73,-14.562 -5.814,-12.121 -5.814,-7.513C-5.814,-2.883 -2.806,-0.355 -0.468,0.884C0.02,1.142 0.625,0.956 0.884,0.468C1.142,-0.02 0.956,-0.625 0.468,-0.884C-1.386,-1.865 -3.814,-3.843 -3.814,-7.513C-3.814,-11.203 -1.264,-13.108 0.512,-14.167C0.986,-14.45 1.142,-15.064 0.859,-15.538C0.576,-16.012 -0.038,-16.168 -0.512,-15.885Z" style="fill:#231f20;"/>
        </g>
        <g transform="matrix(1,0,0,1,384.684,418.948)">
            <path d="M-0.746,-13.684C-1.865,-12.429 -2.622,-11.31 -3.022,-10.601C-3.464,-9.821 -4.652,-7.625 -4.389,-4.819L-4.389,-4.819C-4.233,-3.173 -3.668,-2.177 -3.543,-1.96C-3.203,-1.368 -2.65,-0.446 -1.486,0.197C0.012,1.025 1.572,0.846 2.112,0.754C2.656,0.662 3.023,0.145 2.931,-0.399C2.839,-0.943 2.322,-1.31 1.778,-1.218C1.434,-1.16 0.436,-1.025 -0.518,-1.553L-0.518,-1.553C-1.262,-1.964 -1.591,-2.576 -1.808,-2.956L-1.809,-2.957C-1.898,-3.113 -2.286,-3.829 -2.397,-5.007C-2.608,-7.247 -1.634,-8.994 -1.282,-9.616L-1.282,-9.617C-0.926,-10.247 -0.248,-11.237 0.746,-12.352C1.114,-12.764 1.078,-13.397 0.666,-13.764C0.254,-14.132 -0.379,-14.096 -0.746,-13.684Z" style="fill:#231f20;"/>
        </g>
        <g transform="matrix(1,0,0,1,388.507,421.171)">
            <path d="M4.661,6.276C4.855,6.595 5.106,6.91 5.434,7.2L5.434,7.2C6.659,8.283 8.366,8.406 9.015,8.402C9.449,8.4 11.112,8.362 12.358,7.331C12.901,6.882 13.23,6.372 13.453,5.893C13.763,6.322 14.172,6.75 14.757,7.061L14.757,7.061C15.937,7.687 17.425,7.564 18.253,7.304C19.752,6.834 20.751,5.394 21.312,3.627C22.028,1.376 22.074,-1.369 22.084,-2.375L22.084,-2.375C22.111,-5.333 21.992,-10.31 18.504,-15.602C18.2,-16.063 17.579,-16.191 17.119,-15.887C16.658,-15.583 16.53,-14.962 16.834,-14.502C20.026,-9.66 20.109,-5.099 20.084,-2.393C20.076,-1.487 20.052,0.991 19.406,3.022C19.06,4.111 18.579,5.106 17.655,5.396L17.655,5.396C17.191,5.542 16.355,5.645 15.695,5.295C15,4.925 14.781,4.224 14.53,3.87C14.145,3.331 13.691,3.123 13.207,3.159L13.207,3.159C12.785,3.19 12.451,3.382 12.19,3.764C12.069,3.942 11.961,4.198 11.851,4.507C11.722,4.872 11.574,5.385 11.084,5.789L11.084,5.789C10.314,6.426 9.271,6.4 9.003,6.402L9.003,6.402C8.6,6.404 7.521,6.375 6.758,5.702C6.261,5.262 6.103,4.701 5.987,4.302C5.901,4.005 5.827,3.759 5.747,3.594C5.484,3.05 5.083,2.865 4.663,2.861C4.242,2.857 3.792,3.056 3.511,3.669C3.397,3.916 3.298,4.322 3.148,4.762C3.017,5.142 2.856,5.596 2.422,5.815C1.77,6.143 0.991,5.791 0.957,5.776C0.181,5.444 -0.004,4.663 -0.292,3.856C-0.477,3.34 -0.79,2.172 -0.805,0.171C-0.819,-1.94 -0.352,-3.54 -0.016,-4.67L-0.016,-4.67C0.399,-6.071 0.501,-6.412 0.895,-7.2C1.141,-7.694 0.941,-8.295 0.447,-8.542C-0.047,-8.788 -0.648,-8.588 -0.895,-8.094C-1.339,-7.204 -1.465,-6.821 -1.934,-5.239C-2.31,-3.974 -2.821,-2.18 -2.805,0.185L-2.805,0.185C-2.788,2.546 -2.393,3.92 -2.176,4.529L-2.176,4.529C-1.688,5.894 -1.144,7.052 0.171,7.615L0.172,7.616C0.247,7.647 1.922,8.307 3.322,7.601L3.322,7.601C3.938,7.29 4.363,6.808 4.661,6.276Z" style="fill:#231f20;"/>
        </g>
        <g transform="matrix(1,0,0,1,394.411,420.742)">
            <path d="M-0.971,-8.546C-1.203,-7.609 -1.401,-6.577 -1.529,-5.456C-1.77,-3.35 -1.701,-1.463 -1.512,0.119C-1.447,0.667 -0.948,1.058 -0.4,0.993C0.148,0.928 0.539,0.429 0.474,-0.119C0.301,-1.569 0.238,-3.298 0.459,-5.229L0.459,-5.23C0.575,-6.258 0.757,-7.205 0.971,-8.064C1.104,-8.6 0.777,-9.143 0.241,-9.276C-0.295,-9.409 -0.838,-9.082 -0.971,-8.546Z" style="fill:#231f20;"/>
        </g>
        <g transform="matrix(1,0,0,1,401.783,420.547)">
            <path d="M-0.967,-8.048C-0.739,-7.189 -0.542,-6.242 -0.408,-5.214C-0.156,-3.283 -0.19,-1.554 -0.34,-0.103C-0.397,0.446 0.003,0.938 0.552,0.995C1.101,1.052 1.593,0.652 1.65,0.103C1.814,-1.48 1.85,-3.367 1.576,-5.472L1.576,-5.472C1.43,-6.592 1.215,-7.625 0.967,-8.56C0.825,-9.094 0.277,-9.412 -0.256,-9.271C-0.79,-9.129 -1.108,-8.581 -0.967,-8.048Z" style="fill:#231f20;"/>
        </g>
        <g transform="matrix(1,0,0,1,399.643,361.812)">
            <path d="M0,40.052C-0.12,39.193 -0.298,38.012 -0.551,36.607C-0.834,35.037 -1.502,31.362 -2.882,27.017C-3.648,24.605 -4.694,21.302 -6.774,17.406C-8.086,14.945 -10.285,10.826 -14.661,6.593C-18.074,3.289 -22.202,0.515 -26.596,-1.43C-30.156,-3.008 -33.948,-4.099 -37.862,-4.672C-38.581,-4.776 -39.839,-3.267 -40.017,-0.723C-40.231,2.336 -39.315,3.652 -39.193,3.669C-36.096,4.123 -33.103,4.985 -30.291,6.23C-26.844,7.757 -23.602,9.936 -20.92,12.53C-17.506,15.833 -15.836,18.962 -14.616,21.248C-12.895,24.474 -12.054,27.128 -11.311,29.471C-10.087,33.32 -9.487,36.637 -9.231,38.049C-9,39.317 -8.84,40.388 -8.733,41.165C-8.437,43.286 -6.547,44.828 -4.372,44.828C-4.179,44.828 -3.983,44.816 -3.785,44.791C-1.375,44.483 0.32,42.362 0,40.052" style="fill:#231f20;fill-rule:nonzero;"/>
        </g>
        <g transform="matrix(-0.018614,-0.999827,-0.999827,0.018614,395.191,393.837)">
            <path d="M-10.877,-12.088C-9.4,-12.088 -7.985,-11.191 -6.878,-9.544C-5.46,-7.436 -4.51,-4.039 -4.51,-0.203C-4.51,3.633 -5.46,7.03 -6.878,9.138C-7.985,10.785 -9.4,11.682 -10.877,11.682C-12.354,11.682 -13.769,10.785 -14.876,9.138C-16.294,7.03 -17.244,3.633 -17.244,-0.203C-17.244,-4.039 -16.294,-7.436 -14.876,-9.544C-13.769,-11.191 -12.354,-12.088 -10.877,-12.088L-10.877,-12.088ZM-10.877,-10.088C-11.771,-10.088 -12.546,-9.425 -13.216,-8.428C-14.463,-6.575 -15.244,-3.576 -15.244,-0.203C-15.244,3.17 -14.463,6.169 -13.216,8.022C-12.546,9.019 -11.771,9.682 -10.877,9.682C-9.983,9.682 -9.208,9.019 -8.538,8.022C-7.291,6.169 -6.51,3.17 -6.51,-0.203C-6.51,-3.576 -7.291,-6.575 -8.538,-8.428C-9.208,-9.425 -9.983,-10.088 -10.877,-10.088L-10.877,-10.088Z" style="fill:#231f20;"/>
        </g>
        <g transform="matrix(-0.0809405,-0.996719,-0.996719,0.0809405,394.756,399.363)">
            <path d="M-4.938,-5.356C-6.633,-5.37 -8.007,-3.164 -8.006,-0.428C-8.007,2.308 -6.633,4.538 -4.938,4.552C-3.244,4.567 -1.87,2.361 -1.87,-0.375C-1.87,-3.112 -3.243,-5.342 -4.938,-5.356" style="fill:#231f20;fill-rule:nonzero;"/>
        </g>
        <g transform="matrix(1,0,0,1,335.946,293.929)">
            <path d="M-43.111,4.329L-43.111,-26.608C-43.111,-29.287 -45.211,-31.555 -48.011,-31.84C-48.011,-31.84 -52.216,-32.269 -52.216,-32.269C-52.216,-32.269 -78.351,-34.987 -78.351,-34.987C-79.787,-35.136 -81.124,-34.679 -81.97,-33.926C-82.637,-33.333 -83.017,-32.56 -83.017,-31.72L-83.017,19.949C-83.017,21.674 -81.243,23.244 -78.892,23.244C-78.892,23.244 -76.409,23.244 -76.409,23.244C-75.779,23.244 -75.204,23.419 -74.791,23.722C-74.5,23.936 -74.284,24.212 -74.284,24.539L-74.284,41.116C-74.284,41.443 -74.5,41.718 -74.792,41.932C-75.205,42.236 -75.779,42.411 -76.409,42.411C-76.409,42.411 -78.892,42.411 -78.892,42.411C-81.243,42.411 -83.017,43.979 -83.017,45.706L-83.017,60.519C-83.017,62.244 -81.243,63.814 -78.892,63.814C-78.892,63.814 -75.972,63.814 -75.972,63.814C-75.342,63.814 -74.767,63.989 -74.354,64.292C-74.063,64.506 -73.847,64.782 -73.847,65.109C-73.847,65.109 -73.847,80.403 -73.847,80.403C-73.847,80.73 -74.063,81.005 -74.355,81.219C-74.768,81.523 -75.342,81.698 -75.972,81.698L-78.892,81.698C-81.243,81.698 -83.017,83.266 -83.017,84.993L-83.017,96.5C-83.017,97.404 -82.564,98.291 -81.694,98.929C-81.694,98.929 -66.17,110.33 -66.17,110.33C-65.775,110.621 -65.561,111.02 -65.715,111.415L-75.04,135.441C-75.745,137.258 -75.625,139.195 -74.689,140.955C-73.147,143.858 -69.718,146.027 -65.556,146.626L-30.925,151.6C-25.426,152.389 -19.756,151.099 -15.792,148.189L38.939,107.989C39.808,107.351 40.263,106.464 40.263,105.56L40.263,98.784C40.263,97.057 38.488,95.489 36.138,95.489C36.138,95.489 30.707,95.489 30.707,95.489C30.076,95.489 29.502,95.314 29.089,95.01C28.797,94.796 28.582,94.521 28.582,94.194C28.582,94.194 28.582,80.824 28.582,80.824C28.582,80.497 28.797,80.221 29.089,80.007C29.502,79.704 30.076,79.529 30.707,79.529L37.12,79.529C39.47,79.529 41.245,77.959 41.245,76.234C41.245,76.234 41.245,56.931 41.245,56.931C41.245,55.204 39.47,53.636 37.12,53.636C37.12,53.636 29.615,53.636 29.615,53.636C28.984,53.636 28.41,53.461 27.997,53.157C27.705,52.943 27.49,52.668 27.49,52.341C27.49,52.341 27.49,37.848 27.49,37.848C27.49,37.521 27.705,37.245 27.997,37.031C28.41,36.728 28.984,36.553 29.615,36.553C29.615,36.553 37.12,36.553 37.12,36.553C39.47,36.553 41.245,34.984 41.245,33.258C41.245,33.258 41.245,-24.769 41.245,-24.769C41.245,-26.417 39.638,-27.938 37.4,-28.057L37.383,-28.058C37.366,-28.058 6.984,-28.646 6.984,-28.646C6.981,-28.646 2.043,-28.705 -0.029,-28.646C-1.147,-28.614 -2.257,-28.567 -3.12,-28.31C-3.898,-28.078 -4.505,-27.678 -4.887,-27.086C-5.235,-26.545 -5.448,-25.719 -5.547,-24.798C-5.668,-23.668 -5.64,-22.38 -5.698,-21.506L-5.7,-21.476L-5.84,-0.007C-5.844,0.545 -5.398,0.996 -4.847,1C-4.295,1.004 -3.844,0.558 -3.84,0.007L-3.7,-21.405C-3.647,-22.257 -3.675,-23.496 -3.558,-24.584C-3.497,-25.15 -3.419,-25.671 -3.205,-26.003C-3.016,-26.296 -2.643,-26.389 -2.224,-26.473C-1.557,-26.607 -0.766,-26.624 0.028,-26.647C2.032,-26.704 6.745,-26.649 6.95,-26.646C6.953,-26.646 37.309,-26.059 37.309,-26.059C37.894,-26.025 38.416,-25.842 38.789,-25.548C39.053,-25.338 39.245,-25.075 39.245,-24.769L39.245,33.258C39.245,33.585 39.029,33.86 38.738,34.075C38.325,34.378 37.75,34.553 37.12,34.553L29.615,34.553C27.264,34.553 25.49,36.123 25.49,37.848L25.49,52.341C25.49,54.066 27.264,55.636 29.615,55.636L37.12,55.636C37.75,55.636 38.325,55.811 38.738,56.114C39.029,56.328 39.245,56.604 39.245,56.931L39.245,76.234C39.245,76.561 39.029,76.836 38.737,77.05C38.324,77.354 37.75,77.529 37.12,77.529C37.12,77.529 30.707,77.529 30.707,77.529C28.356,77.529 26.582,79.097 26.582,80.824L26.582,94.194C26.582,95.919 28.356,97.489 30.707,97.489L36.138,97.489C36.768,97.489 37.343,97.664 37.756,97.967C38.047,98.181 38.263,98.457 38.263,98.784C38.263,98.784 38.263,105.56 38.263,105.56C38.263,105.874 38.057,106.155 37.755,106.377L-16.976,146.577C-20.553,149.203 -25.678,150.332 -30.641,149.62C-30.641,149.62 -65.271,144.646 -65.271,144.646C-68.734,144.148 -71.64,142.432 -72.923,140.017L-72.923,140.016C-73.577,138.787 -73.668,137.434 -73.175,136.165L-63.85,112.139C-63.381,110.93 -63.776,109.608 -64.985,108.719L-80.511,97.317C-80.813,97.095 -81.017,96.814 -81.017,96.5C-81.017,96.5 -81.017,84.993 -81.017,84.993C-81.017,84.666 -80.802,84.39 -80.51,84.176C-80.097,83.873 -79.523,83.698 -78.892,83.698C-78.892,83.698 -75.972,83.698 -75.972,83.698C-73.622,83.698 -71.847,82.128 -71.847,80.403L-71.847,65.109C-71.847,63.382 -73.622,61.814 -75.972,61.814L-78.892,61.814C-79.523,61.814 -80.097,61.639 -80.51,61.335C-80.802,61.121 -81.017,60.846 -81.017,60.519C-81.017,60.519 -81.017,45.706 -81.017,45.706C-81.017,45.379 -80.802,45.103 -80.51,44.889C-80.097,44.586 -79.523,44.411 -78.892,44.411L-76.409,44.411C-74.059,44.411 -72.284,42.841 -72.284,41.116C-72.284,41.116 -72.284,24.539 -72.284,24.539C-72.284,22.812 -74.059,21.244 -76.409,21.244L-78.892,21.244C-79.523,21.244 -80.097,21.069 -80.51,20.765C-80.802,20.551 -81.017,20.276 -81.017,19.949C-81.017,19.949 -81.017,-31.72 -81.017,-31.72C-81.017,-32.09 -80.751,-32.388 -80.404,-32.61C-79.918,-32.92 -79.255,-33.07 -78.558,-32.998L-52.421,-30.279C-52.42,-30.279 -48.214,-29.85 -48.214,-29.85C-46.461,-29.672 -45.111,-28.285 -45.111,-26.608L-45.111,4.329C-45.111,4.881 -44.663,5.329 -44.111,5.329C-43.559,5.329 -43.111,4.881 -43.111,4.329Z" style="fill:#231f20;"/>
        </g>
        <g transform="matrix(1,0,0,1,327.479,423.97)">
            <path d="M-38.911,-3.969L-37.67,-4.928C-36.961,-5.475 -36.631,-6.163 -36.631,-6.84L-36.631,-28.053C-36.631,-28.605 -37.079,-29.053 -37.631,-29.053C-38.183,-29.053 -38.631,-28.605 -38.631,-28.053L-38.631,-6.84C-38.631,-6.709 -38.755,-6.616 -38.892,-6.51C-38.892,-6.51 -40.721,-5.099 -40.721,-5.099C-41.422,-4.557 -41.517,-3.891 -41.308,-3.312C-41.102,-2.74 -40.387,-2.094 -39.219,-1.989C-39.219,-1.989 -7.555,0.85 -7.555,0.85C-5.512,1.034 -3.569,0.249 -2.863,-0.837C-2.863,-0.837 7.553,-16.86 7.553,-16.86C7.802,-17.242 7.921,-17.65 7.921,-18.058L7.921,-20.696C7.921,-21.405 7.563,-22.091 6.866,-22.622C6.104,-23.202 4.882,-23.609 3.494,-23.609L3.494,-23.608L3.473,-23.609C3.445,-23.609 3.419,-23.606 3.395,-23.601L3.395,-23.609C2.64,-23.609 1.954,-23.766 1.459,-24.043C1.31,-24.126 1.181,-24.218 1.083,-24.324C1.026,-24.385 0.971,-24.443 0.968,-24.516C0.968,-24.521 1,-29.094 1,-29.094C1.004,-29.646 0.559,-30.097 0.007,-30.101C-0.545,-30.105 -0.996,-29.66 -1,-29.108L-1.032,-24.522C-1.032,-23.813 -0.674,-23.128 0.023,-22.597C0.785,-22.016 2.007,-21.609 3.395,-21.609L3.494,-21.609C4.249,-21.609 4.935,-21.452 5.43,-21.176C5.579,-21.093 5.708,-21 5.806,-20.895C5.864,-20.832 5.921,-20.772 5.921,-20.696C5.921,-20.696 5.921,-18.058 5.921,-18.058C5.921,-18.02 5.9,-17.986 5.877,-17.95L-4.539,-1.927C-4.672,-1.724 -4.916,-1.574 -5.203,-1.448C-5.8,-1.185 -6.582,-1.071 -7.376,-1.142L-38.911,-3.969Z" style="fill:#231f20;"/>
        </g>
        <g transform="matrix(-0.496126,0.868251,0.868251,0.496126,324.014,444.104)">
            <path d="M-18.695,-11.85L6.296,-11.85C6.848,-11.85 7.296,-11.401 7.296,-10.85C7.296,-10.298 6.848,-9.85 6.296,-9.85L-18.695,-9.849C-19.247,-9.849 -19.695,-10.298 -19.695,-10.849C-19.695,-11.401 -19.247,-11.849 -18.695,-11.85Z" style="fill:#231f20;"/>
        </g>
        <g transform="matrix(-0.767887,0.640585,0.640585,0.767887,273.961,442.705)">
            <rect x="-24.49" y="-9.874" width="27.706" height="2" style="fill:#231f20;"/>
        </g>
        <g transform="matrix(0.24,0,0,0.24,-7.54988,3.82211)">
            <path d="M1209.94,2003.37C1202.29,1990.54 1196.01,1976.66 1191.28,1962.13C1183.87,1939.36 1181.65,1919.54 1181.09,1906.93C1180.68,1897.74 1179.92,1880.65 1184.74,1858.87C1187.25,1847.55 1190.94,1836.54 1195.7,1826.13C1196.16,1825.1 1196.5,1824.06 1196.75,1823.01L1197.24,1820.28C1195.29,1820.25 1156.18,1813.86 1152.07,1812.77C1151.61,1812.65 1151.25,1812.41 1150.88,1812.19L1150.23,1813.7C1145.21,1825.56 1141.31,1837.65 1138.66,1849.64C1132.62,1876.93 1133.58,1898.46 1134.04,1908.81C1134.72,1924.09 1137.39,1948.04 1146.3,1975.39C1152.03,1993.01 1159.67,2009.86 1168.98,2025.49C1173.16,2032.49 1181.01,2036.84 1189.48,2036.84C1193.52,2036.84 1197.53,2035.83 1201.09,2033.91C1212.38,2027.81 1216.35,2014.11 1209.94,2003.37Z" style="fill:#231f20;fill-rule:nonzero;"/>
        </g>
        <g transform="matrix(0.971555,0.236816,-0.236816,0.971555,124.209,-51.4445)">
            <g transform="matrix(1,0,0,1,274.758,485.762)">
                <path d="M-0.637,9.573C-0.775,9.687 -1.795,10.506 -3.159,10.232C-4.077,10.046 -5.057,9.401 -5.355,8.322C-5.535,7.671 -5.34,7.031 -5.056,6.498C-4.743,5.912 -4.309,5.443 -3.996,5.217L-3.995,5.217C-2.438,4.097 -0.192,3.215 3.49,1.926C6.68,0.81 7.75,0.451 10.124,0.047L10.124,0.047C11.54,-0.194 12.731,-0.199 13.44,0.266C13.676,0.421 14.73,0.951 14.988,2.46L14.988,2.46C15.163,3.479 14.466,4.256 14.322,4.427L14.322,4.427C13.625,5.262 12.684,5.425 12.435,5.462C11.889,5.542 11.511,6.051 11.592,6.597C11.672,7.143 12.181,7.521 12.727,7.44C13.142,7.379 14.697,7.096 15.856,5.711C16.116,5.401 17.275,3.964 16.96,2.122C16.548,-0.283 14.914,-1.159 14.538,-1.406L14.538,-1.406C13.518,-2.075 11.824,-2.272 9.788,-1.925C7.298,-1.501 6.174,-1.132 2.83,0.038L2.83,0.038C-1.11,1.417 -3.497,2.395 -5.163,3.593C-6.163,4.312 -7.915,6.569 -7.283,8.856L-7.283,8.856C-6.769,10.711 -5.132,11.874 -3.555,12.192L-3.555,12.192C-1.289,12.648 0.407,11.305 0.637,11.115C1.062,10.763 1.122,10.133 0.771,9.707C0.419,9.282 -0.211,9.222 -0.637,9.573Z" style="fill:#231f20;"/>
            </g>
            <g transform="matrix(1,0,0,1,270.844,502.207)">
                <path d="M-0.983,-4.579C-1.095,-3.984 -1.179,-3.22 -1.134,-2.339L-1.134,-2.339C-1.075,-1.236 -0.834,-0.325 -0.601,0.334C-0.416,0.854 0.156,1.127 0.676,0.943C1.196,0.758 1.469,0.186 1.285,-0.334C1.1,-0.854 0.91,-1.573 0.864,-2.443C0.828,-3.138 0.895,-3.741 0.983,-4.211C1.085,-4.753 0.727,-5.276 0.184,-5.378C-0.358,-5.48 -0.881,-5.122 -0.983,-4.579Z" style="fill:#231f20;"/>
            </g>
            <g transform="matrix(1,0,0,1,286.823,515.075)">
                <path d="M-28.393,12.064C-28.52,11.551 -28.493,11.664 -28.589,11.023C-28.861,9.206 -28.698,7.805 -28.553,6.581L-28.553,6.581C-28.441,5.635 -28.247,4.063 -27.59,2.078C-26.721,-0.544 -25.556,-2.346 -25.231,-2.835C-24.055,-4.603 -22.885,-5.738 -21.899,-6.689L-21.899,-6.689C-20.656,-7.888 -19.479,-9.033 -17.593,-10.095L-17.592,-10.095C-16.959,-10.452 -15.061,-11.466 -12.324,-12.022L-12.324,-12.022C-10.764,-12.339 -7.483,-12.979 -3.742,-11.756L-3.741,-11.756C-2.307,-11.288 -1.221,-10.682 -0.535,-10.247C-0.069,-9.952 0.549,-10.091 0.845,-10.557C1.14,-11.023 1.001,-11.641 0.535,-11.937C-0.247,-12.432 -1.485,-13.124 -3.121,-13.658C-7.307,-15.025 -10.977,-14.337 -12.722,-13.982C-15.763,-13.364 -17.871,-12.234 -18.574,-11.837C-20.635,-10.677 -21.93,-9.438 -23.287,-8.129C-24.357,-7.098 -25.621,-5.861 -26.897,-3.942L-26.897,-3.941C-27.253,-3.405 -28.535,-1.429 -29.488,1.45L-29.488,1.45C-30.203,3.608 -30.417,5.317 -30.539,6.345C-30.702,7.715 -30.871,9.284 -30.567,11.319L-30.567,11.319C-30.446,12.125 -30.494,11.895 -30.296,12.701C-30.192,13.126 -29.918,13.512 -29.421,13.797C-29.005,14.035 -28.366,14.215 -27.547,14.297C-24.977,14.556 -20.277,13.961 -16.017,13.092C-11.842,12.241 -8.918,11.362 -8.259,11.162C-3.001,9.566 0.682,7.846 1.591,7.416L1.591,7.416C4.422,6.076 6.797,4.946 9.495,2.949C12.255,0.906 14.497,-0.603 15.879,-2.117C16.956,-3.298 17.552,-4.502 17.601,-5.892C17.65,-7.25 17.19,-8.613 15.839,-11.155L15.839,-11.155C14.998,-12.735 13.839,-14.532 13.072,-15.668L13.072,-15.668C9.948,-20.29 6.794,-24.105 4.252,-25.925C3.803,-26.246 3.178,-26.143 2.857,-25.694C2.536,-25.245 2.639,-24.62 3.088,-24.299C5.498,-22.573 8.454,-18.93 11.414,-14.548C12.151,-13.458 13.266,-11.733 14.073,-10.215C15.174,-8.146 15.642,-7.069 15.603,-5.964L15.603,-5.964C15.56,-4.763 14.839,-3.814 13.72,-2.787C12.39,-1.566 10.516,-0.295 8.305,1.341C5.723,3.252 3.445,4.326 0.735,5.608C-0.148,6.026 -3.729,7.696 -8.84,9.248L-8.841,9.248C-9.484,9.444 -12.34,10.301 -16.417,11.132L-16.417,11.132C-20.456,11.956 -24.91,12.553 -27.346,12.307C-27.756,12.266 -28.23,12.119 -28.393,12.064Z" style="fill:#231f20;"/>
            </g>
        </g>
        <g transform="matrix(0.24,0,0,0.24,-7.54988,3.82211)">
            <path d="M1380.91,1808.36C1369.11,1819.41 1337.19,1833.68 1327.46,1835.46C1326.3,1835.68 1326.3,1836.08 1325.93,1837.13C1325.92,1837.15 1325.9,1837.14 1325.88,1837.15C1323.59,1847.97 1322.02,1857.21 1321,1867.38C1319.8,1879.14 1317.01,1906.7 1322.9,1936.78C1331.72,1981.86 1355.89,2013.33 1374.61,2031.8C1379.09,2036.22 1385.11,2038.65 1391.56,2038.65C1397.68,2038.65 1403.48,2036.42 1407.9,2032.37C1417.25,2023.8 1417.52,2009.59 1408.51,2000.69C1394.26,1986.64 1375.88,1962.73 1369.2,1928.57C1364.53,1904.76 1366.79,1882.42 1367.88,1871.67C1369.59,1854.72 1372.95,1840.94 1379.69,1813.36C1380.22,1811.2 1380.33,1810.51 1380.91,1808.36Z" style="fill:#231f20;fill-rule:nonzero;"/>
        </g>
        <g>
            <g transform="matrix(1,0,0,1,321.161,503.874)">
                <path d="M-0.999,-4.373C-1.031,-3.768 -1.014,-3.001 -0.852,-2.131L-0.852,-2.131C-0.65,-1.046 -0.291,-0.172 0.028,0.454C0.278,0.945 0.881,1.142 1.373,0.891C1.864,0.641 2.061,0.038 1.81,-0.454C1.559,-0.948 1.274,-1.64 1.114,-2.497C0.986,-3.183 0.973,-3.788 0.999,-4.265C1.028,-4.817 0.605,-5.288 0.054,-5.318C-0.498,-5.347 -0.969,-4.924 -0.999,-4.373Z" style="fill:#231f20;"/>
            </g>
            <g transform="matrix(1,0,0,1,337.828,517.793)">
                <path d="M-25.111,12.338C-25.307,11.834 -25.264,11.947 -25.445,11.319C-25.955,9.549 -25.978,8.138 -25.996,6.908C-26.01,5.957 -26.024,4.375 -25.634,2.326L-25.634,2.326C-25.119,-0.377 -24.201,-2.303 -23.944,-2.826C-23.011,-4.719 -22.002,-5.984 -21.15,-7.045L-21.15,-7.045C-20.075,-8.382 -19.059,-9.657 -17.329,-10.935L-17.329,-10.935C-16.749,-11.364 -14.999,-12.596 -12.36,-13.474L-12.36,-13.474C-10.855,-13.975 -7.685,-15.001 -3.81,-14.235L-3.81,-14.235C-2.324,-13.941 -1.166,-13.469 -0.427,-13.12C0.072,-12.884 0.669,-13.098 0.904,-13.597C1.14,-14.096 0.926,-14.693 0.427,-14.928C-0.414,-15.325 -1.732,-15.863 -3.422,-16.197C-7.758,-17.055 -11.307,-15.933 -12.992,-15.372C-15.928,-14.394 -17.873,-13.02 -18.518,-12.543C-20.411,-11.145 -21.533,-9.76 -22.708,-8.297C-23.634,-7.146 -24.725,-5.767 -25.738,-3.71L-25.738,-3.71C-26.021,-3.134 -27.033,-1.019 -27.598,1.952C-28.023,4.181 -28.01,5.901 -27.996,6.936L-27.996,6.936C-27.976,8.314 -27.937,9.891 -27.367,11.873L-27.367,11.873C-27.141,12.656 -27.219,12.435 -26.917,13.211C-26.759,13.617 -26.438,13.963 -25.913,14.184C-25.469,14.371 -24.813,14.472 -23.991,14.456C-21.407,14.406 -16.822,13.254 -12.711,11.883C-8.68,10.539 -5.895,9.318 -5.268,9.041C-0.261,6.828 3.167,4.682 4.012,4.147C6.645,2.478 8.853,1.073 11.267,-1.232L11.267,-1.232C13.737,-3.589 15.763,-5.355 16.934,-7.022C17.849,-8.326 18.282,-9.592 18.147,-10.98L18.147,-10.98C18.016,-12.332 17.38,-13.628 15.706,-15.986L15.706,-15.986C14.665,-17.453 13.278,-19.096 12.367,-20.132L12.367,-20.132C8.66,-24.343 5.03,-27.749 2.268,-29.25C1.783,-29.513 1.176,-29.333 0.912,-28.848C0.649,-28.363 0.829,-27.756 1.314,-27.492C3.934,-26.069 7.348,-22.805 10.865,-18.81C11.74,-17.816 13.075,-16.237 14.076,-14.828C15.442,-12.904 16.05,-11.89 16.157,-10.788C16.272,-9.595 15.683,-8.569 14.712,-7.42C13.553,-6.049 11.863,-4.566 9.886,-2.678C7.577,-0.475 5.459,0.862 2.942,2.457L2.942,2.457C2.121,2.978 -1.211,5.062 -6.076,7.211L-6.076,7.211C-6.689,7.482 -9.408,8.673 -13.343,9.985L-13.343,9.985C-17.241,11.285 -21.58,12.409 -24.03,12.456C-24.447,12.464 -24.945,12.372 -25.111,12.338Z" style="fill:#231f20;"/>
            </g>
            <g transform="matrix(1,0,0,1,325.056,485.189)">
                <path d="M-0.781,11.667C-0.891,11.804 -1.71,12.798 -3.096,12.796C-4.042,12.794 -5.148,12.348 -5.678,11.341L-5.678,11.341C-6.341,10.083 -5.516,8.583 -5.026,8.048C-3.745,6.65 -1.737,5.349 1.585,3.371L1.585,3.371C4.464,1.656 5.434,1.096 7.67,0.238C9.004,-0.275 10.172,-0.51 10.968,-0.193L10.968,-0.193C11.234,-0.087 12.388,0.229 12.97,1.666L12.97,1.666C13.36,2.626 12.849,3.52 12.746,3.714L12.746,3.715C12.248,4.659 11.372,4.999 11.138,5.082C10.618,5.268 10.347,5.84 10.532,6.36C10.718,6.88 11.29,7.151 11.81,6.966C12.204,6.825 13.675,6.241 14.515,4.649C14.703,4.292 15.531,2.658 14.824,0.914C13.906,-1.349 12.126,-1.885 11.708,-2.051C10.566,-2.506 8.868,-2.365 6.953,-1.63L6.952,-1.63C4.606,-0.728 3.584,-0.148 0.561,1.653C-2.999,3.773 -5.127,5.198 -6.5,6.696C-7.326,7.598 -8.564,10.154 -7.448,12.273C-6.55,13.98 -4.705,14.792 -3.1,14.796L-3.1,14.796C-0.778,14.8 0.597,13.146 0.781,12.915C1.126,12.484 1.055,11.854 0.624,11.51C0.193,11.165 -0.437,11.236 -0.781,11.667Z" style="fill:#231f20;"/>
            </g>
        </g>
        <g transform="matrix(0.24,0,0,0.24,-7.54988,3.82211)">
            <path d="M1228.13,1214.84C1230.41,1214.84 1232.68,1215.87 1234.95,1217.75C1237.42,1219.81 1239.85,1222.87 1242.18,1226.82C1253.49,1245.97 1262.45,1285.62 1262.45,1337.08C1262.45,1383.73 1254.66,1420.86 1244.85,1441.63L1243.97,1443.49L1252.7,1445.83L1253.38,1444.35C1264.76,1419.5 1271.46,1377.73 1271.46,1337.08C1271.46,1292.24 1263.69,1246.34 1250.04,1222.82C1243.88,1212.22 1236.44,1206.12 1228.13,1206.12C1219.83,1206.12 1212.39,1212.22 1206.24,1222.82C1192.59,1246.34 1184.81,1292.24 1184.81,1337.08C1184.81,1381.46 1191.06,1424.09 1204.47,1447.77L1205.32,1449.28L1213.56,1446.67L1212.73,1445.24C1201.58,1425.9 1193.83,1388.04 1193.83,1337.08C1193.83,1285.62 1202.78,1245.97 1214.09,1226.82C1216.43,1222.87 1218.85,1219.81 1221.32,1217.75C1223.59,1215.87 1225.86,1214.84 1228.13,1214.84Z" style="fill:#231f20;fill-rule:nonzero;"/>
        </g>
        <g transform="matrix(0.24,0,0,0.24,-7.54988,3.82211)">
            <path d="M1209.89,1447C1209.98,1446.99 1233.67,1440.58 1233.86,1440.56C1243.32,1422.9 1248.73,1388 1249.78,1353.83C1249.78,1352.52 1249.78,1348.66 1227.42,1335.8L1248.25,1315.98L1249.41,1314.51L1249.34,1313.26C1247.07,1271.51 1237.85,1222.75 1219.33,1222.75C1199.4,1222.75 1188.64,1281.88 1188.64,1337.52C1188.64,1383.54 1196.06,1431.67 1209.89,1447Z" style="fill:#231f20;fill-rule:nonzero;"/>
        </g>
        <g transform="matrix(0.24,0,0,0.24,-7.54988,3.82211)">
            <path d="M1394.83,1450.6C1396.07,1450.21 1397.31,1449.8 1398.58,1449.51C1398.92,1449.44 1399.26,1449.42 1399.6,1449.37L1401.85,1449.02L1400.71,1447.05C1389.57,1427.71 1380.78,1388.59 1380.78,1337.68C1380.78,1286.22 1389.74,1246.57 1401.05,1227.42C1403.39,1223.47 1405.81,1220.41 1408.28,1218.35C1410.54,1216.47 1412.82,1215.44 1415.09,1215.44C1417.37,1215.44 1419.64,1216.47 1421.9,1218.35C1424.38,1220.41 1426.8,1223.47 1429.14,1227.42C1440.45,1246.57 1449.4,1286.22 1449.4,1337.68C1449.4,1387.64 1440.95,1426.38 1430.11,1446.1L1429.33,1447.51L1430.76,1448.24C1432.66,1449.21 1434.38,1450.04 1436.13,1450.84L1437.48,1451.46L1438.17,1450.15C1450.82,1425.96 1458.41,1380.7 1458.41,1337.68C1458.41,1292.84 1450.64,1246.94 1436.99,1223.42C1430.84,1212.82 1423.4,1206.71 1415.09,1206.71C1406.79,1206.71 1399.35,1212.82 1393.19,1223.42C1379.54,1246.94 1371.77,1292.84 1371.77,1337.68C1371.77,1381.57 1379.26,1426.28 1392.39,1450.18L1393.03,1451.34L1394.28,1450.9C1394.44,1450.84 1394.7,1450.69 1394.83,1450.6Z" style="fill:#231f20;fill-rule:nonzero;"/>
        </g>
        <g transform="matrix(0.24,0,0,0.24,-7.54988,3.82211)">
            <path d="M1397.08,1447.81C1397.47,1447.7 1418.65,1444.68 1419.85,1444.66C1430.55,1428.24 1436.36,1391.63 1437.47,1355.17C1437.47,1353.87 1437.47,1350.01 1415.12,1337.15L1435.97,1317.31L1437.11,1315.84L1437.04,1314.61C1434.77,1272.86 1425.54,1224.1 1407.02,1224.1C1387.09,1224.1 1376.34,1283.23 1376.34,1338.87C1376.34,1384.33 1383.57,1431.87 1397.08,1447.81Z" style="fill:#231f20;fill-rule:nonzero;"/>
        </g>
        <g transform="matrix(1,0,0,1,320.516,348.473)">
            <path d="M0.679,26.369C-5.817,20.357 -3.01,10.451 3.624,5.809L3.624,5.809C10.332,1.115 19.204,2.521 24.698,8.892C25.058,9.31 25.69,9.357 26.108,8.996C26.526,8.636 26.573,8.004 26.212,7.586C20.026,0.413 10.03,-1.115 2.478,4.171C-5.148,9.507 -8.147,20.925 -0.679,27.837C-0.274,28.212 0.359,28.187 0.734,27.782C1.109,27.377 1.084,26.744 0.679,26.369Z" style="fill:#231f20;"/>
        </g>
        <g transform="matrix(1,0,0,1,273.845,347.953)">
            <path d="M0.791,25.838C-4.129,19.472 -2.684,10.518 4.007,5.835C10.742,1.124 20.216,2.487 25.169,8.895C25.506,9.332 26.135,9.413 26.571,9.075C27.008,8.738 27.089,8.109 26.751,7.673C21.16,0.437 10.464,-1.124 2.861,4.197L2.861,4.197C-4.786,9.548 -6.415,19.786 -0.791,27.062C-0.454,27.498 0.175,27.579 0.612,27.241C1.048,26.904 1.129,26.275 0.791,25.838Z" style="fill:#231f20;"/>
        </g>
        <g transform="matrix(0.24,0,0,0.24,-7.54988,3.82211)">
            <path d="M1352.38,1514.94C1351.9,1514.29 1351.87,1496.93 1354.68,1490C1359.62,1477.85 1366,1473.42 1365.68,1472.13C1360.56,1451.06 1340.19,1435.51 1316.18,1436.96C1291.98,1438.42 1272.24,1457.87 1271.49,1480.94C1270.66,1506.67 1292.42,1527.86 1319.28,1527.86C1332.17,1527.86 1343.78,1522.87 1352.38,1514.94Z" style="fill:#231f20;fill-rule:nonzero;"/>
        </g>
        <g transform="matrix(-0.793868,-0.60809,-0.60809,0.793868,311.426,353.708)">
            <path d="M-0.738,-2.806C-2.533,-2.779 -4.711,-1.589 -3.787,-0.51C-3.039,0.364 -2.369,-0.703 -0.738,-0.836C0.788,-0.96 1.91,0.485 2.514,-0.318C3.331,-1.403 1.058,-2.833 -0.738,-2.806" style="fill:#fff;fill-rule:nonzero;"/>
        </g>
        <g transform="matrix(0,-1,-1,0,309.624,377.06)">
            <path d="M-5.724,-5.724C-9.189,-5.724 -11.998,-3.161 -11.998,0C-11.998,3.161 -9.189,5.724 -5.724,5.724C-2.259,5.724 0.55,3.161 0.55,0C0.55,-3.161 -2.259,-5.724 -5.724,-5.724" style="fill:#231f20;fill-rule:nonzero;"/>
        </g>
        <g transform="matrix(1,0,0,1,310.739,391.401)">
            <path d="M0.073,-18.315C-5.764,-18.74 -10.563,-13.788 -10.563,-8.675C-10.563,-3.562 -5.983,1.423 0.073,0.987C0.623,0.948 1.038,0.469 0.998,-0.082C0.959,-0.632 0.48,-1.047 -0.071,-1.007C-4.893,-0.661 -8.563,-4.604 -8.563,-8.675C-8.563,-12.744 -4.718,-16.658 -0.073,-16.321C0.478,-16.281 0.957,-16.695 0.997,-17.245C1.037,-17.796 0.623,-18.275 0.073,-18.315Z" style="fill:#231f20;"/>
        </g>
        <g transform="matrix(-1,0,0,1,290.697,382.737)">
            <path d="M-5.289,-1L0,-1C0.552,-1 1,-0.552 1,-0C1,0.552 0.552,1 0,1L-5.289,1C-5.841,1 -6.289,0.552 -6.289,-0C-6.289,-0.552 -5.841,-1 -5.289,-1Z" style="fill:#231f20;"/>
        </g>
        <g transform="matrix(0.957957,-0.286912,-0.286912,-0.957957,291.611,389.543)">
            <path d="M-0.111,-0.245L5.156,-0.245C5.708,-0.244 6.156,0.204 6.156,0.756C6.156,1.307 5.708,1.756 5.156,1.755L-0.111,1.755C-0.663,1.756 -1.111,1.307 -1.111,0.756C-1.111,0.204 -0.663,-0.244 -0.111,-0.245Z" style="fill:#231f20;"/>
        </g>
        <g transform="matrix(-0.957957,-0.286912,-0.286912,0.957957,291.264,376.025)">
            <path d="M-5.156,-0.245L0.111,-0.244C0.663,-0.245 1.111,0.204 1.111,0.755C1.111,1.307 0.663,1.755 0.111,1.755L-5.156,1.755C-5.708,1.755 -6.156,1.307 -6.156,0.755C-6.156,0.204 -5.708,-0.245 -5.156,-0.245Z" style="fill:#231f20;"/>
        </g>
        <g transform="matrix(-0.183935,-0.982938,-0.982938,0.183935,218.931,337.438)">
            <path d="M-4.864,-5.858C-6.56,-5.889 -7.936,-3.701 -7.936,-0.968C-7.936,1.764 -6.56,4.005 -4.864,4.037C-3.167,4.069 -1.791,1.88 -1.791,-0.853C-1.791,-3.585 -3.167,-5.826 -4.864,-5.858" style="fill:#231f20;fill-rule:nonzero;"/>
        </g>
    </g>
</svg>
