<svg width="810" height="82" viewBox="0 0 810 82" fill="none" xmlns="http://www.w3.org/2000/svg">
<g filter="url(#filter0_i_11101_83380)">
<g filter="url(#filter1_i_11101_83380)">
<rect width="179" height="82" fill="white"/>
<rect x="16.5" y="16.5" width="113" height="23" rx="2.5" fill="#E0E0E0"/>
<path d="M29.064 31.992H29.016C28.952 32.144 28.872 32.292 28.776 32.436C28.68 32.572 28.56 32.692 28.416 32.796C28.28 32.9 28.116 32.984 27.924 33.048C27.732 33.112 27.508 33.144 27.252 33.144C26.604 33.144 26.084 32.94 25.692 32.532C25.3 32.116 25.104 31.532 25.104 30.78V26.808H26.064V30.612C26.064 31.18 26.188 31.604 26.436 31.884C26.684 32.156 27.048 32.292 27.528 32.292C27.72 32.292 27.908 32.268 28.092 32.22C28.276 32.172 28.44 32.1 28.584 32.004C28.728 31.908 28.844 31.788 28.932 31.644C29.02 31.492 29.064 31.312 29.064 31.104V26.808H30.024V33H29.064V31.992ZM35.4993 25.44C35.2193 25.44 35.0233 25.384 34.9113 25.272C34.7993 25.152 34.7433 25.004 34.7433 24.828V24.636C34.7433 24.46 34.7993 24.316 34.9113 24.204C35.0233 24.084 35.2193 24.024 35.4993 24.024C35.7793 24.024 35.9753 24.084 36.0873 24.204C36.1993 24.316 36.2553 24.46 36.2553 24.636V24.828C36.2553 25.004 36.1993 25.152 36.0873 25.272C35.9753 25.384 35.7793 25.44 35.4993 25.44ZM32.7873 32.184H35.0193V27.624H32.7873V26.808H35.9793V32.184H38.0673V33H32.7873V32.184ZM40.8906 29.856V28.848H44.3706V29.856H40.8906ZM47.6859 24.12H48.6459V27.816H48.6939C49.0939 27.048 49.7299 26.664 50.6019 26.664C51.3619 26.664 51.9539 26.948 52.3779 27.516C52.8099 28.084 53.0259 28.88 53.0259 29.904C53.0259 30.928 52.8099 31.724 52.3779 32.292C51.9539 32.86 51.3619 33.144 50.6019 33.144C49.7299 33.144 49.0939 32.76 48.6939 31.992H48.6459V33H47.6859V24.12ZM50.2299 32.292C50.7899 32.292 51.2219 32.124 51.5259 31.788C51.8379 31.444 51.9939 30.992 51.9939 30.432V29.376C51.9939 28.816 51.8379 28.368 51.5259 28.032C51.2219 27.688 50.7899 27.516 50.2299 27.516C50.0139 27.516 49.8099 27.544 49.6179 27.6C49.4259 27.656 49.2579 27.74 49.1139 27.852C48.9699 27.956 48.8539 28.088 48.7659 28.248C48.6859 28.4 48.6459 28.58 48.6459 28.788V31.02C48.6459 31.228 48.6859 31.412 48.7659 31.572C48.8539 31.724 48.9699 31.856 49.1139 31.968C49.2579 32.072 49.4259 32.152 49.6179 32.208C49.8099 32.264 50.0139 32.292 50.2299 32.292ZM60.0013 33C59.6253 33 59.3573 32.904 59.1973 32.712C59.0373 32.52 58.9373 32.28 58.8973 31.992H58.8373C58.7013 32.352 58.4813 32.636 58.1773 32.844C57.8813 33.044 57.4813 33.144 56.9773 33.144C56.3293 33.144 55.8133 32.976 55.4293 32.64C55.0453 32.304 54.8533 31.844 54.8533 31.26C54.8533 30.684 55.0613 30.24 55.4773 29.928C55.9013 29.616 56.5813 29.46 57.5173 29.46H58.8373V28.848C58.8373 28.392 58.7093 28.052 58.4533 27.828C58.1973 27.596 57.8333 27.48 57.3613 27.48C56.9453 27.48 56.6053 27.564 56.3413 27.732C56.0773 27.892 55.8653 28.112 55.7053 28.392L55.0573 27.912C55.1373 27.752 55.2453 27.596 55.3813 27.444C55.5173 27.292 55.6853 27.16 55.8853 27.048C56.0853 26.928 56.3133 26.836 56.5693 26.772C56.8253 26.7 57.1093 26.664 57.4213 26.664C58.1493 26.664 58.7253 26.848 59.1493 27.216C59.5813 27.584 59.7973 28.096 59.7973 28.752V32.16H60.6613V33H60.0013ZM57.1453 32.34C57.3933 32.34 57.6173 32.312 57.8173 32.256C58.0253 32.192 58.2053 32.112 58.3573 32.016C58.5093 31.912 58.6253 31.792 58.7053 31.656C58.7933 31.512 58.8373 31.36 58.8373 31.2V30.18H57.5173C56.9413 30.18 56.5213 30.26 56.2573 30.42C55.9933 30.58 55.8613 30.812 55.8613 31.116V31.368C55.8613 31.688 55.9733 31.932 56.1973 32.1C56.4293 32.26 56.7453 32.34 57.1453 32.34ZM65.3926 33.144C64.9446 33.144 64.5446 33.068 64.1926 32.916C63.8486 32.756 63.5566 32.536 63.3166 32.256C63.0766 31.976 62.8926 31.636 62.7646 31.236C62.6446 30.836 62.5846 30.392 62.5846 29.904C62.5846 29.416 62.6486 28.972 62.7766 28.572C62.9046 28.172 63.0886 27.832 63.3286 27.552C63.5686 27.264 63.8606 27.044 64.2046 26.892C64.5486 26.74 64.9406 26.664 65.3806 26.664C65.9806 26.664 66.4686 26.796 66.8446 27.06C67.2206 27.324 67.4966 27.668 67.6726 28.092L66.9046 28.5C66.7926 28.18 66.6046 27.932 66.3406 27.756C66.0846 27.58 65.7646 27.492 65.3806 27.492C65.1006 27.492 64.8486 27.54 64.6246 27.636C64.4086 27.724 64.2246 27.852 64.0726 28.02C63.9206 28.188 63.8046 28.388 63.7246 28.62C63.6526 28.852 63.6166 29.104 63.6166 29.376V30.432C63.6166 30.704 63.6526 30.956 63.7246 31.188C63.8046 31.42 63.9206 31.62 64.0726 31.788C64.2246 31.956 64.4126 32.088 64.6366 32.184C64.8606 32.272 65.1166 32.316 65.4046 32.316C65.8206 32.316 66.1646 32.22 66.4366 32.028C66.7086 31.836 66.9246 31.572 67.0846 31.236L67.7686 31.704C67.5846 32.12 67.2966 32.464 66.9046 32.736C66.5206 33.008 66.0166 33.144 65.3926 33.144ZM70.3519 24.12H71.3119V29.724H71.3599L72.4399 28.704L74.5039 26.808H75.6799L73.1119 29.232L75.9799 33H74.7919L72.3799 29.784L71.3119 30.756V33H70.3519V24.12ZM83.3392 33.708C83.3392 34.332 83.0792 34.792 82.5592 35.088C82.0392 35.392 81.2592 35.544 80.2192 35.544C79.2192 35.544 78.4992 35.412 78.0592 35.148C77.6272 34.884 77.4112 34.504 77.4112 34.008C77.4112 33.672 77.4992 33.412 77.6752 33.228C77.8512 33.044 78.0992 32.908 78.4192 32.82V32.676C78.2432 32.588 78.1072 32.476 78.0112 32.34C77.9152 32.204 77.8672 32.032 77.8672 31.824C77.8672 31.504 77.9712 31.264 78.1792 31.104C78.3952 30.944 78.6632 30.824 78.9832 30.744V30.696C78.5992 30.528 78.2992 30.28 78.0832 29.952C77.8752 29.624 77.7712 29.24 77.7712 28.8C77.7712 28.488 77.8272 28.2 77.9392 27.936C78.0512 27.672 78.2112 27.448 78.4192 27.264C78.6352 27.072 78.8912 26.924 79.1872 26.82C79.4832 26.716 79.8112 26.664 80.1712 26.664C80.6352 26.664 81.0432 26.748 81.3952 26.916V26.808C81.3952 26.568 81.4512 26.368 81.5632 26.208C81.6752 26.048 81.8672 25.968 82.1392 25.968H83.2792V26.808H81.8872V27.228C82.1112 27.42 82.2832 27.648 82.4032 27.912C82.5232 28.176 82.5832 28.472 82.5832 28.8C82.5832 29.112 82.5232 29.4 82.4032 29.664C82.2912 29.928 82.1312 30.156 81.9232 30.348C81.7152 30.532 81.4592 30.676 81.1552 30.78C80.8592 30.884 80.5312 30.936 80.1712 30.936C80.0672 30.936 79.9672 30.932 79.8712 30.924C79.7752 30.916 79.6792 30.904 79.5832 30.888C79.4872 30.904 79.3872 30.932 79.2832 30.972C79.1792 31.004 79.0832 31.052 78.9952 31.116C78.9072 31.172 78.8352 31.24 78.7792 31.32C78.7232 31.4 78.6952 31.492 78.6952 31.596C78.6952 31.78 78.7872 31.904 78.9712 31.968C79.1552 32.024 79.3952 32.052 79.6912 32.052H81.0592C81.8592 32.052 82.4392 32.204 82.7992 32.508C83.1592 32.804 83.3392 33.204 83.3392 33.708ZM82.4392 33.756C82.4392 33.508 82.3392 33.308 82.1392 33.156C81.9392 33.012 81.5912 32.94 81.0952 32.94H78.9472C78.5312 33.108 78.3232 33.388 78.3232 33.78C78.3232 34.052 78.4312 34.284 78.6472 34.476C78.8632 34.676 79.2232 34.776 79.7272 34.776H80.6632C81.2232 34.776 81.6592 34.688 81.9712 34.512C82.2832 34.344 82.4392 34.092 82.4392 33.756ZM80.1712 30.192C80.6512 30.192 81.0032 30.08 81.2272 29.856C81.4592 29.632 81.5752 29.336 81.5752 28.968V28.62C81.5752 28.252 81.4592 27.96 81.2272 27.744C81.0032 27.52 80.6512 27.408 80.1712 27.408C79.6912 27.408 79.3392 27.52 79.1152 27.744C78.8912 27.96 78.7792 28.252 78.7792 28.62V28.968C78.7792 29.336 78.8912 29.632 79.1152 29.856C79.3392 30.08 79.6912 30.192 80.1712 30.192ZM85.0465 32.184H86.8585V27.624H85.0465V26.808H87.8185V28.368H87.8785C88.0065 27.88 88.2465 27.5 88.5985 27.228C88.9585 26.948 89.4145 26.808 89.9665 26.808H90.8305V27.768H89.6665C89.1145 27.768 88.6665 27.928 88.3225 28.248C87.9865 28.568 87.8185 28.988 87.8185 29.508V32.184H90.2185V33H85.0465V32.184ZM95.2378 33.144C94.8058 33.144 94.4138 33.068 94.0618 32.916C93.7178 32.764 93.4218 32.548 93.1738 32.268C92.9338 31.98 92.7498 31.64 92.6218 31.248C92.4938 30.848 92.4298 30.4 92.4298 29.904C92.4298 29.416 92.4938 28.972 92.6218 28.572C92.7498 28.172 92.9338 27.832 93.1738 27.552C93.4218 27.264 93.7178 27.044 94.0618 26.892C94.4138 26.74 94.8058 26.664 95.2378 26.664C95.6698 26.664 96.0578 26.74 96.4018 26.892C96.7538 27.044 97.0498 27.264 97.2898 27.552C97.5378 27.832 97.7258 28.172 97.8538 28.572C97.9818 28.972 98.0458 29.416 98.0458 29.904C98.0458 30.4 97.9818 30.848 97.8538 31.248C97.7258 31.64 97.5378 31.98 97.2898 32.268C97.0498 32.548 96.7538 32.764 96.4018 32.916C96.0578 33.068 95.6698 33.144 95.2378 33.144ZM95.2378 32.316C95.7738 32.316 96.2058 32.156 96.5338 31.836C96.8618 31.516 97.0258 31.02 97.0258 30.348V29.46C97.0258 28.788 96.8618 28.292 96.5338 27.972C96.2058 27.652 95.7738 27.492 95.2378 27.492C94.7018 27.492 94.2698 27.652 93.9418 27.972C93.6138 28.292 93.4498 28.788 93.4498 29.46V30.348C93.4498 31.02 93.6138 31.516 93.9418 31.836C94.2698 32.156 94.7018 32.316 95.2378 32.316ZM104.217 31.992H104.169C104.105 32.144 104.025 32.292 103.929 32.436C103.833 32.572 103.713 32.692 103.569 32.796C103.433 32.9 103.269 32.984 103.077 33.048C102.885 33.112 102.661 33.144 102.405 33.144C101.757 33.144 101.237 32.94 100.845 32.532C100.453 32.116 100.257 31.532 100.257 30.78V26.808H101.217V30.612C101.217 31.18 101.341 31.604 101.589 31.884C101.837 32.156 102.201 32.292 102.681 32.292C102.873 32.292 103.061 32.268 103.245 32.22C103.429 32.172 103.593 32.1 103.737 32.004C103.881 31.908 103.997 31.788 104.085 31.644C104.173 31.492 104.217 31.312 104.217 31.104V26.808H105.177V33H104.217V31.992ZM107.844 33V26.808H108.804V27.816H108.852C108.916 27.664 108.996 27.52 109.092 27.384C109.188 27.24 109.304 27.116 109.44 27.012C109.584 26.908 109.752 26.824 109.944 26.76C110.136 26.696 110.36 26.664 110.616 26.664C111.264 26.664 111.784 26.872 112.176 27.288C112.568 27.696 112.764 28.276 112.764 29.028V33H111.804V29.196C111.804 28.628 111.68 28.208 111.432 27.936C111.184 27.656 110.82 27.516 110.34 27.516C110.148 27.516 109.96 27.54 109.776 27.588C109.592 27.636 109.428 27.708 109.284 27.804C109.14 27.9 109.024 28.024 108.936 28.176C108.848 28.328 108.804 28.504 108.804 28.704V33H107.844ZM119.284 31.992H119.236C118.836 32.76 118.2 33.144 117.328 33.144C116.568 33.144 115.972 32.86 115.54 32.292C115.116 31.724 114.904 30.928 114.904 29.904C114.904 28.88 115.116 28.084 115.54 27.516C115.972 26.948 116.568 26.664 117.328 26.664C118.2 26.664 118.836 27.048 119.236 27.816H119.284V24.12H120.244V33H119.284V31.992ZM117.7 32.292C117.916 32.292 118.12 32.264 118.312 32.208C118.504 32.152 118.672 32.072 118.816 31.968C118.96 31.856 119.072 31.724 119.152 31.572C119.24 31.412 119.284 31.228 119.284 31.02V28.788C119.284 28.58 119.24 28.4 119.152 28.248C119.072 28.088 118.96 27.956 118.816 27.852C118.672 27.74 118.504 27.656 118.312 27.6C118.12 27.544 117.916 27.516 117.7 27.516C117.14 27.516 116.704 27.688 116.392 28.032C116.088 28.368 115.936 28.816 115.936 29.376V30.432C115.936 30.992 116.088 31.444 116.392 31.788C116.704 32.124 117.14 32.292 117.7 32.292Z" fill="#161616"/>
<rect x="16.5" y="16.5" width="113" height="23" rx="2.5" stroke="#E0E0E0"/>
</g>
<g filter="url(#filter2_i_11101_83380)">
<rect width="209" height="82" transform="translate(179)" fill="white"/>
<path d="M201.636 30V28.964H197.478V20.228H196.302V30H201.636ZM203.924 21.082C204.4 21.082 204.61 20.83 204.61 20.452V20.27C204.61 19.892 204.4 19.64 203.924 19.64C203.448 19.64 203.238 19.892 203.238 20.27V20.452C203.238 20.83 203.448 21.082 203.924 21.082ZM203.364 30H204.484V22.776H203.364V30ZM213.114 30.798C213.114 29.608 212.344 28.88 210.552 28.88H209.012C208.354 28.88 207.906 28.768 207.906 28.334C207.906 27.886 208.382 27.648 208.858 27.522C209.068 27.564 209.32 27.592 209.558 27.592C211.21 27.592 212.288 26.57 212.288 25.1C212.288 24.33 211.98 23.686 211.462 23.238V22.776H212.834V21.796H211.756C211.154 21.796 210.916 22.202 210.916 22.762V22.888C210.524 22.706 210.062 22.608 209.544 22.608C207.906 22.608 206.828 23.63 206.828 25.1C206.828 26.108 207.332 26.906 208.186 27.312V27.368C207.458 27.55 206.94 27.9 206.94 28.628C206.94 29.118 207.178 29.44 207.584 29.636V29.79C206.87 29.986 206.436 30.406 206.436 31.19C206.436 32.324 207.36 32.968 209.614 32.968C211.938 32.968 213.114 32.282 213.114 30.798ZM212.064 30.882C212.064 31.666 211.336 32.058 210.09 32.058H209.054C207.92 32.058 207.486 31.54 207.486 30.91C207.486 30.462 207.696 30.14 208.158 29.93H210.566C211.686 29.93 212.064 30.308 212.064 30.882ZM209.558 26.696C208.606 26.696 208.004 26.248 208.004 25.296V24.904C208.004 23.952 208.606 23.504 209.558 23.504C210.51 23.504 211.112 23.952 211.112 24.904V25.296C211.112 26.248 210.51 26.696 209.558 26.696ZM214.58 30H215.7V24.988C215.7 24.064 216.568 23.616 217.464 23.616C218.542 23.616 219.102 24.274 219.102 25.562V30H220.222V25.366C220.222 23.616 219.284 22.608 217.8 22.608C216.722 22.608 216.106 23.14 215.756 23.952H215.7V19.64H214.58V30ZM225.693 30V29.02H224.223V23.756H225.805V22.776H224.223V20.774H223.215V22.118C223.215 22.608 223.061 22.776 222.585 22.776H221.913V23.756H223.103V28.81C223.103 29.51 223.523 30 224.293 30H225.693ZM231.234 32.8H232.354V28.824H232.41C232.844 29.72 233.53 30.168 234.524 30.168C236.33 30.168 237.464 28.698 237.464 26.388C237.464 24.078 236.33 22.608 234.524 22.608C233.53 22.608 232.788 23.042 232.41 23.952H232.354V22.776H231.234V32.8ZM234.216 29.16C233.194 29.16 232.354 28.628 232.354 27.69V25.002C232.354 24.204 233.194 23.616 234.216 23.616C235.476 23.616 236.26 24.484 236.26 25.772V27.004C236.26 28.292 235.476 29.16 234.216 29.16ZM245.395 30V29.02H244.569V25.044C244.569 23.518 243.533 22.608 241.797 22.608C240.495 22.608 239.627 23.252 239.235 24.022L239.907 24.652C240.299 23.994 240.873 23.574 241.741 23.574C242.889 23.574 243.449 24.134 243.449 25.156V25.87H242.021C239.921 25.87 238.941 26.626 238.941 27.984C238.941 29.328 239.837 30.168 241.363 30.168C242.371 30.168 243.141 29.706 243.449 28.824H243.519C243.603 29.496 243.939 30 244.765 30H245.395ZM241.545 29.216C240.677 29.216 240.117 28.81 240.117 28.096V27.802C240.117 27.102 240.691 26.71 241.965 26.71H243.449V27.9C243.449 28.642 242.651 29.216 241.545 29.216ZM253.244 30.798C253.244 29.608 252.474 28.88 250.682 28.88H249.142C248.484 28.88 248.036 28.768 248.036 28.334C248.036 27.886 248.512 27.648 248.988 27.522C249.198 27.564 249.45 27.592 249.688 27.592C251.34 27.592 252.418 26.57 252.418 25.1C252.418 24.33 252.11 23.686 251.592 23.238V22.776H252.964V21.796H251.886C251.284 21.796 251.046 22.202 251.046 22.762V22.888C250.654 22.706 250.192 22.608 249.674 22.608C248.036 22.608 246.958 23.63 246.958 25.1C246.958 26.108 247.462 26.906 248.316 27.312V27.368C247.588 27.55 247.07 27.9 247.07 28.628C247.07 29.118 247.308 29.44 247.714 29.636V29.79C247 29.986 246.566 30.406 246.566 31.19C246.566 32.324 247.49 32.968 249.744 32.968C252.068 32.968 253.244 32.282 253.244 30.798ZM252.194 30.882C252.194 31.666 251.466 32.058 250.22 32.058H249.184C248.05 32.058 247.616 31.54 247.616 30.91C247.616 30.462 247.826 30.14 248.288 29.93H250.696C251.816 29.93 252.194 30.308 252.194 30.882ZM249.688 26.696C248.736 26.696 248.134 26.248 248.134 25.296V24.904C248.134 23.952 248.736 23.504 249.688 23.504C250.64 23.504 251.242 23.952 251.242 24.904V25.296C251.242 26.248 250.64 26.696 249.688 26.696ZM257.344 30.168C258.702 30.168 259.738 29.496 260.2 28.516L259.402 27.942C259.024 28.74 258.324 29.188 257.414 29.188C256.07 29.188 255.272 28.25 255.272 27.004V26.668H260.466V26.136C260.466 24.092 259.276 22.608 257.344 22.608C255.384 22.608 254.096 24.092 254.096 26.388C254.096 28.684 255.384 30.168 257.344 30.168ZM257.344 23.546C258.492 23.546 259.262 24.4 259.262 25.674V25.828H255.272V25.73C255.272 24.47 256.126 23.546 257.344 23.546ZM265.94 30H267.06V28.824H267.116C267.55 29.72 268.236 30.168 269.23 30.168C271.036 30.168 272.17 28.698 272.17 26.388C272.17 24.078 271.036 22.608 269.23 22.608C268.236 22.608 267.494 23.042 267.116 23.952H267.06V19.64H265.94V30ZM268.922 29.16C267.9 29.16 267.06 28.628 267.06 27.69V25.002C267.06 24.204 267.9 23.616 268.922 23.616C270.182 23.616 270.966 24.484 270.966 25.772V27.004C270.966 28.292 270.182 29.16 268.922 29.16ZM280.101 30V29.02H279.275V25.044C279.275 23.518 278.239 22.608 276.503 22.608C275.201 22.608 274.333 23.252 273.941 24.022L274.613 24.652C275.005 23.994 275.579 23.574 276.447 23.574C277.595 23.574 278.155 24.134 278.155 25.156V25.87H276.727C274.627 25.87 273.647 26.626 273.647 27.984C273.647 29.328 274.543 30.168 276.069 30.168C277.077 30.168 277.847 29.706 278.155 28.824H278.225C278.309 29.496 278.645 30 279.471 30H280.101ZM276.251 29.216C275.383 29.216 274.823 28.81 274.823 28.096V27.802C274.823 27.102 275.397 26.71 276.671 26.71H278.155V27.9C278.155 28.642 277.357 29.216 276.251 29.216ZM284.548 30.168C285.92 30.168 286.858 29.496 287.32 28.46L286.508 27.914C286.116 28.74 285.458 29.174 284.548 29.174C283.218 29.174 282.532 28.264 282.532 27.004V25.772C282.532 24.512 283.218 23.602 284.548 23.602C285.43 23.602 286.046 24.036 286.312 24.778L287.25 24.302C286.83 23.308 285.976 22.608 284.548 22.608C282.518 22.608 281.328 24.078 281.328 26.388C281.328 28.698 282.518 30.168 284.548 30.168ZM289.061 30H290.181V27.424L291.259 26.318L293.653 30H295.011L292.071 25.632L294.745 22.776H293.387L291.343 24.974L290.237 26.206H290.181V19.64H289.061V30ZM302.557 30.798C302.557 29.608 301.787 28.88 299.995 28.88H298.455C297.797 28.88 297.349 28.768 297.349 28.334C297.349 27.886 297.825 27.648 298.301 27.522C298.511 27.564 298.763 27.592 299.001 27.592C300.653 27.592 301.731 26.57 301.731 25.1C301.731 24.33 301.423 23.686 300.905 23.238V22.776H302.277V21.796H301.199C300.597 21.796 300.359 22.202 300.359 22.762V22.888C299.967 22.706 299.505 22.608 298.987 22.608C297.349 22.608 296.271 23.63 296.271 25.1C296.271 26.108 296.775 26.906 297.629 27.312V27.368C296.901 27.55 296.383 27.9 296.383 28.628C296.383 29.118 296.621 29.44 297.027 29.636V29.79C296.313 29.986 295.879 30.406 295.879 31.19C295.879 32.324 296.803 32.968 299.057 32.968C301.381 32.968 302.557 32.282 302.557 30.798ZM301.507 30.882C301.507 31.666 300.779 32.058 299.533 32.058H298.497C297.363 32.058 296.929 31.54 296.929 30.91C296.929 30.462 297.139 30.14 297.601 29.93H300.009C301.129 29.93 301.507 30.308 301.507 30.882ZM299.001 26.696C298.049 26.696 297.447 26.248 297.447 25.296V24.904C297.447 23.952 298.049 23.504 299.001 23.504C299.953 23.504 300.555 23.952 300.555 24.904V25.296C300.555 26.248 299.953 26.696 299.001 26.696ZM305.143 30V25.1C305.143 24.414 305.871 23.896 307.075 23.896H307.733V22.776H307.299C306.123 22.776 305.465 23.42 305.213 24.106H305.143V22.776H304.023V30H305.143ZM311.986 30.168C313.918 30.168 315.248 28.684 315.248 26.388C315.248 24.092 313.918 22.608 311.986 22.608C310.054 22.608 308.724 24.092 308.724 26.388C308.724 28.684 310.054 30.168 311.986 30.168ZM311.986 29.174C310.782 29.174 309.928 28.432 309.928 26.906V25.87C309.928 24.344 310.782 23.602 311.986 23.602C313.19 23.602 314.044 24.344 314.044 25.87V26.906C314.044 28.432 313.19 29.174 311.986 29.174ZM321.702 30H322.822V22.776H321.702V27.774C321.702 28.726 320.834 29.16 319.952 29.16C318.874 29.16 318.3 28.502 318.3 27.214V22.776H317.18V27.41C317.18 29.16 318.132 30.168 319.616 30.168C320.82 30.168 321.366 29.51 321.646 28.824H321.702V30ZM326.487 30V24.988C326.487 24.064 327.355 23.616 328.251 23.616C329.329 23.616 329.889 24.274 329.889 25.562V30H331.009V25.366C331.009 23.616 330.071 22.608 328.587 22.608C327.509 22.608 326.893 23.14 326.543 23.952H326.487V22.776H325.367V30H326.487ZM338.104 30H339.224V19.64H338.104V23.952H338.048C337.67 23.042 336.928 22.608 335.934 22.608C334.128 22.608 332.994 24.078 332.994 26.388C332.994 28.698 334.128 30.168 335.934 30.168C336.928 30.168 337.614 29.72 338.048 28.824H338.104V30ZM336.242 29.16C334.982 29.16 334.198 28.292 334.198 27.004V25.772C334.198 24.484 334.982 23.616 336.242 23.616C337.264 23.616 338.104 24.204 338.104 25.002V27.69C338.104 28.628 337.264 29.16 336.242 29.16Z" fill="#161616"/>
</g>
<g filter="url(#filter3_i_11101_83380)">
<rect width="343" height="82" transform="translate(388)" fill="white"/>
<path d="M411.63 30H412.722V24.974H409.418V26.01H411.574V26.976C411.574 28.418 410.44 29.118 409.082 29.118C407.22 29.118 406.072 27.83 406.072 25.898V24.316C406.072 22.384 407.248 21.11 408.97 21.11C410.202 21.11 411.112 21.754 411.56 22.79L412.526 22.202C411.896 20.928 410.72 20.06 408.97 20.06C406.464 20.06 404.812 21.866 404.812 25.114C404.812 28.39 406.478 30.168 408.872 30.168C410.356 30.168 411.35 29.482 411.588 28.572H411.63V30ZM416.204 30V25.1C416.204 24.414 416.932 23.896 418.136 23.896H418.794V22.776H418.36C417.184 22.776 416.526 23.42 416.274 24.106H416.204V22.776H415.084V30H416.204ZM426.21 30V29.02H425.384V25.044C425.384 23.518 424.348 22.608 422.612 22.608C421.31 22.608 420.442 23.252 420.05 24.022L420.722 24.652C421.114 23.994 421.688 23.574 422.556 23.574C423.704 23.574 424.264 24.134 424.264 25.156V25.87H422.836C420.736 25.87 419.756 26.626 419.756 27.984C419.756 29.328 420.652 30.168 422.178 30.168C423.186 30.168 423.956 29.706 424.264 28.824H424.334C424.418 29.496 424.754 30 425.58 30H426.21ZM422.36 29.216C421.492 29.216 420.932 28.81 420.932 28.096V27.802C420.932 27.102 421.506 26.71 422.78 26.71H424.264V27.9C424.264 28.642 423.466 29.216 422.36 29.216ZM430.602 27.69L430.21 28.866H430.14L429.804 27.69L428.068 22.776H426.948L429.65 30.28L429.104 31.82H427.97V32.8H428.544C429.608 32.8 429.902 32.548 430.224 31.68L433.458 22.776H432.352L430.602 27.69ZM441.525 30.168C443.863 30.168 444.885 28.306 444.885 25.114C444.885 21.922 443.863 20.06 441.525 20.06C439.187 20.06 438.165 21.922 438.165 25.114C438.165 28.306 439.187 30.168 441.525 30.168ZM441.525 29.146C439.999 29.146 439.397 27.802 439.397 25.912V24.316C439.397 22.426 439.999 21.082 441.525 21.082C443.051 21.082 443.653 22.426 443.653 24.316V25.912C443.653 27.802 443.051 29.146 441.525 29.146ZM450.08 30.168C452.418 30.168 453.44 28.306 453.44 25.114C453.44 21.922 452.418 20.06 450.08 20.06C447.742 20.06 446.72 21.922 446.72 25.114C446.72 28.306 447.742 30.168 450.08 30.168ZM450.08 29.146C448.554 29.146 447.952 27.802 447.952 25.912V24.316C447.952 22.426 448.554 21.082 450.08 21.082C451.606 21.082 452.208 22.426 452.208 24.316V25.912C452.208 27.802 451.606 29.146 450.08 29.146Z" fill="#161616"/>
<rect x="404.5" y="42.5" width="188" height="23" rx="2.5" fill="#E0E0E0"/>
<path d="M416.224 54.716L418.816 50.624H417.712L416.704 52.244L415.672 53.936H415.624L414.58 52.244L413.608 50.624H412.468L415.048 54.728L412.312 59H413.416L414.472 57.332L415.612 55.508H415.66L416.764 57.332L417.76 59H418.9L416.224 54.716ZM423.115 59.108C423.763 59.108 424.003 58.796 424.003 58.388V58.172C424.003 57.764 423.763 57.452 423.115 57.452C422.467 57.452 422.227 57.764 422.227 58.172V58.388C422.227 58.796 422.467 59.108 423.115 59.108ZM423.115 54.356C423.763 54.356 424.003 54.044 424.003 53.636V53.42C424.003 53.012 423.763 52.7 423.115 52.7C422.467 52.7 422.227 53.012 422.227 53.42V53.636C422.227 54.044 422.467 54.356 423.115 54.356ZM430.631 59.144C432.671 59.144 433.559 57.548 433.559 54.812C433.559 52.076 432.671 50.48 430.631 50.48C428.591 50.48 427.703 52.076 427.703 54.812C427.703 57.548 428.591 59.144 430.631 59.144ZM430.631 58.268C429.287 58.268 428.747 57.176 428.747 55.496V54.128C428.747 52.448 429.287 51.356 430.631 51.356C431.975 51.356 432.515 52.448 432.515 54.128V55.496C432.515 57.176 431.975 58.268 430.631 58.268ZM430.631 55.52C431.183 55.52 431.375 55.268 431.375 54.944V54.68C431.375 54.356 431.183 54.104 430.631 54.104C430.079 54.104 429.887 54.356 429.887 54.68V54.944C429.887 55.268 430.079 55.52 430.631 55.52ZM446.165 59V55.712L449.057 50.624H447.929L446.729 52.808L445.685 54.716H445.637L444.617 52.808L443.417 50.624H442.265L445.157 55.712V59H446.165ZM453.177 59.108C453.825 59.108 454.065 58.796 454.065 58.388V58.172C454.065 57.764 453.825 57.452 453.177 57.452C452.529 57.452 452.289 57.764 452.289 58.172V58.388C452.289 58.796 452.529 59.108 453.177 59.108ZM453.177 54.356C453.825 54.356 454.065 54.044 454.065 53.636V53.42C454.065 53.012 453.825 52.7 453.177 52.7C452.529 52.7 452.289 53.012 452.289 53.42V53.636C452.289 54.044 452.529 54.356 453.177 54.356ZM460.692 59.144C462.732 59.144 463.62 57.548 463.62 54.812C463.62 52.076 462.732 50.48 460.692 50.48C458.652 50.48 457.764 52.076 457.764 54.812C457.764 57.548 458.652 59.144 460.692 59.144ZM460.692 58.268C459.348 58.268 458.808 57.176 458.808 55.496V54.128C458.808 52.448 459.348 51.356 460.692 51.356C462.036 51.356 462.576 52.448 462.576 54.128V55.496C462.576 57.176 462.036 58.268 460.692 58.268ZM460.692 55.52C461.244 55.52 461.436 55.268 461.436 54.944V54.68C461.436 54.356 461.244 54.104 460.692 54.104C460.14 54.104 459.948 54.356 459.948 54.68V54.944C459.948 55.268 460.14 55.52 460.692 55.52ZM473.179 59H476.383C477.679 59 478.639 57.944 478.639 56.588C478.639 55.424 477.955 54.836 477.019 54.62V54.584C477.787 54.344 478.327 53.78 478.327 52.784C478.327 51.476 477.451 50.624 476.023 50.624H473.179V59ZM474.187 58.124V55.088H476.083C477.007 55.088 477.571 55.52 477.571 56.36V56.852C477.571 57.704 477.007 58.124 476.083 58.124H474.187ZM474.187 54.26V51.5H475.915C476.755 51.5 477.271 51.884 477.271 52.652V53.12C477.271 53.888 476.755 54.26 475.915 54.26H474.187ZM483.238 59.108C483.886 59.108 484.126 58.796 484.126 58.388V58.172C484.126 57.764 483.886 57.452 483.238 57.452C482.59 57.452 482.35 57.764 482.35 58.172V58.388C482.35 58.796 482.59 59.108 483.238 59.108ZM483.238 54.356C483.886 54.356 484.126 54.044 484.126 53.636V53.42C484.126 53.012 483.886 52.7 483.238 52.7C482.59 52.7 482.35 53.012 482.35 53.42V53.636C482.35 54.044 482.59 54.356 483.238 54.356ZM490.753 59.144C492.793 59.144 493.681 57.548 493.681 54.812C493.681 52.076 492.793 50.48 490.753 50.48C488.713 50.48 487.825 52.076 487.825 54.812C487.825 57.548 488.713 59.144 490.753 59.144ZM490.753 58.268C489.409 58.268 488.869 57.176 488.869 55.496V54.128C488.869 52.448 489.409 51.356 490.753 51.356C492.097 51.356 492.637 52.448 492.637 54.128V55.496C492.637 57.176 492.097 58.268 490.753 58.268ZM490.753 55.52C491.305 55.52 491.497 55.268 491.497 54.944V54.68C491.497 54.356 491.305 54.104 490.753 54.104C490.201 54.104 490.009 54.356 490.009 54.68V54.944C490.009 55.268 490.201 55.52 490.753 55.52ZM505.76 59.144C507.62 59.144 508.688 58.208 508.688 56.66C508.688 55.568 508.148 54.656 506.504 54.368L505.604 54.212C504.416 54.008 504.032 53.528 504.032 52.784C504.032 51.836 504.668 51.344 505.796 51.344C506.84 51.344 507.44 51.764 507.908 52.376L508.616 51.764C508.052 50.96 507.14 50.48 505.808 50.48C504.104 50.48 503.012 51.272 503.012 52.808C503.012 53.864 503.528 54.812 505.172 55.088L506.108 55.244C507.248 55.436 507.668 55.868 507.668 56.684C507.668 57.692 507.008 58.28 505.796 58.28C504.788 58.28 504.104 57.884 503.456 57.068L502.724 57.668C503.348 58.532 504.26 59.144 505.76 59.144ZM513.299 59.108C513.947 59.108 514.187 58.796 514.187 58.388V58.172C514.187 57.764 513.947 57.452 513.299 57.452C512.651 57.452 512.411 57.764 512.411 58.172V58.388C512.411 58.796 512.651 59.108 513.299 59.108ZM513.299 54.356C513.947 54.356 514.187 54.044 514.187 53.636V53.42C514.187 53.012 513.947 52.7 513.299 52.7C512.651 52.7 512.411 53.012 512.411 53.42V53.636C512.411 54.044 512.651 54.356 513.299 54.356ZM523.85 59V58.124H521.642V50.624H520.07L517.85 52.7L518.438 53.336L520.55 51.368H520.634V58.124H518.234V59H523.85ZM533.565 59H534.441L535.917 50.624H535.041L534.585 53.216H532.869V54.008H534.441L534.165 55.616H532.437V56.408H534.021L533.565 59ZM535.773 59H536.649L537.105 56.408H538.821V55.616H537.249L537.525 54.008H539.253V53.216H537.669L538.125 50.624H537.249L535.773 59ZM543.468 59.144C544.692 59.144 545.58 58.544 545.952 57.716L545.244 57.236C544.92 57.908 544.296 58.316 543.468 58.316C542.304 58.316 541.572 57.524 541.572 56.432V56.144H546.156V55.688C546.156 53.936 545.076 52.664 543.408 52.664C541.728 52.664 540.564 53.936 540.564 55.916C540.564 57.872 541.692 59.144 543.468 59.144ZM543.408 53.456C544.428 53.456 545.124 54.2 545.124 55.292V55.424H541.572V55.34C541.572 54.26 542.352 53.456 543.408 53.456ZM550.876 59.144C552.916 59.144 553.804 57.548 553.804 54.812C553.804 52.076 552.916 50.48 550.876 50.48C548.836 50.48 547.948 52.076 547.948 54.812C547.948 57.548 548.836 59.144 550.876 59.144ZM550.876 58.268C549.532 58.268 548.992 57.176 548.992 55.496V54.128C548.992 52.448 549.532 51.356 550.876 51.356C552.22 51.356 552.76 52.448 552.76 54.128V55.496C552.76 57.176 552.22 58.268 550.876 58.268ZM550.876 55.52C551.428 55.52 551.62 55.268 551.62 54.944V54.68C551.62 54.356 551.428 54.104 550.876 54.104C550.324 54.104 550.132 54.356 550.132 54.68V54.944C550.132 55.268 550.324 55.52 550.876 55.52ZM558.499 59.144C559.723 59.144 560.611 58.544 560.983 57.716L560.275 57.236C559.951 57.908 559.327 58.316 558.499 58.316C557.335 58.316 556.603 57.524 556.603 56.432V56.144H561.187V55.688C561.187 53.936 560.107 52.664 558.439 52.664C556.759 52.664 555.595 53.936 555.595 55.916C555.595 57.872 556.723 59.144 558.499 59.144ZM558.439 53.456C559.459 53.456 560.155 54.2 560.155 55.292V55.424H556.603V55.34C556.603 54.26 557.383 53.456 558.439 53.456ZM565.906 59.144C567.946 59.144 568.834 57.548 568.834 54.812C568.834 52.076 567.946 50.48 565.906 50.48C563.866 50.48 562.978 52.076 562.978 54.812C562.978 57.548 563.866 59.144 565.906 59.144ZM565.906 58.268C564.562 58.268 564.022 57.176 564.022 55.496V54.128C564.022 52.448 564.562 51.356 565.906 51.356C567.25 51.356 567.79 52.448 567.79 54.128V55.496C567.79 57.176 567.25 58.268 565.906 58.268ZM565.906 55.52C566.458 55.52 566.65 55.268 566.65 54.944V54.68C566.65 54.356 566.458 54.104 565.906 54.104C565.354 54.104 565.162 54.356 565.162 54.68V54.944C565.162 55.268 565.354 55.52 565.906 55.52ZM573.53 59.144C574.754 59.144 575.642 58.544 576.014 57.716L575.306 57.236C574.982 57.908 574.358 58.316 573.53 58.316C572.366 58.316 571.634 57.524 571.634 56.432V56.144H576.218V55.688C576.218 53.936 575.138 52.664 573.47 52.664C571.79 52.664 570.626 53.936 570.626 55.916C570.626 57.872 571.754 59.144 573.53 59.144ZM573.47 53.456C574.49 53.456 575.186 54.2 575.186 55.292V55.424H571.634V55.34C571.634 54.26 572.414 53.456 573.47 53.456ZM580.937 59.144C582.977 59.144 583.865 57.548 583.865 54.812C583.865 52.076 582.977 50.48 580.937 50.48C578.897 50.48 578.009 52.076 578.009 54.812C578.009 57.548 578.897 59.144 580.937 59.144ZM580.937 58.268C579.593 58.268 579.053 57.176 579.053 55.496V54.128C579.053 52.448 579.593 51.356 580.937 51.356C582.281 51.356 582.821 52.448 582.821 54.128V55.496C582.821 57.176 582.281 58.268 580.937 58.268ZM580.937 55.52C581.489 55.52 581.681 55.268 581.681 54.944V54.68C581.681 54.356 581.489 54.104 580.937 54.104C580.385 54.104 580.193 54.356 580.193 54.68V54.944C580.193 55.268 580.385 55.52 580.937 55.52Z" fill="#161616"/>
<rect x="404.5" y="42.5" width="188" height="23" rx="2.5" stroke="#E0E0E0"/>
</g>
<g filter="url(#filter4_i_11101_83380)">
<rect width="79" height="82" transform="translate(731)" fill="white"/>
<circle cx="771" cy="40" r="23.5" fill="#F4F4F4" stroke="#E2E2E2"/>
</g>
</g>
<defs>
<filter id="filter0_i_11101_83380" x="0" y="0" width="810" height="82" filterUnits="userSpaceOnUse" color-interpolation-filters="sRGB">
<feFlood flood-opacity="0" result="BackgroundImageFix"/>
<feBlend mode="normal" in="SourceGraphic" in2="BackgroundImageFix" result="shape"/>
<feColorMatrix in="SourceAlpha" type="matrix" values="0 0 0 0 0 0 0 0 0 0 0 0 0 0 0 0 0 0 127 0" result="hardAlpha"/>
<feOffset dy="1"/>
<feComposite in2="hardAlpha" operator="arithmetic" k2="-1" k3="1"/>
<feColorMatrix type="matrix" values="0 0 0 0 0.878431 0 0 0 0 0.878431 0 0 0 0 0.878431 0 0 0 1 0"/>
<feBlend mode="normal" in2="shape" result="effect1_innerShadow_11101_83380"/>
</filter>
<filter id="filter1_i_11101_83380" x="0" y="0" width="179" height="82" filterUnits="userSpaceOnUse" color-interpolation-filters="sRGB">
<feFlood flood-opacity="0" result="BackgroundImageFix"/>
<feBlend mode="normal" in="SourceGraphic" in2="BackgroundImageFix" result="shape"/>
<feColorMatrix in="SourceAlpha" type="matrix" values="0 0 0 0 0 0 0 0 0 0 0 0 0 0 0 0 0 0 127 0" result="hardAlpha"/>
<feOffset dx="1"/>
<feComposite in2="hardAlpha" operator="arithmetic" k2="-1" k3="1"/>
<feColorMatrix type="matrix" values="0 0 0 0 0.878431 0 0 0 0 0.878431 0 0 0 0 0.878431 0 0 0 1 0"/>
<feBlend mode="normal" in2="shape" result="effect1_innerShadow_11101_83380"/>
</filter>
<filter id="filter2_i_11101_83380" x="179" y="0" width="209" height="82" filterUnits="userSpaceOnUse" color-interpolation-filters="sRGB">
<feFlood flood-opacity="0" result="BackgroundImageFix"/>
<feBlend mode="normal" in="SourceGraphic" in2="BackgroundImageFix" result="shape"/>
<feColorMatrix in="SourceAlpha" type="matrix" values="0 0 0 0 0 0 0 0 0 0 0 0 0 0 0 0 0 0 127 0" result="hardAlpha"/>
<feOffset dx="1"/>
<feComposite in2="hardAlpha" operator="arithmetic" k2="-1" k3="1"/>
<feColorMatrix type="matrix" values="0 0 0 0 0.878431 0 0 0 0 0.878431 0 0 0 0 0.878431 0 0 0 1 0"/>
<feBlend mode="normal" in2="shape" result="effect1_innerShadow_11101_83380"/>
</filter>
<filter id="filter3_i_11101_83380" x="388" y="0" width="343" height="82" filterUnits="userSpaceOnUse" color-interpolation-filters="sRGB">
<feFlood flood-opacity="0" result="BackgroundImageFix"/>
<feBlend mode="normal" in="SourceGraphic" in2="BackgroundImageFix" result="shape"/>
<feColorMatrix in="SourceAlpha" type="matrix" values="0 0 0 0 0 0 0 0 0 0 0 0 0 0 0 0 0 0 127 0" result="hardAlpha"/>
<feOffset dx="1"/>
<feComposite in2="hardAlpha" operator="arithmetic" k2="-1" k3="1"/>
<feColorMatrix type="matrix" values="0 0 0 0 0.878431 0 0 0 0 0.878431 0 0 0 0 0.878431 0 0 0 1 0"/>
<feBlend mode="normal" in2="shape" result="effect1_innerShadow_11101_83380"/>
</filter>
<filter id="filter4_i_11101_83380" x="731" y="0" width="79" height="82" filterUnits="userSpaceOnUse" color-interpolation-filters="sRGB">
<feFlood flood-opacity="0" result="BackgroundImageFix"/>
<feBlend mode="normal" in="SourceGraphic" in2="BackgroundImageFix" result="shape"/>
<feColorMatrix in="SourceAlpha" type="matrix" values="0 0 0 0 0 0 0 0 0 0 0 0 0 0 0 0 0 0 127 0" result="hardAlpha"/>
<feOffset dx="1"/>
<feComposite in2="hardAlpha" operator="arithmetic" k2="-1" k3="1"/>
<feColorMatrix type="matrix" values="0 0 0 0 0.878431 0 0 0 0 0.878431 0 0 0 0 0.878431 0 0 0 1 0"/>
<feBlend mode="normal" in2="shape" result="effect1_innerShadow_11101_83380"/>
</filter>
</defs>
</svg>
