<svg width="7720" height="2464" viewBox="0 0 7720 2464" fill="none"
    xmlns="http://www.w3.org/2000/svg">
    <rect width="7720" height="2464" fill="#F4F4F4"/>
    <rect width="1784" height="800" transform="translate(256 256)" fill="white"/>
    <rect width="1584" height="800" transform="translate(356 256)" fill="white"/>
    <rect width="1584" height="800" transform="translate(2136 256)" fill="white"/>
    <rect width="1312" height="800" transform="translate(3816 256)" fill="white"/>
    <rect width="1056" height="800" transform="translate(5224 256)" fill="white"/>
    <rect width="672" height="800" transform="translate(6376 256)" fill="white"/>
    <rect width="320" height="800" transform="translate(7144 256)" fill="white"/>
    <rect x="160.5" y="160.5" width="7399" height="991" rx="4.5" stroke="#7B61FF" stroke-dasharray="10 5"/>
    <rect width="1728" height="800" transform="translate(256 1408)" fill="white"/>
    <rect width="1472" height="800" transform="translate(512 1408)" fill="white"/>
    <rect width="1584" height="800" transform="translate(2080 1408)" fill="white"/>
    <rect width="1328" height="800" transform="translate(2336 1408)" fill="white"/>
    <rect width="1312" height="800" transform="translate(3760 1408)" fill="white"/>
    <rect width="1056" height="800" transform="translate(4016 1408)" fill="white"/>
    <rect width="1056" height="800" transform="translate(5168 1408)" fill="white"/>
    <rect width="800" height="800" transform="translate(5424 1408)" fill="white"/>
    <rect width="672" height="800" transform="translate(6320 1408)" fill="white"/>
    <rect width="672" height="800" transform="translate(6320 1408)" fill="white"/>
    <rect width="320" height="800" transform="translate(7088 1408)" fill="white"/>
    <rect width="320" height="800" transform="translate(7088 1408)" fill="white"/>
    <rect x="160.5" y="1312.5" width="7343" height="991" rx="4.5" stroke="#7B61FF" stroke-dasharray="10 5"/>
</svg>
