<?xml version="1.0" encoding="utf-8"?>
<!-- Generator: Adobe Illustrator 19.2.1, SVG Export Plug-In . SVG Version: 6.00 Build 0)  -->
<svg version="1.1" id="layer" xmlns="http://www.w3.org/2000/svg" xmlns:xlink="http://www.w3.org/1999/xlink" x="0px" y="0px"
	 viewBox="0 0 652 652" style="enable-background:new 0 0 652 652;" xml:space="preserve">
<style type="text/css">
	.st0{fill:#231F20;}
	.st1{fill:#EF5725;}
	.st2{fill:#FFFFFF;}
	.st3{fill:none;stroke:#FFFFFF;stroke-width:4.5303;stroke-miterlimit:10;}
</style>
<rect x="-59.1" y="71.4" class="st0" width="761.4" height="201.8"/>
<rect x="-59.1" y="297.3" class="st1" width="761.4" height="249.1"/>
<path class="st2" d="M23.8,195c0,2.7,0.4,5,1.1,6.9c2.2,6.3,8.7,7.7,14.4,7.7c4.9,0,12.4-1.8,12.4-9.6c0-5.5-4.2-6.9-21.1-12.1
	c-15.4-4.7-33.1-9.3-33.1-30.6c0-24.4,19.3-34.8,39.4-34.8c21.2,0,40,8.7,40.8,34.4H49.3c0.5-4-1.1-6.6-3.6-8.4
	c-2.5-1.9-5.9-2.7-8.9-2.7c-4.1,0-10.8,1.2-10.8,7.1c0.5,7.5,14.5,9.2,28.3,13.3c13.8,4.1,27.5,11.1,27.5,30.4
	c0,27.5-23.4,36.3-45.2,36.3c-11.1,0-42.7-4.3-43-37.9"/>
<rect x="91.1" y="125" class="st2" width="30.1" height="105.4"/>
<polyline class="st2" points="136.6,125.1 179.4,125.1 193.4,187.1 193.7,187.1 207.6,125.1 250.4,125.1 250.4,230.5 222,230.5 
	222,162.9 221.7,162.9 204.7,230.5 182.3,230.5 165.3,162.9 165.1,162.9 165.1,230.5 136.6,230.5 "/>
<path class="st2" d="M265.8,125.1h50.4c26.6,0,35.9,21,35.9,36c0,25.5-15.9,37.5-38.3,37.5h-17.8v31.9h-30.1 M295.9,173.5h11.6
	c7.8,0,16-0.6,16-11.2c0-9.6-6.8-10.2-14.2-10.2h-13.4V173.5z"/>
<path class="st2" d="M386.1,195c0,2.7,0.4,5,1.1,6.9c2.2,6.3,8.7,7.7,14.4,7.7c4.9,0,12.4-1.8,12.4-9.6c0-5.5-4.2-6.9-21.1-12.1
	c-15.4-4.7-33.1-9.3-33.1-30.6c0-24.4,19.3-34.8,39.4-34.8c21.2,0,40,8.7,40.8,34.4h-28.5c0.5-4-1.1-6.6-3.6-8.4
	c-2.5-1.9-5.9-2.7-8.9-2.7c-4.1,0-10.8,1.2-10.8,7.1c0.5,7.5,14.5,9.2,28.3,13.3c13.8,4.1,27.5,11.1,27.5,30.4
	c0,27.5-23.4,36.3-45.2,36.3c-11.1,0-42.7-4.3-43-37.9"/>
<path class="st2" d="M500.1,122.5c29.7,0,49.5,23,49.5,55.2S529.8,233,500.1,233c-29.7,0-49.5-23-49.5-55.2S470.4,122.5,500.1,122.5
	 M500.1,206.7c7.7,0,19.4-5.5,19.4-28.9c0-23.5-11.8-28.9-19.4-28.9c-7.7,0-19.4,5.5-19.4,28.9C480.7,201.2,492.5,206.7,500.1,206.7
	"/>
<polyline class="st2" points="562.5,125.1 593.3,125.1 621.7,181.5 622,181.5 622,125.1 650.5,125.1 650.5,230.5 621.2,230.5 
	591.2,172.9 590.9,172.9 590.9,230.5 562.5,230.5 "/>
<path class="st2" d="M-9.3,430.2h4.3c2.3,11.9,6.1,20.6,11.4,26c5.2,5.4,11.2,8.1,18,8.1c6.6,0,11.3-1.9,14-5.6
	c2.8-3.7,4.2-7.6,4.2-11.7c0-4.8-1.4-8.7-4.4-11.7c-1.9-2-5.8-4.6-11.6-7.7l-9.4-5.2c-9.3-5.1-15.9-10.1-19.8-15.1
	c-3.8-5-5.8-11.1-5.8-18.5c0-7.8,2.5-15,7.6-21.8c5.1-6.8,12.9-10.1,23.4-10.1c5.3,0,10.5,0.9,15.5,2.7c5,1.8,7.9,2.7,8.6,2.7
	c1.6,0,2.7-0.5,3.3-1.5c0.6-1,1.1-2.4,1.5-4h4.4v34.7h-4.1c-1.9-8-5.3-15-10.2-20.8c-4.9-5.8-10.7-8.7-17.7-8.7
	c-4.9,0-8.8,1.5-11.6,4.4C9.4,369.2,8,372.8,8,377c0,5,1.4,8.8,4,11.3c2.6,2.5,8.5,6.3,17.6,11.2l10.9,5.9c4.9,2.7,8.7,5.6,11.6,8.8
	c5.4,6,8.1,13.3,8.1,22c0,8-2.9,15.6-8.7,22.8c-5.8,7.1-15.1,10.7-27.8,10.7c-2.9,0-5.9-0.3-8.9-0.9c-3-0.6-6-1.5-8.9-2.8L3,464.9
	l-1.9-0.5l-1.6-0.2c-1.5,0-2.5,0.5-3.1,1.5c-0.6,0.9-1.1,2.3-1.5,4.1h-4.3"/>
<path class="st3" d="M-9.3,430.2h4.3c2.3,11.9,6.1,20.6,11.4,26c5.2,5.4,11.2,8.1,18,8.1c6.6,0,11.3-1.9,14-5.6
	c2.8-3.7,4.2-7.6,4.2-11.7c0-4.8-1.4-8.7-4.4-11.7c-1.9-2-5.8-4.6-11.6-7.7l-9.4-5.2c-9.3-5.1-15.9-10.1-19.8-15.1
	c-3.8-5-5.8-11.1-5.8-18.5c0-7.8,2.5-15,7.6-21.8c5.1-6.8,12.9-10.1,23.4-10.1c5.3,0,10.5,0.9,15.5,2.7c5,1.8,7.9,2.7,8.6,2.7
	c1.6,0,2.7-0.5,3.3-1.5c0.6-1,1.1-2.4,1.5-4h4.4v34.7h-4.1c-1.9-8-5.3-15-10.2-20.8c-4.9-5.8-10.7-8.7-17.7-8.7
	c-4.9,0-8.8,1.5-11.6,4.4C9.4,369.2,8,372.8,8,377c0,5,1.4,8.8,4,11.3c2.6,2.5,8.5,6.3,17.6,11.2l10.9,5.9c4.9,2.7,8.7,5.6,11.6,8.8
	c5.4,6,8.1,13.3,8.1,22c0,8-2.9,15.6-8.7,22.8c-5.8,7.1-15.1,10.7-27.8,10.7c-2.9,0-5.9-0.3-8.9-0.9c-3-0.6-6-1.5-8.9-2.8L3,464.9
	l-1.9-0.5l-1.6-0.2c-1.5,0-2.5,0.5-3.1,1.5c-0.6,0.9-1.1,2.3-1.5,4.1h-4.3V430.2z"/>
<path class="st2" d="M70,400.9v-4.4c1.3-1.3,2.9-2.8,4.8-4.6c2.5-2.6,5-5.2,7.2-7.9c4.5-5.3,8.5-11,12.2-17.1H98v27H112v7H98v48
	c0,2.2,0.3,4.1,0.9,5.6c1,2.3,2.5,3.5,4.7,3.5c1.9,0,3.5-0.8,4.8-2.2c1.3-1.5,2.6-3.5,3.9-6.1l3.5,1.9c-1.7,4.4-3.8,7.9-6.2,10.7
	c-4.2,4.8-9.4,7.2-15.5,7.2c-3.5,0-6.5-0.7-9.1-2.1c-5-2.7-7.5-7.6-7.5-14.7v-51.7"/>
<path class="st3" d="M70,400.9v-4.4c1.3-1.3,2.9-2.8,4.8-4.6c2.5-2.6,5-5.2,7.2-7.9c4.5-5.3,8.5-11,12.2-17.1H98v27H112v7H98v48
	c0,2.2,0.3,4.1,0.9,5.6c1,2.3,2.5,3.5,4.7,3.5c1.9,0,3.5-0.8,4.8-2.2c1.3-1.5,2.6-3.5,3.9-6.1l3.5,1.9c-1.7,4.4-3.8,7.9-6.2,10.7
	c-4.2,4.8-9.4,7.2-15.5,7.2c-3.5,0-6.5-0.7-9.1-2.1c-5-2.7-7.5-7.6-7.5-14.7v-51.7H70z"/>
<path class="st2" d="M119.4,463.5c2.8-0.4,4.8-1.1,5.9-2.2c1.1-1.1,1.7-3.2,1.8-6.3l0.1-4.7V407c0-3.3-0.5-5.6-1.6-6.8
	c-1.1-1.2-3.1-2-6.3-2.4v-3.8h28v12.5c3.1-4.4,6.2-7.9,9.3-10.5c3.1-2.6,6.6-3.9,10.7-3.9c3,0,5.8,1,8.2,3.1
	c2.4,2.1,3.7,5.2,3.7,9.2c0,3.1-0.9,5.7-2.6,7.7c-1.7,2-3.9,3-6.7,3c-3.1,0-5.8-1.6-8.1-4.8c-2.3-3.2-3.9-4.8-4.8-4.8
	c-2,0-4,1.3-6,4c-2,2.6-3,6.4-3,11.3v30.2c0,5.2,0.7,8.5,2.1,9.9c1.4,1.3,4.2,2.2,8.5,2.6v3.8h-39.3"/>
<path class="st3" d="M119.4,463.5c2.8-0.4,4.8-1.1,5.9-2.2c1.1-1.1,1.7-3.2,1.8-6.3l0.1-4.7V407c0-3.3-0.5-5.6-1.6-6.8
	c-1.1-1.2-3.1-2-6.3-2.4v-3.8h28v12.5c3.1-4.4,6.2-7.9,9.3-10.5c3.1-2.6,6.6-3.9,10.7-3.9c3,0,5.8,1,8.2,3.1
	c2.4,2.1,3.7,5.2,3.7,9.2c0,3.1-0.9,5.7-2.6,7.7c-1.7,2-3.9,3-6.7,3c-3.1,0-5.8-1.6-8.1-4.8c-2.3-3.2-3.9-4.8-4.8-4.8
	c-2,0-4,1.3-6,4c-2,2.6-3,6.4-3,11.3v30.2c0,5.2,0.7,8.5,2.1,9.9c1.4,1.3,4.2,2.2,8.5,2.6v3.8h-39.3V463.5z"/>
<path class="st2" d="M192.5,403c6.3-7.4,14.3-11.1,23.8-11.1c9.8,0,17.8,3.8,24,11.4c6.2,7.6,9.3,16.8,9.3,27.6
	c0,10.6-3.1,19.8-9.2,27.5c-6.2,7.7-14.2,11.5-24.1,11.5c-9.6,0-17.6-3.7-23.9-11.1c-6.3-7.5-9.4-16.7-9.4-27.8
	C183,419.7,186.2,410.4,192.5,403 M206.3,454.2c1.7,6.9,5,10.4,10,10.4c4.8,0,7.9-2.7,9.4-7.9c1.5-5.3,2.2-13.9,2.2-25.9
	c0-11.9-0.8-20.5-2.3-25.8c-1.6-5.3-4.6-8-9.2-8c-5,0-8.3,3.4-10,10.3c-1.1,4.6-1.7,12.4-1.7,23.5
	C204.7,442,205.3,449.8,206.3,454.2"/>
<path class="st3" d="M206.3,454.2c1.7,6.9,5,10.4,10,10.4c4.8,0,7.9-2.7,9.4-7.9c1.5-5.3,2.2-13.9,2.2-25.9
	c0-11.9-0.8-20.5-2.3-25.8c-1.6-5.3-4.6-8-9.2-8c-5,0-8.3,3.4-10,10.3c-1.1,4.6-1.7,12.4-1.7,23.5
	C204.7,442,205.3,449.8,206.3,454.2z"/>
<path class="st3" d="M192.5,403c6.3-7.4,14.3-11.1,23.8-11.1c9.8,0,17.8,3.8,24,11.4c6.2,7.6,9.3,16.8,9.3,27.6
	c0,10.6-3.1,19.8-9.2,27.5c-6.2,7.7-14.2,11.5-24.1,11.5c-9.6,0-17.6-3.7-23.9-11.1c-6.3-7.5-9.4-16.7-9.4-27.8
	C183,419.7,186.2,410.4,192.5,403z"/>
<path class="st2" d="M255.9,463.5c2.7-0.4,4.7-1.1,6-2.4c1.3-1.2,1.9-3.6,1.9-7.3V407c0-3.2-0.5-5.5-1.5-6.8c-1-1.3-3.1-2.1-6.3-2.5
	v-3.8h28v11.4c2.4-3.8,5.3-7,9-9.5c3.6-2.5,7.7-3.8,12.1-3.8c6.3,0,11.3,1.8,14.8,5.3c3.5,3.5,5.2,9.7,5.2,18.6v38.6
	c0,3.6,0.6,5.9,1.7,6.9c1.1,1,3,1.8,5.7,2.1v3.8h-34.7v-3.8c2.6-0.6,4.5-1.3,5.4-2.3c1-1,1.4-3.2,1.4-6.7v-38.6c0-3.6-0.3-6.4-1-8.2
	c-1.2-3.3-3.4-4.9-6.8-4.9c-2.6,0-4.9,1-7,3c-2.2,2-3.8,4-4.9,6v42.7c0,3.5,0.5,5.7,1.4,6.7c0.9,1,2.8,1.8,5.4,2.3v3.8h-35.6"/>
<path class="st3" d="M255.9,463.5c2.7-0.4,4.7-1.1,6-2.4c1.3-1.2,1.9-3.6,1.9-7.3V407c0-3.2-0.5-5.5-1.5-6.8c-1-1.3-3.1-2.1-6.3-2.5
	v-3.8h28v11.4c2.4-3.8,5.3-7,9-9.5c3.6-2.5,7.7-3.8,12.1-3.8c6.3,0,11.3,1.8,14.8,5.3c3.5,3.5,5.2,9.7,5.2,18.6v38.6
	c0,3.6,0.6,5.9,1.7,6.9c1.1,1,3,1.8,5.7,2.1v3.8h-34.7v-3.8c2.6-0.6,4.5-1.3,5.4-2.3c1-1,1.4-3.2,1.4-6.7v-38.6c0-3.6-0.3-6.4-1-8.2
	c-1.2-3.3-3.4-4.9-6.8-4.9c-2.6,0-4.9,1-7,3c-2.2,2-3.8,4-4.9,6v42.7c0,3.5,0.5,5.7,1.4,6.7c0.9,1,2.8,1.8,5.4,2.3v3.8h-35.6V463.5z
	"/>
<path class="st2" d="M341.7,478.8c1.7-2.4,4.8-4,9.1-4.7V473c-2.9-1.2-5-2.4-6.3-3.7c-2.3-2.2-3.5-5.2-3.5-8.9
	c0-4.5,1.8-8.3,5.4-11.4c3.6-3.2,7.2-5.4,10.6-6.6v-1.1c-5-2.2-9-5.3-12.1-9.3c-3.1-4.1-4.6-9-4.6-14.7c0-7.3,2.7-13.3,8.1-18
	c5.4-4.7,12.7-7.1,21.9-7.1c3.5,0,6.6,0.4,9.5,1.1c2.9,0.7,5.1,1.5,6.7,2.3h19.5v8.5h-12c1.9,2,3.4,4.4,4.4,7.1
	c1,2.7,1.5,5.6,1.5,8.8c0,10-4.4,16.8-13.2,20.5c-4.6,2-10.4,3-17.2,3c-1.5,0-2.5,0-2.9-0.1l-2.1-0.1c-1.4,0.3-2.9,1.1-4.5,2.5
	c-1.6,1.5-2.5,3.2-2.5,5.2c0,1.6,0.4,2.9,1.2,3.8c0.8,0.9,1.9,1.4,3.4,1.6c0.7,0.1,2.3,0.2,4.6,0.3c2.4,0.1,4.2,0.1,5.5,0.1l9.6,0.2
	c5.4,0.1,10,1,13.7,2.6c7.1,3.1,10.6,8.7,10.6,16.8c0,10.4-5.3,17.5-15.8,21.4c-5.6,2-12.6,3-21.1,3c-6.9,0-12.9-0.7-17.9-2.2
	c-8.3-2.4-12.4-6.6-12.4-12.5C339.1,483.5,340,481.2,341.7,478.8 M356.9,492.5c3.2,1.9,7.9,2.8,14.1,2.8c5.5,0,10-0.5,13.6-1.4
	c6.7-1.8,10-5,10-9.8c0-2.8-0.9-4.8-2.8-6.2c-1.9-1.4-5.3-2.1-10.3-2.1h-24.2c-1.5,1.3-2.6,2.5-3.3,3.4c-1.2,1.7-1.8,3.6-1.8,5.5
	C352.1,488.1,353.7,490.6,356.9,492.5 M362.1,431.4c1.4,4.7,4.2,7,8.3,7c3.7,0,6.3-1.7,7.6-5.3c1.4-3.5,2.1-8.6,2.1-15.4
	c0-7.2-0.7-12.4-2.2-15.6c-1.5-3.3-4-4.9-7.5-4.9c-3.9,0-6.5,1.7-7.8,5.3c-1.3,3.5-1.9,8.6-1.9,15.3
	C360.7,423.9,361.1,428.4,362.1,431.4"/>
<path class="st3" d="M362.1,431.4c1.4,4.7,4.2,7,8.3,7c3.7,0,6.3-1.7,7.6-5.3c1.4-3.5,2.1-8.6,2.1-15.4c0-7.2-0.7-12.4-2.2-15.6
	c-1.5-3.3-4-4.9-7.5-4.9c-3.9,0-6.5,1.7-7.8,5.3c-1.3,3.5-1.9,8.6-1.9,15.3C360.7,423.9,361.1,428.4,362.1,431.4z"/>
<path class="st3" d="M356.9,492.5c3.2,1.9,7.9,2.8,14.1,2.8c5.5,0,10-0.5,13.6-1.4c6.7-1.8,10-5,10-9.8c0-2.8-0.9-4.8-2.8-6.2
	c-1.9-1.4-5.3-2.1-10.3-2.1h-24.2c-1.5,1.3-2.6,2.5-3.3,3.4c-1.2,1.7-1.8,3.6-1.8,5.5C352.1,488.1,353.7,490.6,356.9,492.5z"/>
<path class="st3" d="M341.7,478.8c1.7-2.4,4.8-4,9.1-4.7V473c-2.9-1.2-5-2.4-6.3-3.7c-2.3-2.2-3.5-5.2-3.5-8.9
	c0-4.5,1.8-8.3,5.4-11.4c3.6-3.2,7.2-5.4,10.6-6.6v-1.1c-5-2.2-9-5.3-12.1-9.3c-3.1-4.1-4.6-9-4.6-14.7c0-7.3,2.7-13.3,8.1-18
	c5.4-4.7,12.7-7.1,21.9-7.1c3.5,0,6.6,0.4,9.5,1.1c2.9,0.7,5.1,1.5,6.7,2.3h19.5v8.5h-12c1.9,2,3.4,4.4,4.4,7.1
	c1,2.7,1.5,5.6,1.5,8.8c0,10-4.4,16.8-13.2,20.5c-4.6,2-10.4,3-17.2,3c-1.5,0-2.5,0-2.9-0.1l-2.1-0.1c-1.4,0.3-2.9,1.1-4.5,2.5
	c-1.6,1.5-2.5,3.2-2.5,5.2c0,1.6,0.4,2.9,1.2,3.8c0.8,0.9,1.9,1.4,3.4,1.6c0.7,0.1,2.3,0.2,4.6,0.3c2.4,0.1,4.2,0.1,5.5,0.1l9.6,0.2
	c5.4,0.1,10,1,13.7,2.6c7.1,3.1,10.6,8.7,10.6,16.8c0,10.4-5.3,17.5-15.8,21.4c-5.6,2-12.6,3-21.1,3c-6.9,0-12.9-0.7-17.9-2.2
	c-8.3-2.4-12.4-6.6-12.4-12.5C339.1,483.5,340,481.2,341.7,478.8z"/>
<rect x="416.1" y="421.6" class="st2" width="33.8" height="18.5"/>
<rect x="416.1" y="421.7" class="st3" width="33.8" height="18.5"/>
<path class="st2" d="M462.7,359.6h88.9l0.1,32.2h-4.3c-1.4-11.5-5.4-19.3-12-23.4c-3.7-2.2-9.2-3.4-16.6-3.6v84
	c0,5.9,0.9,9.8,2.8,11.7c1.9,1.9,5.9,2.9,11.9,2.9v4.1H481v-4.1c5.8,0,9.6-1,11.5-2.9c1.9-1.9,2.8-5.8,2.8-11.7v-84
	c-7.2,0.2-12.7,1.4-16.6,3.6c-7.1,4.2-11.1,12-12,23.4h-4.3"/>
<path class="st3" d="M462.7,359.6h88.9l0.1,32.2h-4.3c-1.4-11.5-5.4-19.3-12-23.4c-3.7-2.2-9.2-3.4-16.6-3.6v84
	c0,5.9,0.9,9.8,2.8,11.7c1.9,1.9,5.9,2.9,11.9,2.9v4.1H481v-4.1c5.8,0,9.6-1,11.5-2.9c1.9-1.9,2.8-5.8,2.8-11.7v-84
	c-7.2,0.2-12.7,1.4-16.6,3.6c-7.1,4.2-11.1,12-12,23.4h-4.3L462.7,359.6z"/>
<path class="st2" d="M557,463.5c2.6-0.5,4.4-1.2,5.3-2.1c1.4-1.4,2.2-3.9,2.2-7.5V407c0-3.2-0.5-5.5-1.5-6.6c-1-1.2-3-2-6-2.6v-3.8
	h28.3v60.6c0,3.5,0.5,5.7,1.4,6.7c1,1,2.8,1.8,5.4,2.3v3.8H557 M566.9,360.8c2.2-2.4,4.9-3.6,8.1-3.6c3.1,0,5.8,1.2,8,3.6
	c2.2,2.4,3.4,5.3,3.4,8.8c0,3.4-1.1,6.3-3.4,8.7c-2.2,2.4-4.9,3.6-8,3.6c-3.2,0-5.9-1.2-8.1-3.6c-2.2-2.4-3.3-5.3-3.3-8.7
	C563.5,366.1,564.6,363.2,566.9,360.8"/>
<path class="st3" d="M566.9,360.8c2.2-2.4,4.9-3.6,8.1-3.6c3.1,0,5.8,1.2,8,3.6c2.2,2.4,3.4,5.3,3.4,8.8c0,3.4-1.1,6.3-3.4,8.7
	c-2.2,2.4-4.9,3.6-8,3.6c-3.2,0-5.9-1.2-8.1-3.6c-2.2-2.4-3.3-5.3-3.3-8.7C563.5,366.1,564.6,363.2,566.9,360.8z"/>
<path class="st3" d="M557,463.5c2.6-0.5,4.4-1.2,5.3-2.1c1.4-1.4,2.2-3.9,2.2-7.5V407c0-3.2-0.5-5.5-1.5-6.6c-1-1.2-3-2-6-2.6v-3.8
	h28.3v60.6c0,3.5,0.5,5.7,1.4,6.7c1,1,2.8,1.8,5.4,2.3v3.8H557V463.5z"/>
<path class="st2" d="M608.1,402.2c6-6.8,13.3-10.2,21.8-10.2c4.9,0,9.4,1.4,13.7,4.1c4.3,2.8,7.6,6.6,9.9,11.5
	c1.7,3.7,2.9,8.5,3.6,14.3c0.3,2.7,0.5,4.8,0.5,6.3h-37.7c0.3,6.4,1.3,11.9,2.9,16.6c2.9,8.8,8,13.2,15.2,13.2
	c3.5,0,6.7-1.2,9.8-3.5c1.9-1.4,4.2-3.8,7-7.1l3.4,2.3c-4.6,8.1-9.9,13.7-15.9,16.9c-3.9,2-8.4,3-13.4,3c-7.3,0-14.1-3.1-20.4-9.3
	c-6.4-6.2-9.5-16.1-9.5-29.6C599,418.5,602,409,608.1,402.2 M639.5,422.4c-0.1-9.4-0.8-16-2-19.7c-1.3-3.7-3.7-5.6-7.5-5.6
	c-3.9,0-6.5,2.2-7.9,6.5c-1.4,4.3-2.2,10.6-2.4,18.9H639.5z"/>
<path class="st3" d="M639.5,422.4c-0.1-9.4-0.8-16-2-19.7c-1.3-3.7-3.7-5.6-7.5-5.6c-3.9,0-6.5,2.2-7.9,6.5
	c-1.4,4.3-2.2,10.6-2.4,18.9H639.5z"/>
<path class="st3" d="M608.1,402.2c6-6.8,13.3-10.2,21.8-10.2c4.9,0,9.4,1.4,13.7,4.1c4.3,2.8,7.6,6.6,9.9,11.5
	c1.7,3.7,2.9,8.5,3.6,14.3c0.3,2.7,0.5,4.8,0.5,6.3h-37.7c0.3,6.4,1.3,11.9,2.9,16.6c2.9,8.8,8,13.2,15.2,13.2
	c3.5,0,6.7-1.2,9.8-3.5c1.9-1.4,4.2-3.8,7-7.1l3.4,2.3c-4.6,8.1-9.9,13.7-15.9,16.9c-3.9,2-8.4,3-13.4,3c-7.3,0-14.1-3.1-20.4-9.3
	c-6.4-6.2-9.5-16.1-9.5-29.6C599,418.5,602,409,608.1,402.2z"/>
<path class="st0" d="M699.2,568.2c-2.1,2.1-4.6,3.2-7.5,3.2c-3,0-5.6-1.1-7.7-3.2c-2.1-2.1-3.1-4.8-3.1-8c0-3.3,1.1-6,3.3-8.2
	c2.1-2,4.6-3,7.4-3c3,0,5.5,1.1,7.6,3.3c2.1,2.2,3.2,4.8,3.2,7.9C702.4,563.4,701.4,566,699.2,568.2 M685.3,553.7
	c-1.7,1.8-2.6,4-2.6,6.5c0,2.6,0.9,4.8,2.6,6.6c1.7,1.8,3.8,2.7,6.3,2.7c2.4,0,4.5-0.9,6.3-2.7c1.7-1.8,2.6-4,2.6-6.6
	c0-2.5-0.9-4.7-2.6-6.5c-1.7-1.9-3.8-2.8-6.3-2.8C689.2,550.9,687.1,551.8,685.3,553.7 M686.9,566.4V554c0.7,0,1.9,0,3.3,0
	c1.5,0,2.3,0,2.5,0l2.3,0.6c1.1,0.6,1.6,1.6,1.6,3l-0.8,2.3l-2.1,0.8l1.7,0.7l1.1,2.8v1.1l0,0.4l0.1,0.4l0.1,0.4h-3l-0.2-1.7
	l-0.2-1.5l-0.9-0.9l-1.1-0.2l-0.7,0h-0.6v4.4H686.9z M692.6,556.4l-1.8-0.3h-0.7v3.6h1.2l1.7-0.5l0.6-1.5L692.6,556.4"/>
</svg>
