<svg version="1.1" class="sstLogo" xmlns="http://www.w3.org/2000/svg" xmlns:xlink="http://www.w3.org/1999/xlink" x="0px" y="0px" width="100%" height="100%" viewBox="0 0 225 139.6" xml:space="preserve">
  <style type="text/css" >
      <![CDATA[
        .sstLogoTopBlackBar {fill: black}
        .sstLogoBottomOrangeBar {fill: #ff601b}
        .sstLogoTextColor {fill: white}
      ]]>
  </style>


  <rect class="sstLogoTopBlackBar" width="225" height="59.7"></rect>
  <rect class="sstLogoBottomOrangeBar" y="65.6" width="225" height="74"></rect>
  <g>
    <path class="sstLogoTextColor" d="M149.9,93.8h3.6c0-2,1.7-3.6,2.5-4.2c0.6-0.3,1.7-0.6,2.8-0.6v18.4c0,1.4,0,2.2,0,2.5c0,0.3-0.3,0.6-0.6,0.6
    c-0.6,0.3-0.8,0.3-2.5,0.3v3.9h14.5v-3.9c-1.7,0-2.2-0.3-2.5-0.3c-0.3-0.3-0.6-0.3-0.6-0.6c0-0.3,0-1.1,0-2.5V89.1
    c1.1,0,2,0.3,2.5,0.3c0.6,0.3,1.1,0.8,1.7,1.4c0.3,0.6,1.1,1.4,1.4,3.1h3.6v-8.9h-26.2v8.9H149.9z"></path>
    <path class="sstLogoTextColor" d="M187.3,111.1c-0.3-0.3-0.3-0.8-0.3-2V93.8h-9.5v3.9h0.6c0.8,0,1.4,0.3,1.4,0.3c0.3,0.3,0.3,1.1,0.3,2.2v8.9
    c0,0.8,0,1.4-0.3,1.7s-0.8,0.3-1.4,0.3h-0.6v3.6H189v-3.6h-0.3C187.9,111.4,187.3,111.4,187.3,111.1z"></path>
    <rect class="sstLogoTextColor" x="146.3" y="102.7" width="9.5" height="5"></rect>
    <path class="sstLogoTextColor" d="M143.5,99.9c0.6,0.6,1.1,0.8,2,0.8c0.6,0,1.1-0.3,1.4-0.6c0.8-0.6,1.4-1.4,1.4-2.8c0-1.1-0.3-2-1.1-2.8
    c-0.8-1.1-2-1.4-3.3-1.4c-0.8,0-1.4,0.3-2,0.3c-0.6,0.3-1.4,0.8-2.2,1.7c-1.1-0.8-2-1.4-2.8-1.7s-2-0.3-3.1-0.3
    c-2.5,0-4.5,0.6-6.1,1.7c-2,1.4-2.8,3.6-2.8,6.7c0,1.1,0.3,2.2,0.6,3.1c0.3,0.8,0.8,2,2,3.1c-1.1,0.6-2,1.4-2.5,2
    c-0.6,0.6-0.6,1.4-0.6,2.5c0,0.8,0.3,1.7,0.6,2.5c0.3,0.6,1.1,1.4,2.2,2c-1.1,0.3-2,0.8-2.5,1.4c-0.6,0.6-0.8,1.4-0.8,2.2
    c0,2.8,3.3,4.5,9.8,4.5c4.5,0,7.5-0.6,9.2-1.4c0.8-0.6,1.7-1.4,2.2-2.2c0.6-0.8,0.8-2,0.8-3.1c0-2-0.6-3.3-1.7-4.5
    c-1.1-0.8-2.8-1.4-5.3-1.4c-0.3,0-1.1,0-2.5,0c-0.6,0-0.8,0-1.1,0c-2.5,0-4.2,0-4.7-0.3c-0.8-0.3-1.1-0.6-1.1-1.4
    c0-0.3,0-0.8,0.3-1.1c1.7,0.6,2.8,0.8,3.9,0.8c2.5,0,4.5-0.6,6.1-2c0.8-0.6,1.7-1.7,2.2-2.8c0.6-1.1,0.8-2.5,0.8-3.9
    c0-0.8,0-1.7-0.3-2.5c-0.3-0.8-0.6-1.4-1.1-2.2c0.8-0.8,1.7-1.4,2.2-1.4c0.3,0,0.6,0.3,0.8,0.6c-0.8,0.8-1.1,1.7-1.1,2.2
    C142.9,98.8,143.2,99.7,143.5,99.9z M129,118.1c1.1-0.3,2.8-0.3,5.3-0.3c2.2,0,3.9,0,5,0.3c1.1,0.3,1.4,0.6,1.4,1.4
    c0,0.6,0,0.8-0.3,1.1c-0.3,0.3-0.8,0.6-1.7,0.6c-1.1,0.3-2.8,0.3-4.7,0.3c-4.5,0-6.4-0.6-6.4-2C127.6,118.9,128.1,118.4,129,118.1z
      M134.6,105.8c-0.3,0.8-0.8,1.4-1.4,1.4c-1.4,0-2-2-2-5.3c0-2,0.3-3.6,0.6-4.5c0.3-0.8,0.8-1.4,1.4-1.4c0.8,0,1.1,0.6,1.4,1.4
    c0.3,0.8,0.3,2.2,0.3,4.5C135.1,103.6,134.8,105,134.6,105.8z"></path>
    <path class="sstLogoTextColor" d="M120.6,111.1c-0.3-0.3-0.3-0.8-0.3-1.7v-8.1l-0.3-3.9c-0.3-0.8-0.6-1.7-1.1-2.2c-1.1-1.1-2.8-2-5-2c-1.4,0-2.8,0.3-3.9,0.8
    c-0.8,0.6-2,1.4-3.1,2.8v-3.3h-8.7v3.6h0.3c0.6,0,1.1,0.3,1.4,0.3c0.3,0,0.3,0.8,0.3,1.7v9.8c0,0.8,0,1.4-0.3,1.7
    c-0.3,0.3-0.6,0.3-1.4,0.3v3.6h10.6v-3.6c-0.6,0-1.1-0.3-1.4-0.3c-0.3-0.3-0.3-0.8-0.3-1.7v-7.3c0-1.7,0.3-2.8,0.8-3.6
    c0.6-0.8,1.1-1.1,2.2-1.1c1.7,0,2.5,1.4,2.5,3.9v8.1c0,0.8,0,1.4-0.3,1.7s-0.6,0.3-1.4,0.3v3.6H122v-3.6
    C121.2,111.4,120.6,111.4,120.6,111.1z"></path>
    <path class="sstLogoTextColor" d="M73.4,94.4c-0.8-0.6-1.7-0.8-2.8-0.8c-0.8,0-2,0.3-2.5,0.6c-0.8,0.3-1.4,1.1-2.5,2.2v-2.2h-9.5v3.6h1.1
    c0.6,0,1.1,0.3,1.4,0.3c0.3,0.3,0.3,0.8,0.3,1.7v9.8c0,0.8,0,1.4-0.3,1.7c-0.3,0.3-0.6,0.3-1.4,0.3h-0.3v3.6h11.4v-3.6h-0.3
    c-0.8,0-1.1-0.3-1.4-0.3c-0.3-0.3-0.3-0.8-0.3-1.7v-6.7c0-2,0.3-3.3,0.8-4.5c0.6-1.1,1.4-2,2.2-2c0.3,0,0.6,0,1.1,0.3
    c-0.6,0.3-1.1,0.6-1.4,1.1c-0.3,0.3-0.6,0.8-0.6,1.7c0,0.8,0.3,1.4,0.6,2c0.6,0.8,1.4,1.1,2.2,1.1c1.1,0,2-0.3,2.5-1.1
    c0.6-0.8,0.8-2,0.8-3.1C74.8,96.6,74.3,95.2,73.4,94.4z"></path>
    <path class="sstLogoTextColor" d="M207.7,96.3c-1.7-2-4.2-3.1-7.3-3.1c-3.3,0-5.9,1.1-7.5,3.3c-1.7,2-2.5,4.7-2.5,8.1c0,3.6,1.1,6.7,3.3,8.7
    c1.7,1.7,3.9,2.5,6.7,2.5c5,0,8.4-2.5,9.5-7.8h-4.7c-0.3,1.1-0.6,2-0.8,2.2c-0.6,0.8-1.7,1.4-3.1,1.4s-2.5-0.6-3.1-1.7
    c-0.3-0.6-0.6-1.1-0.6-1.7c-0.3-0.6-0.3-1.7-0.3-2.8h13.1c0-0.6,0-0.8,0-0.8C210.2,101.1,209.4,98.3,207.7,96.3z M197.4,101.9
    c0-1.7,0.3-2.5,0.6-3.3c0.3-0.6,0.6-0.8,1.1-1.1c0.6-0.3,0.8-0.3,1.4-0.3c1.1,0,2,0.6,2.5,1.4c0.3,0.8,0.6,2,0.6,3.3H197.4z"></path>
    <path class="sstLogoTextColor" d="M215.2,125.9c-2,0-3.9,1.7-3.9,3.6c0,2.2,1.7,3.9,3.9,3.9c2,0,3.9-1.7,3.9-3.9C219.1,127.6,217.5,125.9,215.2,125.9z
      M215.2,132.9c-1.7,0-3.1-1.4-3.1-3.3s1.4-3.1,3.1-3.1c1.7,0,3.1,1.4,3.1,3.1C218.3,131.5,216.9,132.9,215.2,132.9z"></path>
    <path class="sstLogoTextColor" d="M51.1,106.9c0,2,0,3.1-0.3,3.6c0,0.8-0.6,1.1-0.8,1.1c-0.6,0-0.8-0.3-1.1-0.8c-0.3-0.3-0.3-1.1-0.3-2.5V97.1H53v-3.6h-4.5
    v-8.1h-4.5c-0.3,5-2.2,8.1-5,8.4v3.3h2.2v10c0,1.7,0,2.8,0.3,3.6c0,0.8,0.3,1.4,0.8,2.2c1.1,1.7,2.8,2.5,5.6,2.5
    c2.5,0,4.5-0.8,5.6-2.5c0.6-0.6,0.8-1.4,0.8-2c0.3-0.8,0.3-1.7,0.3-3.1V105h-3.6C51.1,105,51.1,106.9,51.1,106.9z"></path>
    <path class="sstLogoTextColor" d="M182.8,92.1c1.1,0,2-0.3,2.5-1.1c0.8-0.8,1.1-1.7,1.1-2.5c0-0.8-0.3-2-1.1-2.5c-0.8-0.8-1.7-1.1-2.5-1.1s-2,0.3-2.5,1.1
    c-0.8,0.8-1.1,1.7-1.1,2.8s0.3,2,1.1,2.8C180.9,91.8,181.7,92.1,182.8,92.1z"></path>
    <path class="sstLogoTextColor" d="M36,98.8c-0.8-0.8-2-1.4-3.3-2c-1.4-0.6-3.6-1.1-6.7-2c-1.4-0.3-2.2-0.8-2.8-1.1c-0.6-0.3-0.8-0.8-0.8-1.7
    c0-0.8,0.3-1.7,1.1-2.5c0.8-0.8,1.7-1.1,3.1-1.1c2,0,3.6,0.6,5,1.7c0.8,0.6,2.2,2.2,2.5,3.6h3.6v-8.1h-3.3l-0.8,1.1
    c-1.4-0.8-2.5-1.7-3.6-2c-1.1-0.3-2.5-0.6-4.5-0.6c-3.9,0-6.7,1.1-8.7,3.1c-1.4,1.7-2.2,3.6-2.2,6.4c0,2.5,0.8,4.7,2.5,6.4
    c1.4,1.4,4.5,2.8,9.5,3.9c1.7,0.3,2.8,0.8,3.6,1.4c0.6,0.6,1.1,1.4,1.1,2.5s-0.3,2-1.1,2.5c-1.4,0.8-2.5,1.1-3.9,1.1
    c-2,0-3.9-0.8-5.3-2.2c-0.8-0.8-2.2-2.8-2.5-4.5h-3.6v10.6h3.3l1.1-2.2c1.1,0.8,2.2,1.4,3.3,1.7c2,0.6,3.9,0.8,5.3,0.8
    s2.5-0.3,4.2-0.6c1.7-0.6,3.1-1.1,4.2-2.2c2-2,2.8-4.2,2.8-7C39.1,103,38,100.5,36,98.8z"></path>
    <path class="sstLogoTextColor" d="M217.2,128.7c0-0.8-0.6-1.4-1.4-1.4h-1.7v4.5h0.8v-2h0.8l1.1,2h0.8l-1.4-2C216.6,129.8,217.2,129.5,217.2,128.7z
      M214.7,129.5v-1.4h0.8c0.6,0,0.8,0,0.8,0.6c0,0.8-0.6,0.8-1.1,0.8H214.7z"></path>
    <path class="sstLogoTextColor" d="M86.5,93.2c-3.3,0-6.1,1.1-8.1,3.1c-2,2-3.1,4.7-3.1,8.1c0,3.6,1.1,6.4,3.1,8.4c2,2,4.7,3.1,8.1,3.1c3.3,0,6.1-1.1,8.1-3.1
    c2-2,3.1-4.7,3.1-8.1c0-3.3-1.1-6.4-3.1-8.4C92.7,94.1,89.9,93.2,86.5,93.2z M88.8,110.3c-0.3,1.1-1.1,1.7-2.2,1.7s-2-0.6-2.2-1.7
    c-0.3-1.1-0.6-3.1-0.6-5.9s0.3-4.7,0.6-5.9c0.3-1.1,1.1-1.7,2.2-1.7s2,0.6,2.2,1.7c0.6,1.1,0.6,3.1,0.6,5.9
    C89.6,107.2,89.3,109.2,88.8,110.3z"></path>
  </g>
  <g>
    <polygon class="sstLogoTextColor" points="74.8,35.5 74.5,35.5 69.5,15.6 58.1,15.6 58.1,45.5 65.3,45.5 65.3,22.9 65.3,22.9 71.7,45.5 77.6,45.5 83.7,22.9
    84,22.9 84,45.5 91.3,45.5 91.3,15.6 79.8,15.6 	"></polygon>
    <path class="sstLogoTextColor" d="M32.9,27.4c-4.5-1.1-8.7-1.7-8.7-3.9c0-2,2-2.5,3.6-2.5c2.5,0,5,0.8,4.7,3.6h7.8c0-6.7-6.1-9.5-12-9.5
    c-5.6,0-12.3,2.5-12.3,9.2c0,5.6,4.5,7.5,8.7,8.7c4.5,1.1,8.7,1.7,8.7,4.5c0,2.2-2.5,3.1-4.7,3.1c-3.3,0-5.6-1.1-5.6-4.7h-7.5
    c0,7.5,6.1,10.6,12.8,10.6s12.8-2.5,12.8-10C41.6,30.7,37.1,28.8,32.9,27.4z"></path>
    <rect class="sstLogoTextColor" x="45.2" y="15.6" width="7.8" height="29.9"></rect>
    <polygon class="sstLogoTextColor" points="201.8,15.6 201.8,34.1 201.8,34.1 191.5,15.6 183.4,15.6 183.4,45.5 190.7,45.5 190.7,26.8 190.9,26.8 201.3,45.5
    209.1,45.5 209.1,15.6 	"></polygon>
    <path class="sstLogoTextColor" d="M139.6,27.4c-4.5-1.1-8.7-1.7-8.7-3.9c0-2,2.2-2.5,3.9-2.5c2.5,0,5,0.8,4.7,3.6h7.8c0-6.7-6.1-9.5-12-9.5
    c-5.6,0-12.3,2.5-12.3,9.2c0,5.6,4.5,7.5,8.7,8.7c4.5,1.1,8.7,1.7,8.7,4.5c0,2.2-2.5,3.1-4.7,3.1c-3.3,0-5.6-1.1-5.6-4.7h-7.8
    c0,7.5,6.1,10.6,12.8,10.6s13.1-2.5,12.8-10C148.2,30.7,143.8,28.8,139.6,27.4z"></path>
    <path class="sstLogoTextColor" d="M110.3,15.6H96v29.9h7.8v-10h6.4c6.7,0,10.9-2.8,10.9-10.3C120.9,18.1,115.6,15.6,110.3,15.6z M108.9,29.3h-5.3v-7.5h5.3
    c2.5,0,4.2,1.1,4.2,3.9S111.4,29.3,108.9,29.3z"></path>
    <path class="sstLogoTextColor" d="M165.5,15.1c-9.5,0-14.8,7-14.8,15.6s5.3,15.6,14.8,15.6s14.8-7,14.8-15.6C180.1,21.8,174.8,15.1,165.5,15.1z M165.5,39.4
    c-5,0-7-4.5-7-8.9s2-8.9,7-8.9c5,0,7,4.5,7,8.9C172.2,34.9,170.6,39.4,165.5,39.4z"></path>
  </g>
</svg>
