<svg width="128" height="128" viewBox="0 0 128 128" fill="none" xmlns="http://www.w3.org/2000/svg">
<g clip-path="url(#clip0_11870_79402)">
<rect width="128" height="128" fill="white" fill-opacity="0.01"/>
<path d="M122.97 80.2638L113.613 72.2638C114.056 69.5495 114.284 66.7781 114.284 64.0067C114.284 61.2353 114.056 58.4638 113.613 55.7495L122.97 47.7495C123.676 47.1454 124.181 46.3406 124.418 45.4424C124.656 44.5441 124.614 43.5949 124.299 42.721L124.17 42.3495C121.594 35.1499 117.737 28.4758 112.784 22.6495L112.527 22.3495C111.926 21.6431 111.126 21.1353 110.23 20.8931C109.335 20.6508 108.388 20.6854 107.513 20.9924L95.8985 25.121C91.6128 21.6067 86.8271 18.8353 81.6557 16.8924L79.4128 4.74954C79.2436 3.83586 78.8004 2.99529 78.142 2.33951C77.4837 1.68373 76.6414 1.24378 75.7271 1.07811L75.3414 1.00669C67.8985 -0.336172 60.07 -0.336172 52.6271 1.00669L52.2414 1.07811C51.327 1.24378 50.4848 1.68373 49.8264 2.33951C49.1681 2.99529 48.7249 3.83586 48.5557 4.74954L46.2985 16.9495C41.1684 18.8928 36.3909 21.6628 32.1557 25.1495L20.4557 20.9924C19.5809 20.683 18.6327 20.6471 17.737 20.8895C16.8414 21.132 16.0407 21.6412 15.4414 22.3495L15.1842 22.6495C10.2378 28.4799 6.38104 35.1529 3.79853 42.3495L3.66996 42.721C3.0271 44.5067 3.55567 46.5067 4.99853 47.7495L14.47 55.8353C14.0271 58.521 13.8128 61.2638 13.8128 63.9924C13.8128 66.7353 14.0271 69.4781 14.47 72.1496L4.99853 80.2353C4.29275 80.8395 3.78762 81.6442 3.5503 82.5424C3.31298 83.4407 3.35471 84.3899 3.66996 85.2638L3.79853 85.6353C6.38424 92.8353 10.2128 99.4781 15.1842 105.335L15.4414 105.635C16.0422 106.342 16.8429 106.849 17.738 107.092C18.6331 107.334 19.5806 107.299 20.4557 106.992L32.1557 102.835C36.4128 106.335 41.17 109.107 46.2985 111.035L48.5557 123.235C48.7249 124.149 49.1681 124.99 49.8264 125.645C50.4848 126.301 51.327 126.741 52.2414 126.907L52.6271 126.978C60.1383 128.328 67.8301 128.328 75.3414 126.978L75.7271 126.907C76.6414 126.741 77.4837 126.301 78.142 125.645C78.8004 124.99 79.2436 124.149 79.4128 123.235L81.6557 111.092C86.825 109.155 91.6377 106.374 95.8985 102.864L107.513 106.992C108.388 107.302 109.336 107.338 110.231 107.095C111.127 106.853 111.928 106.344 112.527 105.635L112.784 105.335C117.756 99.4638 121.584 92.8353 124.17 85.6353L124.299 85.2638C124.941 83.5067 124.413 81.5067 122.97 80.2638ZM103.47 57.4353C103.827 59.5924 104.013 61.8067 104.013 64.021C104.013 66.2353 103.827 68.4495 103.47 70.6067L102.527 76.3353L113.199 85.4638C111.581 89.1908 109.539 92.7189 107.113 95.9781L93.8557 91.2781L89.3699 94.9638C85.9557 97.7638 82.1557 99.9638 78.0414 101.507L72.5985 103.55L70.0414 117.407C66.0067 117.864 61.9332 117.864 57.8985 117.407L55.3414 103.521L49.9414 101.45C45.87 99.9067 42.0842 97.7067 38.6985 94.921L34.2128 91.221L20.87 95.9638C18.4414 92.6924 16.4128 89.1638 14.7842 85.4495L25.57 76.2353L24.6414 70.521C24.2985 68.3924 24.1128 66.1924 24.1128 64.021C24.1128 61.8353 24.2842 59.6495 24.6414 57.521L25.57 51.8067L14.7842 42.5924C16.3985 38.8638 18.4414 35.3495 20.87 32.0781L34.2128 36.821L38.6985 33.121C42.0842 30.3353 45.87 28.1353 49.9414 26.5924L55.3557 24.5495L57.9128 10.6638C61.9271 10.2067 66.0271 10.2067 70.0557 10.6638L72.6128 24.521L78.0557 26.5638C82.1557 28.1067 85.97 30.3067 89.3842 33.1067L93.8699 36.7924L107.127 32.0924C109.556 35.3638 111.584 38.8924 113.213 42.6067L102.541 51.7353L103.47 57.4353ZM63.9985 37.4495C50.1128 37.4495 38.8557 48.7067 38.8557 62.5924C38.8557 76.4781 50.1128 87.7353 63.9985 87.7353C77.8842 87.7353 89.1414 76.4781 89.1414 62.5924C89.1414 48.7067 77.8842 37.4495 63.9985 37.4495ZM75.3128 73.9067C73.8288 75.3949 72.0653 76.5751 70.1235 77.3792C68.1818 78.1834 66.1002 78.5957 63.9985 78.5924C59.7271 78.5924 55.7128 76.921 52.6842 73.9067C51.196 72.4227 50.0159 70.6591 49.2117 68.7174C48.4076 66.7757 47.9953 64.6941 47.9985 62.5924C47.9985 58.321 49.6699 54.3067 52.6842 51.2781C55.7128 48.2495 59.7271 46.5924 63.9985 46.5924C68.27 46.5924 72.2842 48.2495 75.3128 51.2781C76.801 52.7621 77.9812 54.5257 78.7853 56.4674C79.5895 58.4092 80.0018 60.4907 79.9985 62.5924C79.9985 66.8638 78.3271 70.8781 75.3128 73.9067Z" fill="black" fill-opacity="0.85"/>
</g>
<defs>
<clipPath id="clip0_11870_79402">
<rect width="128" height="128" fill="white"/>
</clipPath>
</defs>
</svg>
