<?xml version="1.0" encoding="UTF-8"?><svg id="Layer_1" xmlns="http://www.w3.org/2000/svg" viewBox="0 0 512 512"><defs><style>.cls-1{fill:#fff;}.cls-2{fill:#799e7e;}</style></defs><circle class="cls-2" cx="256" cy="256" r="256"/><path class="cls-1" d="M129.49,393.91c-5.49-4.38-8.23-10.48-8.23-18.29,0-10.13,3.14-20.77,9.42-31.91,6.28-11.14,15.33-21.56,27.16-31.27,11.82-9.71,26.02-17.6,42.59-23.67,16.57-6.07,35.1-9.1,55.58-9.1s39.13,3.04,55.66,9.1c16.52,6.07,30.66,13.96,42.43,23.67,11.77,9.71,20.82,20.14,27.16,31.27,6.33,11.14,9.5,21.77,9.5,31.91,0,7.81-2.72,13.91-8.15,18.29-5.44,4.38-13.01,6.57-22.72,6.57H152.13c-9.61,0-17.15-2.19-22.64-6.57Zm94.05-151.45c-9.82-6.33-17.65-14.83-23.51-25.49-5.86-10.66-8.79-22.59-8.79-35.78-.11-12.88,2.8-24.59,8.71-35.15,5.91-10.55,13.8-18.95,23.67-25.18,9.87-6.23,20.66-9.34,32.38-9.34s22.64,3.09,32.46,9.26c9.82,6.18,17.68,14.54,23.59,25.1,5.91,10.56,8.87,22.22,8.87,34.99s-2.93,25.31-8.79,36.02c-5.86,10.72-13.7,19.24-23.51,25.57-9.82,6.33-20.69,9.5-32.62,9.5s-22.64-3.17-32.46-9.5Z"/></svg>