<?xml version="1.0" encoding="UTF-8"?><svg id="Layer_1" xmlns="http://www.w3.org/2000/svg" viewBox="0 0 512 512"><defs><style>.cls-1{fill:#fff;}.cls-2{fill:#d38225;}</style></defs><circle class="cls-2" cx="256" cy="256" r="256"/><path class="cls-1" d="M49.5,388.44c-4.57-4.93-6.85-11.71-6.85-20.33,0-10.17,2.75-20.51,8.24-31.03,5.49-10.52,13.3-20.28,23.41-29.26,10.11-8.98,22.15-16.25,36.12-21.79,13.96-5.54,29.42-8.32,46.36-8.32,13.14,0,25.16,1.69,36.04,5.08,10.88,3.39,20.48,7.65,28.8,12.78-9.34,7.5-17.22,15.76-23.64,24.8-6.42,9.04-11.22,18.2-14.4,27.49-3.18,9.29-4.62,18.1-4.31,26.41,.31,8.32,2.62,15.5,6.93,21.56H73.45c-11.4,0-19.38-2.46-23.95-7.39Zm79.7-141.77c-8.32-5.39-14.94-12.63-19.87-21.72s-7.44-19.18-7.55-30.26c0-10.88,2.49-20.79,7.47-29.73,4.98-8.93,11.65-16.07,20.02-21.41,8.37-5.34,17.53-8.01,27.49-8.01s19.1,2.64,27.42,7.93c8.32,5.29,14.97,12.38,19.95,21.25,4.98,8.88,7.47,18.82,7.47,29.8s-2.46,21.33-7.39,30.42c-4.93,9.09-11.55,16.33-19.87,21.72-8.32,5.39-17.51,8.09-27.57,8.09s-19.25-2.7-27.57-8.09Zm83.71,142.62c-5.29-4.26-7.93-10.19-7.93-17.79,0-9.86,3.05-20.2,9.16-31.03,6.11-10.83,14.89-20.97,26.34-30.42,11.45-9.45,25.23-17.12,41.35-23.03,16.12-5.9,34.14-8.86,54.06-8.86s38.09,2.95,54.21,8.86c16.12,5.91,29.91,13.58,41.35,23.03,11.45,9.45,20.23,19.59,26.34,30.42,6.11,10.83,9.16,21.18,9.16,31.03,0,7.6-2.64,13.53-7.93,17.79-5.29,4.26-14.76,6.39-28.42,6.39H241.18c-13.55,0-22.97-2.13-28.26-6.39Zm91.41-147.32c-9.55-6.16-17.15-14.42-22.79-24.8-5.65-10.37-8.52-21.97-8.63-34.81,0-12.53,2.88-23.92,8.63-34.19,5.75-10.27,13.4-18.43,22.95-24.49,9.55-6.06,20.07-9.09,31.57-9.09s22,3,31.5,9.01c9.5,6.01,17.12,14.15,22.87,24.41,5.75,10.27,8.63,21.62,8.63,34.04s-2.85,24.62-8.55,35.04c-5.7,10.42-13.32,18.71-22.87,24.87s-20.07,9.24-31.57,9.24-22.18-3.08-31.73-9.24Z"/></svg>