<svg width="672" height="294" viewBox="0 0 672 294" fill="none" xmlns="http://www.w3.org/2000/svg">
<rect width="672" height="29" fill="#343434"/>
<path d="M35.336 16.682C35.308 19.146 37.38 20.238 39.592 20.238C42.308 20.238 43.75 18.866 43.75 17.032C43.75 14.764 41.51 14.302 40.782 14.12C38.276 13.476 37.8 13.378 37.8 12.608C37.8 11.768 38.612 11.474 39.312 11.474C40.362 11.474 41.216 11.782 41.286 12.986H43.414C43.414 10.676 41.496 9.766 39.41 9.766C37.604 9.766 35.672 10.746 35.672 12.79C35.672 14.666 37.17 15.24 38.654 15.632C40.124 16.024 41.622 16.206 41.622 17.284C41.622 18.306 40.446 18.53 39.676 18.53C38.5 18.53 37.464 18.012 37.464 16.682H35.336ZM47.4298 20H49.6278V11.852H52.6238V10.004H44.4338V11.852H47.4298V20ZM62.4204 10.004H60.2224V16.22C60.2224 17.704 59.7184 18.39 58.1504 18.39C56.3724 18.39 56.0924 17.312 56.0924 16.22V10.004H53.8944V16.22C53.8944 18.936 55.4624 20.238 58.1504 20.238C60.8244 20.238 62.4204 18.922 62.4204 16.22V10.004ZM64.4733 20H68.7853C71.8373 20 73.3213 17.844 73.3213 14.946C73.3213 11.628 71.3753 10.004 68.7853 10.004H64.4733V20ZM66.6713 11.852H68.2393C70.4233 11.852 71.1233 13.14 71.1233 15.156C71.1233 17.368 69.9053 18.152 68.6313 18.152H66.6713V11.852ZM74.3803 16.682C74.3523 19.146 76.4243 20.238 78.6363 20.238C81.3523 20.238 82.7943 18.866 82.7943 17.032C82.7943 14.764 80.5543 14.302 79.8263 14.12C77.3203 13.476 76.8443 13.378 76.8443 12.608C76.8443 11.768 77.6563 11.474 78.3563 11.474C79.4063 11.474 80.2603 11.782 80.3303 12.986H82.4583C82.4583 10.676 80.5403 9.766 78.4543 9.766C76.6483 9.766 74.7163 10.746 74.7163 12.79C74.7163 14.666 76.2143 15.24 77.6983 15.632C79.1683 16.024 80.6663 16.206 80.6663 17.284C80.6663 18.306 79.4903 18.53 78.7203 18.53C77.5443 18.53 76.5083 18.012 76.5083 16.682H74.3803Z" fill="white"/>
<rect x="10" y="6" width="18" height="18" rx="2" fill="#DF4907"/>
<rect y="29" width="135" height="265" fill="white"/>
<rect x="135" y="29" width="537" height="265" fill="#E2E2E2"/>
<rect x="172" y="72" width="84" height="11" fill="#959595"/>
<rect x="172.5" y="118.5" width="448" height="29" fill="white" stroke="#CACACA"/>
<rect x="172.5" y="171.5" width="448" height="29" fill="white" stroke="#CACACA"/>
<rect x="172.5" y="224.5" width="448" height="29" fill="white" stroke="#CACACA"/>
<g filter="url(#filter0_dd_11166_81462)">
<rect x="172.5" y="146.5" width="448" height="25" fill="white" stroke="#CACACA"/>
<rect x="187" y="156" width="74" height="7" fill="#CACACA"/>
<path fill-rule="evenodd" clip-rule="evenodd" d="M434 170C438.418 170 442 166.418 442 162C442 157.582 438.418 154 434 154C429.582 154 426 157.582 426 162C426 166.418 429.582 170 434 170Z" fill="#E0E0E0"/>
<path fill-rule="evenodd" clip-rule="evenodd" d="M432.831 170.473C432.553 170.097 432.215 169.328 431.614 168.394C431.274 167.866 430.429 166.871 430.178 166.366C429.96 165.92 429.983 165.72 430.035 165.35C430.127 164.692 430.757 164.179 431.429 164.248C431.937 164.3 432.368 164.659 432.755 164.999C432.989 165.203 433.277 165.6 433.45 165.824C433.609 166.03 433.649 166.115 433.819 166.358C434.044 166.68 434.114 166.839 434.028 166.485C433.959 165.965 433.845 165.077 433.681 164.292C433.556 163.697 433.525 163.604 433.406 163.147C433.28 162.661 433.215 162.32 433.097 161.805C433.015 161.44 432.867 160.695 432.827 160.276C432.771 159.702 432.742 158.768 433.085 158.338C433.354 158.002 433.971 157.9 434.354 158.107C434.855 158.379 435.14 159.159 435.27 159.47C435.504 160.029 435.649 160.676 435.775 161.525C435.935 162.605 436.231 164.105 436.24 164.42C436.264 164.034 436.174 163.219 436.237 162.848C436.293 162.512 436.557 162.121 436.888 162.015C437.168 161.926 437.496 161.894 437.784 161.958C438.091 162.025 438.414 162.259 438.534 162.48C438.888 163.134 438.895 164.471 438.91 164.399C438.994 164.005 438.979 163.111 439.188 162.739C439.325 162.494 439.674 162.273 439.86 162.237C440.147 162.183 440.501 162.166 440.803 162.229C441.047 162.28 441.376 162.591 441.465 162.739C441.679 163.1 441.8 164.119 441.836 164.477C441.851 164.625 441.909 164.066 442.123 163.706C442.52 163.036 443.926 162.906 443.98 164.375C444.004 165.06 444 165.029 444 165.49C444 166.032 443.988 166.358 443.96 166.75C443.93 167.169 443.846 168.116 443.724 168.575C443.64 168.891 443.361 169.6 443.086 170.026C443.086 170.026 442.035 171.336 441.92 171.926C441.805 172.514 441.843 172.519 441.821 172.937C441.798 173.354 441.939 173.903 441.939 173.903C441.939 173.903 441.154 174.012 440.732 173.94C440.349 173.874 439.875 173.058 439.753 172.809C439.585 172.465 439.226 172.531 439.086 172.785C438.866 173.186 438.392 173.906 438.057 173.951C437.404 174.039 436.048 173.984 434.986 173.972C434.986 173.972 435.167 172.913 434.764 172.549C434.466 172.278 433.952 171.727 433.645 171.438L432.831 170.473Z" fill="white" stroke="black" stroke-width="0.75" stroke-linecap="round" stroke-linejoin="round"/>
<path fill-rule="evenodd" clip-rule="evenodd" d="M440.5 170.5V167.5V170.5Z" fill="white"/>
<path d="M440.5 170.5V167.5" stroke="black" stroke-width="0.75" stroke-linecap="round"/>
<path fill-rule="evenodd" clip-rule="evenodd" d="M438.5 170.5V167.5V170.5Z" fill="white"/>
<path d="M438.5 170.5V167.5" stroke="black" stroke-width="0.75" stroke-linecap="round"/>
<path fill-rule="evenodd" clip-rule="evenodd" d="M436.5 167.5V170.5V167.5Z" fill="white"/>
<path d="M436.5 167.5V170.5" stroke="black" stroke-width="0.75" stroke-linecap="round"/>
</g>
<rect x="187" y="129" width="74" height="7" fill="#CACACA"/>
<rect x="187" y="182" width="74" height="7" fill="#CACACA"/>
<rect x="172.5" y="199.5" width="448" height="25" fill="white" stroke="#CACACA"/>
<rect x="187" y="208" width="74" height="7" fill="#CACACA"/>
<rect x="187" y="235" width="74" height="7" fill="#CACACA"/>
<rect x="172.5" y="252.5" width="448" height="25" fill="white" stroke="#CACACA"/>
<rect x="172" y="95" width="74" height="7" fill="#CACACA"/>
<rect x="256" y="95" width="74" height="7" fill="#CACACA"/>
<rect x="340" y="95" width="74" height="7" fill="#CACACA"/>
<rect x="424" y="95" width="74" height="7" fill="#CACACA"/>
<rect x="187" y="261" width="74" height="7" fill="#CACACA"/>
<defs>
<filter id="filter0_dd_11166_81462" x="169" y="143" width="459" height="42" filterUnits="userSpaceOnUse" color-interpolation-filters="sRGB">
<feFlood flood-opacity="0" result="BackgroundImageFix"/>
<feColorMatrix in="SourceAlpha" type="matrix" values="0 0 0 0 0 0 0 0 0 0 0 0 0 0 0 0 0 0 127 0" result="hardAlpha"/>
<feMorphology radius="1" operator="dilate" in="SourceAlpha" result="effect1_dropShadow_11166_81462"/>
<feOffset dx="2" dy="2"/>
<feGaussianBlur stdDeviation="2"/>
<feColorMatrix type="matrix" values="0 0 0 0 0 0 0 0 0 0 0 0 0 0 0 0 0 0 0.15 0"/>
<feBlend mode="normal" in2="BackgroundImageFix" result="effect1_dropShadow_11166_81462"/>
<feColorMatrix in="SourceAlpha" type="matrix" values="0 0 0 0 0 0 0 0 0 0 0 0 0 0 0 0 0 0 127 0" result="hardAlpha"/>
<feOffset dx="2" dy="2"/>
<feGaussianBlur stdDeviation="1"/>
<feComposite in2="hardAlpha" operator="out"/>
<feColorMatrix type="matrix" values="0 0 0 0 0.156863 0 0 0 0 0.180392 0 0 0 0 0.2 0 0 0 0.25 0"/>
<feBlend mode="normal" in2="effect1_dropShadow_11166_81462" result="effect2_dropShadow_11166_81462"/>
<feBlend mode="normal" in="SourceGraphic" in2="effect2_dropShadow_11166_81462" result="shape"/>
</filter>
</defs>
</svg>
