<svg width="634" height="168" viewBox="0 0 634 168" fill="none" xmlns="http://www.w3.org/2000/svg">
<rect width="634" height="168" fill="white"/>
<g filter="url(#filter0_dd_10993_81688)">
<rect x="50" y="20" width="114" height="46" rx="2" fill="#F4F4F4"/>
</g>
<path d="M50.78 84H55.51V83.2H51.73V76.86H50.78V84ZM59.9266 82.36C59.7766 83.03 59.2866 83.37 58.5866 83.37C57.4566 83.37 56.9466 82.57 56.9766 81.67H60.8466C60.8966 80.42 60.3366 78.71 58.5066 78.71C57.0966 78.71 56.0766 79.85 56.0766 81.4C56.1266 82.98 56.9066 84.12 58.5566 84.12C59.7166 84.12 60.5366 83.5 60.7666 82.36H59.9266ZM56.9766 80.92C57.0366 80.13 57.5666 79.46 58.4566 79.46C59.2966 79.46 59.9066 80.11 59.9466 80.92H56.9766ZM66.1077 78.83H65.2177L63.8077 83.14H63.7877L62.3377 78.83H61.3877L63.3077 84H64.2177L66.1077 78.83ZM70.6177 82.36C70.4677 83.03 69.9777 83.37 69.2777 83.37C68.1477 83.37 67.6377 82.57 67.6677 81.67H71.5377C71.5877 80.42 71.0277 78.71 69.1977 78.71C67.7877 78.71 66.7677 79.85 66.7677 81.4C66.8177 82.98 67.5977 84.12 69.2477 84.12C70.4077 84.12 71.2277 83.5 71.4577 82.36H70.6177ZM67.6677 80.92C67.7277 80.13 68.2577 79.46 69.1477 79.46C69.9877 79.46 70.5977 80.11 70.6377 80.92H67.6677ZM72.6288 84H73.4788V76.86H72.6288V84ZM80.8188 76.91H80.1688C79.9788 77.98 79.0988 78.24 78.1288 78.24V78.92H79.9688V84H80.8188V76.91ZM49.99 96H51.06L53.04 93.05L54.96 96H56.12L53.61 92.33L55.97 88.86H54.91L53.05 91.65L51.27 88.86H50.13L52.48 92.33L49.99 96ZM57.1033 96H58.2133V94.89H57.1033V96ZM58.2133 90.83H57.1033V91.94H58.2133V90.83ZM59.6365 92.52C59.6365 94.08 59.7765 96.12 61.9965 96.12C64.2165 96.12 64.3565 94.08 64.3565 92.52C64.3565 90.95 64.2165 88.91 61.9965 88.91C59.7765 88.91 59.6365 90.95 59.6365 92.52ZM60.5365 92.51C60.5365 91.46 60.5465 89.66 61.9965 89.66C63.4465 89.66 63.4565 91.46 63.4565 92.51C63.4565 93.57 63.4465 95.37 61.9965 95.37C60.5465 95.37 60.5365 93.57 60.5365 92.51ZM56.46 100.86H55.38L53.29 104.26L51.15 100.86H50.02L52.78 105.08V108H53.73V105.08L56.46 100.86ZM56.5564 108H57.6664V106.89H56.5564V108ZM57.6664 102.83H56.5564V103.94H57.6664V102.83ZM62.2296 100.91H61.5796C61.3896 101.98 60.5096 102.24 59.5396 102.24V102.92H61.3796V108H62.2296V100.91ZM51.73 116.73H53.9C54.7 116.73 55.45 116.99 55.45 117.92C55.45 118.7 54.93 119.2 54.11 119.2H51.73V116.73ZM50.78 120H54.23C55.65 120 56.4 119 56.4 117.95C56.4 117.07 55.92 116.41 55.04 116.23V116.21C55.7 115.94 56.1 115.37 56.1 114.61C56.1 113.91 55.73 113.4 55.26 113.12C54.83 112.86 54 112.86 53.37 112.86H50.78V120ZM51.73 113.66H53.63C54.45 113.66 55.15 113.8 55.15 114.79C55.15 115.54 54.71 115.93 53.63 115.93H51.73V113.66ZM57.6957 120H58.5457V112.86H57.6957V120ZM64.3025 114.83H63.4525V117.75C63.4525 118.68 62.9525 119.37 61.9225 119.37C61.2725 119.37 60.8725 118.96 60.8725 118.33V114.83H60.0225V118.23C60.0225 119.34 60.4425 120.12 61.8025 120.12C62.5425 120.12 63.1225 119.82 63.4825 119.18H63.5025V120H64.3025V114.83ZM65.7091 120H66.5591V117.7C66.5591 116.39 67.0591 115.61 68.4291 115.61V114.71C67.5091 114.68 66.9391 115.09 66.5291 115.92H66.5091V114.83H65.7091V120ZM69.4192 120H70.5292V118.89H69.4192V120ZM70.5292 114.83H69.4192V115.94H70.5292V114.83ZM75.0924 112.91H74.4424C74.2524 113.98 73.3724 114.24 72.4024 114.24V114.92H74.2424V120H75.0924V112.91ZM55.81 126.95C55.75 125.38 54.64 124.69 53.18 124.69C51.88 124.69 50.59 125.33 50.59 126.78C50.59 128.09 51.74 128.42 52.88 128.67C54.02 128.92 55.16 129.09 55.16 130.07C55.16 131.1 54.21 131.37 53.35 131.37C52.27 131.37 51.27 130.85 51.27 129.65H50.37C50.37 131.39 51.72 132.17 53.32 132.17C54.62 132.17 56.11 131.56 56.11 130.04C56.11 128.64 54.97 128.24 53.83 127.98C52.68 127.72 51.54 127.59 51.54 126.71C51.54 125.78 52.34 125.49 53.14 125.49C54.12 125.49 54.8 125.93 54.91 126.95H55.81ZM61.3144 129.37C61.3144 130.38 60.9244 131.37 59.7644 131.37C58.5944 131.37 58.1344 130.43 58.1344 129.41C58.1344 128.44 58.5744 127.46 59.7144 127.46C60.8144 127.46 61.3144 128.4 61.3144 129.37ZM57.3144 133.98H58.1644V131.31H58.1844C58.5644 131.92 59.3244 132.12 59.8544 132.12C61.4344 132.12 62.2144 130.89 62.2144 129.43C62.2144 127.97 61.4244 126.71 59.8344 126.71C59.1244 126.71 58.4644 126.96 58.1844 127.53H58.1644V126.83H57.3144V133.98ZM63.3421 132H64.1921V129.7C64.1921 128.39 64.6921 127.61 66.0621 127.61V126.71C65.1421 126.68 64.5721 127.09 64.1621 127.92H64.1421V126.83H63.3421V132ZM70.2564 130.36C70.1064 131.03 69.6164 131.37 68.9164 131.37C67.7864 131.37 67.2764 130.57 67.3064 129.67H71.1764C71.2264 128.42 70.6664 126.71 68.8364 126.71C67.4264 126.71 66.4064 127.85 66.4064 129.4C66.4564 130.98 67.2364 132.12 68.8864 132.12C70.0464 132.12 70.8664 131.5 71.0964 130.36H70.2564ZM67.3064 128.92C67.3664 128.13 67.8964 127.46 68.7864 127.46C69.6264 127.46 70.2364 128.11 70.2764 128.92H67.3064ZM75.4175 130.2C75.4175 130.67 74.9575 131.37 73.8375 131.37C73.3175 131.37 72.8375 131.17 72.8375 130.61C72.8375 129.98 73.3175 129.78 73.8775 129.68C74.4475 129.58 75.0875 129.57 75.4175 129.33V130.2ZM76.7975 131.32C76.6875 131.36 76.6075 131.37 76.5375 131.37C76.2675 131.37 76.2675 131.19 76.2675 130.79V128.13C76.2675 126.92 75.2575 126.71 74.3275 126.71C73.1775 126.71 72.1875 127.16 72.1375 128.44H72.9875C73.0275 127.68 73.5575 127.46 74.2775 127.46C74.8175 127.46 75.4275 127.58 75.4275 128.32C75.4275 128.96 74.6275 128.9 73.6875 129.08C72.8075 129.25 71.9375 129.5 71.9375 130.67C71.9375 131.7 72.7075 132.12 73.6475 132.12C74.3675 132.12 74.9975 131.87 75.4675 131.32C75.4675 131.88 75.7475 132.12 76.1875 132.12C76.4575 132.12 76.6475 132.07 76.7975 131.98V131.32ZM82.3686 124.86H81.5186V127.52H81.4986C81.1186 126.91 80.3586 126.71 79.8286 126.71C78.2486 126.71 77.4686 127.94 77.4686 129.4C77.4686 130.86 78.2586 132.12 79.8486 132.12C80.5586 132.12 81.2186 131.87 81.4986 131.3H81.5186V132H82.3686V124.86ZM78.3686 129.46C78.3686 128.45 78.7586 127.46 79.9186 127.46C81.0886 127.46 81.5486 128.4 81.5486 129.42C81.5486 130.39 81.1086 131.37 79.9686 131.37C78.8686 131.37 78.3686 130.43 78.3686 129.46ZM84.0263 132H85.1363V130.89H84.0263V132ZM85.1363 126.83H84.0263V127.94H85.1363V126.83ZM86.5595 128.52C86.5595 130.08 86.6995 132.12 88.9195 132.12C91.1395 132.12 91.2795 130.08 91.2795 128.52C91.2795 126.95 91.1395 124.91 88.9195 124.91C86.6995 124.91 86.5595 126.95 86.5595 128.52ZM87.4595 128.51C87.4595 127.46 87.4695 125.66 88.9195 125.66C90.3695 125.66 90.3795 127.46 90.3795 128.51C90.3795 129.57 90.3695 131.37 88.9195 131.37C87.4695 131.37 87.4595 129.57 87.4595 128.51ZM50.38 140.43C50.38 142.37 51.53 144.17 53.8 144.17C56.07 144.17 57.22 142.37 57.22 140.43C57.22 138.49 56.07 136.69 53.8 136.69C51.53 136.69 50.38 138.49 50.38 140.43ZM51.33 140.43C51.33 138.99 52.06 137.49 53.8 137.49C55.54 137.49 56.27 138.99 56.27 140.43C56.27 141.87 55.54 143.37 53.8 143.37C52.06 143.37 51.33 141.87 51.33 140.43ZM62.4277 141.37C62.4277 142.38 62.0377 143.37 60.8777 143.37C59.7077 143.37 59.2477 142.43 59.2477 141.41C59.2477 140.44 59.6877 139.46 60.8277 139.46C61.9277 139.46 62.4277 140.4 62.4277 141.37ZM58.4277 145.98H59.2777V143.31H59.2977C59.6777 143.92 60.4377 144.12 60.9677 144.12C62.5477 144.12 63.3277 142.89 63.3277 141.43C63.3277 139.97 62.5377 138.71 60.9477 138.71C60.2377 138.71 59.5777 138.96 59.2977 139.53H59.2777V138.83H58.4277V145.98ZM67.6854 142.2C67.6854 142.67 67.2254 143.37 66.1054 143.37C65.5854 143.37 65.1054 143.17 65.1054 142.61C65.1054 141.98 65.5854 141.78 66.1454 141.68C66.7154 141.58 67.3554 141.57 67.6854 141.33V142.2ZM69.0654 143.32C68.9554 143.36 68.8754 143.37 68.8054 143.37C68.5354 143.37 68.5354 143.19 68.5354 142.79V140.13C68.5354 138.92 67.5254 138.71 66.5954 138.71C65.4454 138.71 64.4554 139.16 64.4054 140.44H65.2554C65.2954 139.68 65.8254 139.46 66.5454 139.46C67.0854 139.46 67.6954 139.58 67.6954 140.32C67.6954 140.96 66.8954 140.9 65.9554 141.08C65.0754 141.25 64.2054 141.5 64.2054 142.67C64.2054 143.7 64.9754 144.12 65.9154 144.12C66.6354 144.12 67.2654 143.87 67.7354 143.32C67.7354 143.88 68.0154 144.12 68.4554 144.12C68.7254 144.12 68.9154 144.07 69.0654 143.98V143.32ZM74.4065 140.49C74.2865 139.26 73.3465 138.71 72.1765 138.71C70.5365 138.71 69.7365 139.93 69.7365 141.48C69.7365 143.02 70.5765 144.12 72.1565 144.12C73.4565 144.12 74.2465 143.37 74.4365 142.11H73.5665C73.4565 142.89 72.9665 143.37 72.1465 143.37C71.0665 143.37 70.6365 142.43 70.6365 141.48C70.6365 140.43 71.0165 139.46 72.2465 139.46C72.9465 139.46 73.3965 139.84 73.5265 140.49H74.4065ZM75.5976 144H76.4476V138.83H75.5976V144ZM76.4476 136.86H75.5976V137.9H76.4476V136.86ZM79.1044 137.28H78.2544V138.83H77.3744V139.58H78.2544V142.87C78.2544 143.82 78.6044 144 79.4844 144H80.1344V143.25H79.7444C79.2144 143.25 79.1044 143.18 79.1044 142.79V139.58H80.1344V138.83H79.1044V137.28ZM85.5187 138.83H84.6187L83.1687 143.06H83.1487L81.6387 138.83H80.6787L82.7287 143.97L82.3787 144.85C82.2187 145.15 82.0287 145.32 81.6787 145.32C81.5087 145.32 81.3387 145.25 81.1787 145.2V145.98C81.3687 146.05 81.5687 146.07 81.7687 146.07C82.5287 146.07 82.8787 145.7 83.2687 144.69L85.5187 138.83ZM86.5887 144H87.6987V142.89H86.5887V144ZM87.6987 138.83H86.5887V139.94H87.6987V138.83ZM89.9919 139.42C89.9619 138.57 90.3819 137.66 91.3719 137.66C92.1219 137.66 92.7419 138.17 92.7419 138.94C92.7419 139.92 92.1319 140.36 90.9319 141.1C89.9319 141.72 89.0819 142.32 88.9419 144H93.5719V143.25H89.9319C90.1019 142.37 91.0319 141.92 91.9219 141.38C92.8019 140.83 93.6419 140.2 93.6419 138.95C93.6419 137.63 92.6619 136.91 91.4219 136.91C89.9219 136.91 89.0719 137.98 89.1419 139.42H89.9919ZM99.1185 137.03H95.6185L94.9585 140.71L95.6885 140.75C96.0185 140.35 96.4685 140.08 97.0085 140.08C97.9585 140.08 98.6085 140.75 98.6085 141.69C98.6085 142.82 97.9185 143.37 97.1085 143.37C96.2585 143.37 95.6685 142.82 95.6185 142.09H94.7685C94.7985 143.37 95.7985 144.12 97.0285 144.12C98.6785 144.12 99.5085 142.96 99.5085 141.76C99.5085 140.14 98.4785 139.33 97.2185 139.33C96.7385 139.33 96.2085 139.49 95.8985 139.84L95.8785 139.82L96.2585 137.78H99.1185V137.03Z" fill="#1D1D1D"/>
<path d="M110.78 84H115.51V83.2H111.73V76.86H110.78V84ZM119.927 82.36C119.777 83.03 119.287 83.37 118.587 83.37C117.457 83.37 116.947 82.57 116.977 81.67H120.847C120.897 80.42 120.337 78.71 118.507 78.71C117.097 78.71 116.077 79.85 116.077 81.4C116.127 82.98 116.907 84.12 118.557 84.12C119.717 84.12 120.537 83.5 120.767 82.36H119.927ZM116.977 80.92C117.037 80.13 117.567 79.46 118.457 79.46C119.297 79.46 119.907 80.11 119.947 80.92H116.977ZM126.108 78.83H125.218L123.808 83.14H123.788L122.338 78.83H121.388L123.308 84H124.218L126.108 78.83ZM130.618 82.36C130.468 83.03 129.978 83.37 129.278 83.37C128.148 83.37 127.638 82.57 127.668 81.67H131.538C131.588 80.42 131.028 78.71 129.198 78.71C127.788 78.71 126.768 79.85 126.768 81.4C126.818 82.98 127.598 84.12 129.248 84.12C130.408 84.12 131.228 83.5 131.458 82.36H130.618ZM127.668 80.92C127.728 80.13 128.258 79.46 129.148 79.46C129.988 79.46 130.598 80.11 130.638 80.92H127.668ZM132.629 84H133.479V76.86H132.629V84ZM138.549 79.42C138.519 78.57 138.939 77.66 139.929 77.66C140.679 77.66 141.299 78.17 141.299 78.94C141.299 79.92 140.689 80.36 139.489 81.1C138.489 81.72 137.639 82.32 137.499 84H142.129V83.25H138.489C138.659 82.37 139.589 81.92 140.479 81.38C141.359 80.83 142.199 80.2 142.199 78.95C142.199 77.63 141.219 76.91 139.979 76.91C138.479 76.91 137.629 77.98 137.699 79.42H138.549ZM109.99 96H111.06L113.04 93.05L114.96 96H116.12L113.61 92.33L115.97 88.86H114.91L113.05 91.65L111.27 88.86H110.13L112.48 92.33L109.99 96ZM117.103 96H118.213V94.89H117.103V96ZM118.213 90.83H117.103V91.94H118.213V90.83ZM119.636 92.52C119.636 94.08 119.776 96.12 121.996 96.12C124.216 96.12 124.356 94.08 124.356 92.52C124.356 90.95 124.216 88.91 121.996 88.91C119.776 88.91 119.636 90.95 119.636 92.52ZM120.536 92.51C120.536 91.46 120.546 89.66 121.996 89.66C123.446 89.66 123.456 91.46 123.456 92.51C123.456 93.57 123.446 95.37 121.996 95.37C120.546 95.37 120.536 93.57 120.536 92.51ZM116.46 100.86H115.38L113.29 104.26L111.15 100.86H110.02L112.78 105.08V108H113.73V105.08L116.46 100.86ZM116.556 108H117.666V106.89H116.556V108ZM117.666 102.83H116.556V103.94H117.666V102.83ZM122.23 100.91H121.58C121.39 101.98 120.51 102.24 119.54 102.24V102.92H121.38V108H122.23V100.91ZM111.73 116.73H113.9C114.7 116.73 115.45 116.99 115.45 117.92C115.45 118.7 114.93 119.2 114.11 119.2H111.73V116.73ZM110.78 120H114.23C115.65 120 116.4 119 116.4 117.95C116.4 117.07 115.92 116.41 115.04 116.23V116.21C115.7 115.94 116.1 115.37 116.1 114.61C116.1 113.91 115.73 113.4 115.26 113.12C114.83 112.86 114 112.86 113.37 112.86H110.78V120ZM111.73 113.66H113.63C114.45 113.66 115.15 113.8 115.15 114.79C115.15 115.54 114.71 115.93 113.63 115.93H111.73V113.66ZM117.696 120H118.546V112.86H117.696V120ZM124.302 114.83H123.452V117.75C123.452 118.68 122.952 119.37 121.922 119.37C121.272 119.37 120.872 118.96 120.872 118.33V114.83H120.022V118.23C120.022 119.34 120.442 120.12 121.802 120.12C122.542 120.12 123.122 119.82 123.482 119.18H123.502V120H124.302V114.83ZM125.709 120H126.559V117.7C126.559 116.39 127.059 115.61 128.429 115.61V114.71C127.509 114.68 126.939 115.09 126.529 115.92H126.509V114.83H125.709V120ZM129.419 120H130.529V118.89H129.419V120ZM130.529 114.83H129.419V115.94H130.529V114.83ZM132.822 115.42C132.792 114.57 133.212 113.66 134.202 113.66C134.952 113.66 135.572 114.17 135.572 114.94C135.572 115.92 134.962 116.36 133.762 117.1C132.762 117.72 131.912 118.32 131.772 120H136.402V119.25H132.762C132.932 118.37 133.862 117.92 134.752 117.38C135.632 116.83 136.472 116.2 136.472 114.95C136.472 113.63 135.492 112.91 134.252 112.91C132.752 112.91 131.902 113.98 131.972 115.42H132.822ZM115.81 126.95C115.75 125.38 114.64 124.69 113.18 124.69C111.88 124.69 110.59 125.33 110.59 126.78C110.59 128.09 111.74 128.42 112.88 128.67C114.02 128.92 115.16 129.09 115.16 130.07C115.16 131.1 114.21 131.37 113.35 131.37C112.27 131.37 111.27 130.85 111.27 129.65H110.37C110.37 131.39 111.72 132.17 113.32 132.17C114.62 132.17 116.11 131.56 116.11 130.04C116.11 128.64 114.97 128.24 113.83 127.98C112.68 127.72 111.54 127.59 111.54 126.71C111.54 125.78 112.34 125.49 113.14 125.49C114.12 125.49 114.8 125.93 114.91 126.95H115.81ZM121.314 129.37C121.314 130.38 120.924 131.37 119.764 131.37C118.594 131.37 118.134 130.43 118.134 129.41C118.134 128.44 118.574 127.46 119.714 127.46C120.814 127.46 121.314 128.4 121.314 129.37ZM117.314 133.98H118.164V131.31H118.184C118.564 131.92 119.324 132.12 119.854 132.12C121.434 132.12 122.214 130.89 122.214 129.43C122.214 127.97 121.424 126.71 119.834 126.71C119.124 126.71 118.464 126.96 118.184 127.53H118.164V126.83H117.314V133.98ZM123.342 132H124.192V129.7C124.192 128.39 124.692 127.61 126.062 127.61V126.71C125.142 126.68 124.572 127.09 124.162 127.92H124.142V126.83H123.342V132ZM130.256 130.36C130.106 131.03 129.616 131.37 128.916 131.37C127.786 131.37 127.276 130.57 127.306 129.67H131.176C131.226 128.42 130.666 126.71 128.836 126.71C127.426 126.71 126.406 127.85 126.406 129.4C126.456 130.98 127.236 132.12 128.886 132.12C130.046 132.12 130.866 131.5 131.096 130.36H130.256ZM127.306 128.92C127.366 128.13 127.896 127.46 128.786 127.46C129.626 127.46 130.236 128.11 130.276 128.92H127.306ZM135.417 130.2C135.417 130.67 134.957 131.37 133.837 131.37C133.317 131.37 132.837 131.17 132.837 130.61C132.837 129.98 133.317 129.78 133.877 129.68C134.447 129.58 135.087 129.57 135.417 129.33V130.2ZM136.797 131.32C136.687 131.36 136.607 131.37 136.537 131.37C136.267 131.37 136.267 131.19 136.267 130.79V128.13C136.267 126.92 135.257 126.71 134.327 126.71C133.177 126.71 132.187 127.16 132.137 128.44H132.987C133.027 127.68 133.557 127.46 134.277 127.46C134.817 127.46 135.427 127.58 135.427 128.32C135.427 128.96 134.627 128.9 133.687 129.08C132.807 129.25 131.937 129.5 131.937 130.67C131.937 131.7 132.707 132.12 133.647 132.12C134.367 132.12 134.997 131.87 135.467 131.32C135.467 131.88 135.747 132.12 136.187 132.12C136.457 132.12 136.647 132.07 136.797 131.98V131.32ZM142.369 124.86H141.519V127.52H141.499C141.119 126.91 140.359 126.71 139.829 126.71C138.249 126.71 137.469 127.94 137.469 129.4C137.469 130.86 138.259 132.12 139.849 132.12C140.559 132.12 141.219 131.87 141.499 131.3H141.519V132H142.369V124.86ZM138.369 129.46C138.369 128.45 138.759 127.46 139.919 127.46C141.089 127.46 141.549 128.4 141.549 129.42C141.549 130.39 141.109 131.37 139.969 131.37C138.869 131.37 138.369 130.43 138.369 129.46ZM144.026 132H145.136V130.89H144.026V132ZM145.136 126.83H144.026V127.94H145.136V126.83ZM149.7 124.91H149.05C148.86 125.98 147.98 126.24 147.01 126.24V126.92H148.85V132H149.7V124.91ZM110.38 140.43C110.38 142.37 111.53 144.17 113.8 144.17C116.07 144.17 117.22 142.37 117.22 140.43C117.22 138.49 116.07 136.69 113.8 136.69C111.53 136.69 110.38 138.49 110.38 140.43ZM111.33 140.43C111.33 138.99 112.06 137.49 113.8 137.49C115.54 137.49 116.27 138.99 116.27 140.43C116.27 141.87 115.54 143.37 113.8 143.37C112.06 143.37 111.33 141.87 111.33 140.43ZM122.428 141.37C122.428 142.38 122.038 143.37 120.878 143.37C119.708 143.37 119.248 142.43 119.248 141.41C119.248 140.44 119.688 139.46 120.828 139.46C121.928 139.46 122.428 140.4 122.428 141.37ZM118.428 145.98H119.278V143.31H119.298C119.678 143.92 120.438 144.12 120.968 144.12C122.548 144.12 123.328 142.89 123.328 141.43C123.328 139.97 122.538 138.71 120.948 138.71C120.238 138.71 119.578 138.96 119.298 139.53H119.278V138.83H118.428V145.98ZM127.685 142.2C127.685 142.67 127.225 143.37 126.105 143.37C125.585 143.37 125.105 143.17 125.105 142.61C125.105 141.98 125.585 141.78 126.145 141.68C126.715 141.58 127.355 141.57 127.685 141.33V142.2ZM129.065 143.32C128.955 143.36 128.875 143.37 128.805 143.37C128.535 143.37 128.535 143.19 128.535 142.79V140.13C128.535 138.92 127.525 138.71 126.595 138.71C125.445 138.71 124.455 139.16 124.405 140.44H125.255C125.295 139.68 125.825 139.46 126.545 139.46C127.085 139.46 127.695 139.58 127.695 140.32C127.695 140.96 126.895 140.9 125.955 141.08C125.075 141.25 124.205 141.5 124.205 142.67C124.205 143.7 124.975 144.12 125.915 144.12C126.635 144.12 127.265 143.87 127.735 143.32C127.735 143.88 128.015 144.12 128.455 144.12C128.725 144.12 128.915 144.07 129.065 143.98V143.32ZM134.406 140.49C134.286 139.26 133.346 138.71 132.176 138.71C130.536 138.71 129.736 139.93 129.736 141.48C129.736 143.02 130.576 144.12 132.156 144.12C133.456 144.12 134.246 143.37 134.436 142.11H133.566C133.456 142.89 132.966 143.37 132.146 143.37C131.066 143.37 130.636 142.43 130.636 141.48C130.636 140.43 131.016 139.46 132.246 139.46C132.946 139.46 133.396 139.84 133.526 140.49H134.406ZM135.598 144H136.448V138.83H135.598V144ZM136.448 136.86H135.598V137.9H136.448V136.86ZM139.104 137.28H138.254V138.83H137.374V139.58H138.254V142.87C138.254 143.82 138.604 144 139.484 144H140.134V143.25H139.744C139.214 143.25 139.104 143.18 139.104 142.79V139.58H140.134V138.83H139.104V137.28ZM145.519 138.83H144.619L143.169 143.06H143.149L141.639 138.83H140.679L142.729 143.97L142.379 144.85C142.219 145.15 142.029 145.32 141.679 145.32C141.509 145.32 141.339 145.25 141.179 145.2V145.98C141.369 146.05 141.569 146.07 141.769 146.07C142.529 146.07 142.879 145.7 143.269 144.69L145.519 138.83ZM146.589 144H147.699V142.89H146.589V144ZM147.699 138.83H146.589V139.94H147.699V138.83ZM149.992 139.42C149.962 138.57 150.382 137.66 151.372 137.66C152.122 137.66 152.742 138.17 152.742 138.94C152.742 139.92 152.132 140.36 150.932 141.1C149.932 141.72 149.082 142.32 148.942 144H153.572V143.25H149.932C150.102 142.37 151.032 141.92 151.922 141.38C152.802 140.83 153.642 140.2 153.642 138.95C153.642 137.63 152.662 136.91 151.422 136.91C149.922 136.91 149.072 137.98 149.142 139.42H149.992ZM159.119 137.03H155.619L154.959 140.71L155.689 140.75C156.019 140.35 156.469 140.08 157.009 140.08C157.959 140.08 158.609 140.75 158.609 141.69C158.609 142.82 157.919 143.37 157.109 143.37C156.259 143.37 155.669 142.82 155.619 142.09H154.769C154.799 143.37 155.799 144.12 157.029 144.12C158.679 144.12 159.509 142.96 159.509 141.76C159.509 140.14 158.479 139.33 157.219 139.33C156.739 139.33 156.209 139.49 155.899 139.84L155.879 139.82L156.259 137.78H159.119V137.03Z" fill="#1D1D1D"/>
<g filter="url(#filter1_dd_10993_81688)">
<rect x="194" y="20" width="110" height="46" rx="2" fill="#F4F4F4"/>
</g>
<path d="M194.78 84H199.51V83.2H195.73V76.86H194.78V84ZM203.927 82.36C203.777 83.03 203.287 83.37 202.587 83.37C201.457 83.37 200.947 82.57 200.977 81.67H204.847C204.897 80.42 204.337 78.71 202.507 78.71C201.097 78.71 200.077 79.85 200.077 81.4C200.127 82.98 200.907 84.12 202.557 84.12C203.717 84.12 204.537 83.5 204.767 82.36H203.927ZM200.977 80.92C201.037 80.13 201.567 79.46 202.457 79.46C203.297 79.46 203.907 80.11 203.947 80.92H200.977ZM210.108 78.83H209.218L207.808 83.14H207.788L206.338 78.83H205.388L207.308 84H208.218L210.108 78.83ZM214.618 82.36C214.468 83.03 213.978 83.37 213.278 83.37C212.148 83.37 211.638 82.57 211.668 81.67H215.538C215.588 80.42 215.028 78.71 213.198 78.71C211.788 78.71 210.768 79.85 210.768 81.4C210.818 82.98 211.598 84.12 213.248 84.12C214.408 84.12 215.228 83.5 215.458 82.36H214.618ZM211.668 80.92C211.728 80.13 212.258 79.46 213.148 79.46C213.988 79.46 214.598 80.11 214.638 80.92H211.668ZM216.629 84H217.479V76.86H216.629V84ZM224.819 76.91H224.169C223.979 77.98 223.099 78.24 222.129 78.24V78.92H223.969V84H224.819V76.91ZM193.99 96H195.06L197.04 93.05L198.96 96H200.12L197.61 92.33L199.97 88.86H198.91L197.05 91.65L195.27 88.86H194.13L196.48 92.33L193.99 96ZM201.103 96H202.213V94.89H201.103V96ZM202.213 90.83H201.103V91.94H202.213V90.83ZM203.636 92.52C203.636 94.08 203.776 96.12 205.996 96.12C208.216 96.12 208.356 94.08 208.356 92.52C208.356 90.95 208.216 88.91 205.996 88.91C203.776 88.91 203.636 90.95 203.636 92.52ZM204.536 92.51C204.536 91.46 204.546 89.66 205.996 89.66C207.446 89.66 207.456 91.46 207.456 92.51C207.456 93.57 207.446 95.37 205.996 95.37C204.546 95.37 204.536 93.57 204.536 92.51ZM200.46 100.86H199.38L197.29 104.26L195.15 100.86H194.02L196.78 105.08V108H197.73V105.08L200.46 100.86ZM200.556 108H201.666V106.89H200.556V108ZM201.666 102.83H200.556V103.94H201.666V102.83ZM203.96 103.42C203.93 102.57 204.35 101.66 205.34 101.66C206.09 101.66 206.71 102.17 206.71 102.94C206.71 103.92 206.1 104.36 204.9 105.1C203.9 105.72 203.05 106.32 202.91 108H207.54V107.25H203.9C204.07 106.37 205 105.92 205.89 105.38C206.77 104.83 207.61 104.2 207.61 102.95C207.61 101.63 206.63 100.91 205.39 100.91C203.89 100.91 203.04 101.98 203.11 103.42H203.96ZM195.73 116.73H197.9C198.7 116.73 199.45 116.99 199.45 117.92C199.45 118.7 198.93 119.2 198.11 119.2H195.73V116.73ZM194.78 120H198.23C199.65 120 200.4 119 200.4 117.95C200.4 117.07 199.92 116.41 199.04 116.23V116.21C199.7 115.94 200.1 115.37 200.1 114.61C200.1 113.91 199.73 113.4 199.26 113.12C198.83 112.86 198 112.86 197.37 112.86H194.78V120ZM195.73 113.66H197.63C198.45 113.66 199.15 113.8 199.15 114.79C199.15 115.54 198.71 115.93 197.63 115.93H195.73V113.66ZM201.696 120H202.546V112.86H201.696V120ZM208.302 114.83H207.452V117.75C207.452 118.68 206.952 119.37 205.922 119.37C205.272 119.37 204.872 118.96 204.872 118.33V114.83H204.022V118.23C204.022 119.34 204.442 120.12 205.802 120.12C206.542 120.12 207.122 119.82 207.482 119.18H207.502V120H208.302V114.83ZM209.709 120H210.559V117.7C210.559 116.39 211.059 115.61 212.429 115.61V114.71C211.509 114.68 210.939 115.09 210.529 115.92H210.509V114.83H209.709V120ZM213.419 120H214.529V118.89H213.419V120ZM214.529 114.83H213.419V115.94H214.529V114.83ZM216.822 115.42C216.792 114.57 217.212 113.66 218.202 113.66C218.952 113.66 219.572 114.17 219.572 114.94C219.572 115.92 218.962 116.36 217.762 117.1C216.762 117.72 215.912 118.32 215.772 120H220.402V119.25H216.762C216.932 118.37 217.862 117.92 218.752 117.38C219.632 116.83 220.472 116.2 220.472 114.95C220.472 113.63 219.492 112.91 218.252 112.91C216.752 112.91 215.902 113.98 215.972 115.42H216.822ZM199.81 126.95C199.75 125.38 198.64 124.69 197.18 124.69C195.88 124.69 194.59 125.33 194.59 126.78C194.59 128.09 195.74 128.42 196.88 128.67C198.02 128.92 199.16 129.09 199.16 130.07C199.16 131.1 198.21 131.37 197.35 131.37C196.27 131.37 195.27 130.85 195.27 129.65H194.37C194.37 131.39 195.72 132.17 197.32 132.17C198.62 132.17 200.11 131.56 200.11 130.04C200.11 128.64 198.97 128.24 197.83 127.98C196.68 127.72 195.54 127.59 195.54 126.71C195.54 125.78 196.34 125.49 197.14 125.49C198.12 125.49 198.8 125.93 198.91 126.95H199.81ZM205.314 129.37C205.314 130.38 204.924 131.37 203.764 131.37C202.594 131.37 202.134 130.43 202.134 129.41C202.134 128.44 202.574 127.46 203.714 127.46C204.814 127.46 205.314 128.4 205.314 129.37ZM201.314 133.98H202.164V131.31H202.184C202.564 131.92 203.324 132.12 203.854 132.12C205.434 132.12 206.214 130.89 206.214 129.43C206.214 127.97 205.424 126.71 203.834 126.71C203.124 126.71 202.464 126.96 202.184 127.53H202.164V126.83H201.314V133.98ZM207.342 132H208.192V129.7C208.192 128.39 208.692 127.61 210.062 127.61V126.71C209.142 126.68 208.572 127.09 208.162 127.92H208.142V126.83H207.342V132ZM214.256 130.36C214.106 131.03 213.616 131.37 212.916 131.37C211.786 131.37 211.276 130.57 211.306 129.67H215.176C215.226 128.42 214.666 126.71 212.836 126.71C211.426 126.71 210.406 127.85 210.406 129.4C210.456 130.98 211.236 132.12 212.886 132.12C214.046 132.12 214.866 131.5 215.096 130.36H214.256ZM211.306 128.92C211.366 128.13 211.896 127.46 212.786 127.46C213.626 127.46 214.236 128.11 214.276 128.92H211.306ZM219.417 130.2C219.417 130.67 218.957 131.37 217.837 131.37C217.317 131.37 216.837 131.17 216.837 130.61C216.837 129.98 217.317 129.78 217.877 129.68C218.447 129.58 219.087 129.57 219.417 129.33V130.2ZM220.797 131.32C220.687 131.36 220.607 131.37 220.537 131.37C220.267 131.37 220.267 131.19 220.267 130.79V128.13C220.267 126.92 219.257 126.71 218.327 126.71C217.177 126.71 216.187 127.16 216.137 128.44H216.987C217.027 127.68 217.557 127.46 218.277 127.46C218.817 127.46 219.427 127.58 219.427 128.32C219.427 128.96 218.627 128.9 217.687 129.08C216.807 129.25 215.937 129.5 215.937 130.67C215.937 131.7 216.707 132.12 217.647 132.12C218.367 132.12 218.997 131.87 219.467 131.32C219.467 131.88 219.747 132.12 220.187 132.12C220.457 132.12 220.647 132.07 220.797 131.98V131.32ZM226.369 124.86H225.519V127.52H225.499C225.119 126.91 224.359 126.71 223.829 126.71C222.249 126.71 221.469 127.94 221.469 129.4C221.469 130.86 222.259 132.12 223.849 132.12C224.559 132.12 225.219 131.87 225.499 131.3H225.519V132H226.369V124.86ZM222.369 129.46C222.369 128.45 222.759 127.46 223.919 127.46C225.089 127.46 225.549 128.4 225.549 129.42C225.549 130.39 225.109 131.37 223.969 131.37C222.869 131.37 222.369 130.43 222.369 129.46ZM228.026 132H229.136V130.89H228.026V132ZM229.136 126.83H228.026V127.94H229.136V126.83ZM230.56 128.52C230.56 130.08 230.7 132.12 232.92 132.12C235.14 132.12 235.28 130.08 235.28 128.52C235.28 126.95 235.14 124.91 232.92 124.91C230.7 124.91 230.56 126.95 230.56 128.52ZM231.46 128.51C231.46 127.46 231.47 125.66 232.92 125.66C234.37 125.66 234.38 127.46 234.38 128.51C234.38 129.57 234.37 131.37 232.92 131.37C231.47 131.37 231.46 129.57 231.46 128.51ZM194.38 140.43C194.38 142.37 195.53 144.17 197.8 144.17C200.07 144.17 201.22 142.37 201.22 140.43C201.22 138.49 200.07 136.69 197.8 136.69C195.53 136.69 194.38 138.49 194.38 140.43ZM195.33 140.43C195.33 138.99 196.06 137.49 197.8 137.49C199.54 137.49 200.27 138.99 200.27 140.43C200.27 141.87 199.54 143.37 197.8 143.37C196.06 143.37 195.33 141.87 195.33 140.43ZM206.428 141.37C206.428 142.38 206.038 143.37 204.878 143.37C203.708 143.37 203.248 142.43 203.248 141.41C203.248 140.44 203.688 139.46 204.828 139.46C205.928 139.46 206.428 140.4 206.428 141.37ZM202.428 145.98H203.278V143.31H203.298C203.678 143.92 204.438 144.12 204.968 144.12C206.548 144.12 207.328 142.89 207.328 141.43C207.328 139.97 206.538 138.71 204.948 138.71C204.238 138.71 203.578 138.96 203.298 139.53H203.278V138.83H202.428V145.98ZM211.685 142.2C211.685 142.67 211.225 143.37 210.105 143.37C209.585 143.37 209.105 143.17 209.105 142.61C209.105 141.98 209.585 141.78 210.145 141.68C210.715 141.58 211.355 141.57 211.685 141.33V142.2ZM213.065 143.32C212.955 143.36 212.875 143.37 212.805 143.37C212.535 143.37 212.535 143.19 212.535 142.79V140.13C212.535 138.92 211.525 138.71 210.595 138.71C209.445 138.71 208.455 139.16 208.405 140.44H209.255C209.295 139.68 209.825 139.46 210.545 139.46C211.085 139.46 211.695 139.58 211.695 140.32C211.695 140.96 210.895 140.9 209.955 141.08C209.075 141.25 208.205 141.5 208.205 142.67C208.205 143.7 208.975 144.12 209.915 144.12C210.635 144.12 211.265 143.87 211.735 143.32C211.735 143.88 212.015 144.12 212.455 144.12C212.725 144.12 212.915 144.07 213.065 143.98V143.32ZM218.406 140.49C218.286 139.26 217.346 138.71 216.176 138.71C214.536 138.71 213.736 139.93 213.736 141.48C213.736 143.02 214.576 144.12 216.156 144.12C217.456 144.12 218.246 143.37 218.436 142.11H217.566C217.456 142.89 216.966 143.37 216.146 143.37C215.066 143.37 214.636 142.43 214.636 141.48C214.636 140.43 215.016 139.46 216.246 139.46C216.946 139.46 217.396 139.84 217.526 140.49H218.406ZM219.598 144H220.448V138.83H219.598V144ZM220.448 136.86H219.598V137.9H220.448V136.86ZM223.104 137.28H222.254V138.83H221.374V139.58H222.254V142.87C222.254 143.82 222.604 144 223.484 144H224.134V143.25H223.744C223.214 143.25 223.104 143.18 223.104 142.79V139.58H224.134V138.83H223.104V137.28ZM229.519 138.83H228.619L227.169 143.06H227.149L225.639 138.83H224.679L226.729 143.97L226.379 144.85C226.219 145.15 226.029 145.32 225.679 145.32C225.509 145.32 225.339 145.25 225.179 145.2V145.98C225.369 146.05 225.569 146.07 225.769 146.07C226.529 146.07 226.879 145.7 227.269 144.69L229.519 138.83ZM230.589 144H231.699V142.89H230.589V144ZM231.699 138.83H230.589V139.94H231.699V138.83ZM233.992 139.42C233.962 138.57 234.382 137.66 235.372 137.66C236.122 137.66 236.742 138.17 236.742 138.94C236.742 139.92 236.132 140.36 234.932 141.1C233.932 141.72 233.082 142.32 232.942 144H237.572V143.25H233.932C234.102 142.37 235.032 141.92 235.922 141.38C236.802 140.83 237.642 140.2 237.642 138.95C237.642 137.63 236.662 136.91 235.422 136.91C233.922 136.91 233.072 137.98 233.142 139.42H233.992ZM243.119 137.03H239.619L238.959 140.71L239.689 140.75C240.019 140.35 240.469 140.08 241.009 140.08C241.959 140.08 242.609 140.75 242.609 141.69C242.609 142.82 241.919 143.37 241.109 143.37C240.259 143.37 239.669 142.82 239.619 142.09H238.769C238.799 143.37 239.799 144.12 241.029 144.12C242.679 144.12 243.509 142.96 243.509 141.76C243.509 140.14 242.479 139.33 241.219 139.33C240.739 139.33 240.209 139.49 239.899 139.84L239.879 139.82L240.259 137.78H243.119V137.03Z" fill="#1D1D1D"/>
<path d="M254.78 84H259.51V83.2H255.73V76.86H254.78V84ZM263.927 82.36C263.777 83.03 263.287 83.37 262.587 83.37C261.457 83.37 260.947 82.57 260.977 81.67H264.847C264.897 80.42 264.337 78.71 262.507 78.71C261.097 78.71 260.077 79.85 260.077 81.4C260.127 82.98 260.907 84.12 262.557 84.12C263.717 84.12 264.537 83.5 264.767 82.36H263.927ZM260.977 80.92C261.037 80.13 261.567 79.46 262.457 79.46C263.297 79.46 263.907 80.11 263.947 80.92H260.977ZM270.108 78.83H269.218L267.808 83.14H267.788L266.338 78.83H265.388L267.308 84H268.218L270.108 78.83ZM274.618 82.36C274.468 83.03 273.978 83.37 273.278 83.37C272.148 83.37 271.638 82.57 271.668 81.67H275.538C275.588 80.42 275.028 78.71 273.198 78.71C271.788 78.71 270.768 79.85 270.768 81.4C270.818 82.98 271.598 84.12 273.248 84.12C274.408 84.12 275.228 83.5 275.458 82.36H274.618ZM271.668 80.92C271.728 80.13 272.258 79.46 273.148 79.46C273.988 79.46 274.598 80.11 274.638 80.92H271.668ZM276.629 84H277.479V76.86H276.629V84ZM282.549 79.42C282.519 78.57 282.939 77.66 283.929 77.66C284.679 77.66 285.299 78.17 285.299 78.94C285.299 79.92 284.689 80.36 283.489 81.1C282.489 81.72 281.639 82.32 281.499 84H286.129V83.25H282.489C282.659 82.37 283.589 81.92 284.479 81.38C285.359 80.83 286.199 80.2 286.199 78.95C286.199 77.63 285.219 76.91 283.979 76.91C282.479 76.91 281.629 77.98 281.699 79.42H282.549ZM253.99 96H255.06L257.04 93.05L258.96 96H260.12L257.61 92.33L259.97 88.86H258.91L257.05 91.65L255.27 88.86H254.13L256.48 92.33L253.99 96ZM261.103 96H262.213V94.89H261.103V96ZM262.213 90.83H261.103V91.94H262.213V90.83ZM263.636 92.52C263.636 94.08 263.776 96.12 265.996 96.12C268.216 96.12 268.356 94.08 268.356 92.52C268.356 90.95 268.216 88.91 265.996 88.91C263.776 88.91 263.636 90.95 263.636 92.52ZM264.536 92.51C264.536 91.46 264.546 89.66 265.996 89.66C267.446 89.66 267.456 91.46 267.456 92.51C267.456 93.57 267.446 95.37 265.996 95.37C264.546 95.37 264.536 93.57 264.536 92.51ZM260.46 100.86H259.38L257.29 104.26L255.15 100.86H254.02L256.78 105.08V108H257.73V105.08L260.46 100.86ZM260.556 108H261.666V106.89H260.556V108ZM261.666 102.83H260.556V103.94H261.666V102.83ZM263.96 103.42C263.93 102.57 264.35 101.66 265.34 101.66C266.09 101.66 266.71 102.17 266.71 102.94C266.71 103.92 266.1 104.36 264.9 105.1C263.9 105.72 263.05 106.32 262.91 108H267.54V107.25H263.9C264.07 106.37 265 105.92 265.89 105.38C266.77 104.83 267.61 104.2 267.61 102.95C267.61 101.63 266.63 100.91 265.39 100.91C263.89 100.91 263.04 101.98 263.11 103.42H263.96ZM255.73 116.73H257.9C258.7 116.73 259.45 116.99 259.45 117.92C259.45 118.7 258.93 119.2 258.11 119.2H255.73V116.73ZM254.78 120H258.23C259.65 120 260.4 119 260.4 117.95C260.4 117.07 259.92 116.41 259.04 116.23V116.21C259.7 115.94 260.1 115.37 260.1 114.61C260.1 113.91 259.73 113.4 259.26 113.12C258.83 112.86 258 112.86 257.37 112.86H254.78V120ZM255.73 113.66H257.63C258.45 113.66 259.15 113.8 259.15 114.79C259.15 115.54 258.71 115.93 257.63 115.93H255.73V113.66ZM261.696 120H262.546V112.86H261.696V120ZM268.302 114.83H267.452V117.75C267.452 118.68 266.952 119.37 265.922 119.37C265.272 119.37 264.872 118.96 264.872 118.33V114.83H264.022V118.23C264.022 119.34 264.442 120.12 265.802 120.12C266.542 120.12 267.122 119.82 267.482 119.18H267.502V120H268.302V114.83ZM269.709 120H270.559V117.7C270.559 116.39 271.059 115.61 272.429 115.61V114.71C271.509 114.68 270.939 115.09 270.529 115.92H270.509V114.83H269.709V120ZM273.419 120H274.529V118.89H273.419V120ZM274.529 114.83H273.419V115.94H274.529V114.83ZM279.722 112.91H279.042L275.812 117.52V118.34H278.922V120H279.722V118.34H280.682V117.59H279.722V112.91ZM276.542 117.59L278.902 114.12H278.922V117.59H276.542ZM259.81 126.95C259.75 125.38 258.64 124.69 257.18 124.69C255.88 124.69 254.59 125.33 254.59 126.78C254.59 128.09 255.74 128.42 256.88 128.67C258.02 128.92 259.16 129.09 259.16 130.07C259.16 131.1 258.21 131.37 257.35 131.37C256.27 131.37 255.27 130.85 255.27 129.65H254.37C254.37 131.39 255.72 132.17 257.32 132.17C258.62 132.17 260.11 131.56 260.11 130.04C260.11 128.64 258.97 128.24 257.83 127.98C256.68 127.72 255.54 127.59 255.54 126.71C255.54 125.78 256.34 125.49 257.14 125.49C258.12 125.49 258.8 125.93 258.91 126.95H259.81ZM265.314 129.37C265.314 130.38 264.924 131.37 263.764 131.37C262.594 131.37 262.134 130.43 262.134 129.41C262.134 128.44 262.574 127.46 263.714 127.46C264.814 127.46 265.314 128.4 265.314 129.37ZM261.314 133.98H262.164V131.31H262.184C262.564 131.92 263.324 132.12 263.854 132.12C265.434 132.12 266.214 130.89 266.214 129.43C266.214 127.97 265.424 126.71 263.834 126.71C263.124 126.71 262.464 126.96 262.184 127.53H262.164V126.83H261.314V133.98ZM267.342 132H268.192V129.7C268.192 128.39 268.692 127.61 270.062 127.61V126.71C269.142 126.68 268.572 127.09 268.162 127.92H268.142V126.83H267.342V132ZM274.256 130.36C274.106 131.03 273.616 131.37 272.916 131.37C271.786 131.37 271.276 130.57 271.306 129.67H275.176C275.226 128.42 274.666 126.71 272.836 126.71C271.426 126.71 270.406 127.85 270.406 129.4C270.456 130.98 271.236 132.12 272.886 132.12C274.046 132.12 274.866 131.5 275.096 130.36H274.256ZM271.306 128.92C271.366 128.13 271.896 127.46 272.786 127.46C273.626 127.46 274.236 128.11 274.276 128.92H271.306ZM279.417 130.2C279.417 130.67 278.957 131.37 277.837 131.37C277.317 131.37 276.837 131.17 276.837 130.61C276.837 129.98 277.317 129.78 277.877 129.68C278.447 129.58 279.087 129.57 279.417 129.33V130.2ZM280.797 131.32C280.687 131.36 280.607 131.37 280.537 131.37C280.267 131.37 280.267 131.19 280.267 130.79V128.13C280.267 126.92 279.257 126.71 278.327 126.71C277.177 126.71 276.187 127.16 276.137 128.44H276.987C277.027 127.68 277.557 127.46 278.277 127.46C278.817 127.46 279.427 127.58 279.427 128.32C279.427 128.96 278.627 128.9 277.687 129.08C276.807 129.25 275.937 129.5 275.937 130.67C275.937 131.7 276.707 132.12 277.647 132.12C278.367 132.12 278.997 131.87 279.467 131.32C279.467 131.88 279.747 132.12 280.187 132.12C280.457 132.12 280.647 132.07 280.797 131.98V131.32ZM286.369 124.86H285.519V127.52H285.499C285.119 126.91 284.359 126.71 283.829 126.71C282.249 126.71 281.469 127.94 281.469 129.4C281.469 130.86 282.259 132.12 283.849 132.12C284.559 132.12 285.219 131.87 285.499 131.3H285.519V132H286.369V124.86ZM282.369 129.46C282.369 128.45 282.759 127.46 283.919 127.46C285.089 127.46 285.549 128.4 285.549 129.42C285.549 130.39 285.109 131.37 283.969 131.37C282.869 131.37 282.369 130.43 282.369 129.46ZM288.026 132H289.136V130.89H288.026V132ZM289.136 126.83H288.026V127.94H289.136V126.83ZM293.7 124.91H293.05C292.86 125.98 291.98 126.24 291.01 126.24V126.92H292.85V132H293.7V124.91ZM254.38 140.43C254.38 142.37 255.53 144.17 257.8 144.17C260.07 144.17 261.22 142.37 261.22 140.43C261.22 138.49 260.07 136.69 257.8 136.69C255.53 136.69 254.38 138.49 254.38 140.43ZM255.33 140.43C255.33 138.99 256.06 137.49 257.8 137.49C259.54 137.49 260.27 138.99 260.27 140.43C260.27 141.87 259.54 143.37 257.8 143.37C256.06 143.37 255.33 141.87 255.33 140.43ZM266.428 141.37C266.428 142.38 266.038 143.37 264.878 143.37C263.708 143.37 263.248 142.43 263.248 141.41C263.248 140.44 263.688 139.46 264.828 139.46C265.928 139.46 266.428 140.4 266.428 141.37ZM262.428 145.98H263.278V143.31H263.298C263.678 143.92 264.438 144.12 264.968 144.12C266.548 144.12 267.328 142.89 267.328 141.43C267.328 139.97 266.538 138.71 264.948 138.71C264.238 138.71 263.578 138.96 263.298 139.53H263.278V138.83H262.428V145.98ZM271.685 142.2C271.685 142.67 271.225 143.37 270.105 143.37C269.585 143.37 269.105 143.17 269.105 142.61C269.105 141.98 269.585 141.78 270.145 141.68C270.715 141.58 271.355 141.57 271.685 141.33V142.2ZM273.065 143.32C272.955 143.36 272.875 143.37 272.805 143.37C272.535 143.37 272.535 143.19 272.535 142.79V140.13C272.535 138.92 271.525 138.71 270.595 138.71C269.445 138.71 268.455 139.16 268.405 140.44H269.255C269.295 139.68 269.825 139.46 270.545 139.46C271.085 139.46 271.695 139.58 271.695 140.32C271.695 140.96 270.895 140.9 269.955 141.08C269.075 141.25 268.205 141.5 268.205 142.67C268.205 143.7 268.975 144.12 269.915 144.12C270.635 144.12 271.265 143.87 271.735 143.32C271.735 143.88 272.015 144.12 272.455 144.12C272.725 144.12 272.915 144.07 273.065 143.98V143.32ZM278.406 140.49C278.286 139.26 277.346 138.71 276.176 138.71C274.536 138.71 273.736 139.93 273.736 141.48C273.736 143.02 274.576 144.12 276.156 144.12C277.456 144.12 278.246 143.37 278.436 142.11H277.566C277.456 142.89 276.966 143.37 276.146 143.37C275.066 143.37 274.636 142.43 274.636 141.48C274.636 140.43 275.016 139.46 276.246 139.46C276.946 139.46 277.396 139.84 277.526 140.49H278.406ZM279.598 144H280.448V138.83H279.598V144ZM280.448 136.86H279.598V137.9H280.448V136.86ZM283.104 137.28H282.254V138.83H281.374V139.58H282.254V142.87C282.254 143.82 282.604 144 283.484 144H284.134V143.25H283.744C283.214 143.25 283.104 143.18 283.104 142.79V139.58H284.134V138.83H283.104V137.28ZM289.519 138.83H288.619L287.169 143.06H287.149L285.639 138.83H284.679L286.729 143.97L286.379 144.85C286.219 145.15 286.029 145.32 285.679 145.32C285.509 145.32 285.339 145.25 285.179 145.2V145.98C285.369 146.05 285.569 146.07 285.769 146.07C286.529 146.07 286.879 145.7 287.269 144.69L289.519 138.83ZM290.589 144H291.699V142.89H290.589V144ZM291.699 138.83H290.589V139.94H291.699V138.83ZM293.992 139.42C293.962 138.57 294.382 137.66 295.372 137.66C296.122 137.66 296.742 138.17 296.742 138.94C296.742 139.92 296.132 140.36 294.932 141.1C293.932 141.72 293.082 142.32 292.942 144H297.572V143.25H293.932C294.102 142.37 295.032 141.92 295.922 141.38C296.802 140.83 297.642 140.2 297.642 138.95C297.642 137.63 296.662 136.91 295.422 136.91C293.922 136.91 293.072 137.98 293.142 139.42H293.992ZM303.119 137.03H299.619L298.959 140.71L299.689 140.75C300.019 140.35 300.469 140.08 301.009 140.08C301.959 140.08 302.609 140.75 302.609 141.69C302.609 142.82 301.919 143.37 301.109 143.37C300.259 143.37 299.669 142.82 299.619 142.09H298.769C298.799 143.37 299.799 144.12 301.029 144.12C302.679 144.12 303.509 142.96 303.509 141.76C303.509 140.14 302.479 139.33 301.219 139.33C300.739 139.33 300.209 139.49 299.899 139.84L299.879 139.82L300.259 137.78H303.119V137.03Z" fill="#1D1D1D"/>
<g filter="url(#filter2_dd_10993_81688)">
<rect x="334" y="20" width="110" height="46" rx="2" fill="#F4F4F4"/>
</g>
<path d="M334.78 84H339.51V83.2H335.73V76.86H334.78V84ZM343.927 82.36C343.777 83.03 343.287 83.37 342.587 83.37C341.457 83.37 340.947 82.57 340.977 81.67H344.847C344.897 80.42 344.337 78.71 342.507 78.71C341.097 78.71 340.077 79.85 340.077 81.4C340.127 82.98 340.907 84.12 342.557 84.12C343.717 84.12 344.537 83.5 344.767 82.36H343.927ZM340.977 80.92C341.037 80.13 341.567 79.46 342.457 79.46C343.297 79.46 343.907 80.11 343.947 80.92H340.977ZM350.108 78.83H349.218L347.808 83.14H347.788L346.338 78.83H345.388L347.308 84H348.218L350.108 78.83ZM354.618 82.36C354.468 83.03 353.978 83.37 353.278 83.37C352.148 83.37 351.638 82.57 351.668 81.67H355.538C355.588 80.42 355.028 78.71 353.198 78.71C351.788 78.71 350.768 79.85 350.768 81.4C350.818 82.98 351.598 84.12 353.248 84.12C354.408 84.12 355.228 83.5 355.458 82.36H354.618ZM351.668 80.92C351.728 80.13 352.258 79.46 353.148 79.46C353.988 79.46 354.598 80.11 354.638 80.92H351.668ZM356.629 84H357.479V76.86H356.629V84ZM364.819 76.91H364.169C363.979 77.98 363.099 78.24 362.129 78.24V78.92H363.969V84H364.819V76.91ZM333.99 96H335.06L337.04 93.05L338.96 96H340.12L337.61 92.33L339.97 88.86H338.91L337.05 91.65L335.27 88.86H334.13L336.48 92.33L333.99 96ZM341.103 96H342.213V94.89H341.103V96ZM342.213 90.83H341.103V91.94H342.213V90.83ZM343.636 92.52C343.636 94.08 343.776 96.12 345.996 96.12C348.216 96.12 348.356 94.08 348.356 92.52C348.356 90.95 348.216 88.91 345.996 88.91C343.776 88.91 343.636 90.95 343.636 92.52ZM344.536 92.51C344.536 91.46 344.546 89.66 345.996 89.66C347.446 89.66 347.456 91.46 347.456 92.51C347.456 93.57 347.446 95.37 345.996 95.37C344.546 95.37 344.536 93.57 344.536 92.51ZM340.46 100.86H339.38L337.29 104.26L335.15 100.86H334.02L336.78 105.08V108H337.73V105.08L340.46 100.86ZM340.556 108H341.666V106.89H340.556V108ZM341.666 102.83H340.556V103.94H341.666V102.83ZM343.96 103.42C343.93 102.57 344.35 101.66 345.34 101.66C346.09 101.66 346.71 102.17 346.71 102.94C346.71 103.92 346.1 104.36 344.9 105.1C343.9 105.72 343.05 106.32 342.91 108H347.54V107.25H343.9C344.07 106.37 345 105.92 345.89 105.38C346.77 104.83 347.61 104.2 347.61 102.95C347.61 101.63 346.63 100.91 345.39 100.91C343.89 100.91 343.04 101.98 343.11 103.42H343.96ZM335.73 116.73H337.9C338.7 116.73 339.45 116.99 339.45 117.92C339.45 118.7 338.93 119.2 338.11 119.2H335.73V116.73ZM334.78 120H338.23C339.65 120 340.4 119 340.4 117.95C340.4 117.07 339.92 116.41 339.04 116.23V116.21C339.7 115.94 340.1 115.37 340.1 114.61C340.1 113.91 339.73 113.4 339.26 113.12C338.83 112.86 338 112.86 337.37 112.86H334.78V120ZM335.73 113.66H337.63C338.45 113.66 339.15 113.8 339.15 114.79C339.15 115.54 338.71 115.93 337.63 115.93H335.73V113.66ZM341.696 120H342.546V112.86H341.696V120ZM348.302 114.83H347.452V117.75C347.452 118.68 346.952 119.37 345.922 119.37C345.272 119.37 344.872 118.96 344.872 118.33V114.83H344.022V118.23C344.022 119.34 344.442 120.12 345.802 120.12C346.542 120.12 347.122 119.82 347.482 119.18H347.502V120H348.302V114.83ZM349.709 120H350.559V117.7C350.559 116.39 351.059 115.61 352.429 115.61V114.71C351.509 114.68 350.939 115.09 350.529 115.92H350.509V114.83H349.709V120ZM353.419 120H354.529V118.89H353.419V120ZM354.529 114.83H353.419V115.94H354.529V114.83ZM357.712 116.67C357.872 116.65 358.052 116.64 358.222 116.64C359.062 116.64 359.732 117.11 359.732 118C359.732 118.86 359.022 119.37 358.192 119.37C357.222 119.37 356.712 118.73 356.682 117.81H355.832C355.802 119.27 356.752 120.12 358.192 120.12C359.522 120.12 360.632 119.38 360.632 117.96C360.632 117.11 360.212 116.43 359.352 116.24V116.22C359.892 115.97 360.332 115.43 360.332 114.81C360.332 113.5 359.402 112.91 358.172 112.91C356.752 112.91 356.032 113.85 355.982 115.2H356.832C356.842 114.37 357.242 113.66 358.172 113.66C358.892 113.66 359.432 114.06 359.432 114.8C359.432 115.57 358.802 115.96 358.082 115.96C357.962 115.96 357.842 115.96 357.712 115.95V116.67ZM339.81 126.95C339.75 125.38 338.64 124.69 337.18 124.69C335.88 124.69 334.59 125.33 334.59 126.78C334.59 128.09 335.74 128.42 336.88 128.67C338.02 128.92 339.16 129.09 339.16 130.07C339.16 131.1 338.21 131.37 337.35 131.37C336.27 131.37 335.27 130.85 335.27 129.65H334.37C334.37 131.39 335.72 132.17 337.32 132.17C338.62 132.17 340.11 131.56 340.11 130.04C340.11 128.64 338.97 128.24 337.83 127.98C336.68 127.72 335.54 127.59 335.54 126.71C335.54 125.78 336.34 125.49 337.14 125.49C338.12 125.49 338.8 125.93 338.91 126.95H339.81ZM345.314 129.37C345.314 130.38 344.924 131.37 343.764 131.37C342.594 131.37 342.134 130.43 342.134 129.41C342.134 128.44 342.574 127.46 343.714 127.46C344.814 127.46 345.314 128.4 345.314 129.37ZM341.314 133.98H342.164V131.31H342.184C342.564 131.92 343.324 132.12 343.854 132.12C345.434 132.12 346.214 130.89 346.214 129.43C346.214 127.97 345.424 126.71 343.834 126.71C343.124 126.71 342.464 126.96 342.184 127.53H342.164V126.83H341.314V133.98ZM347.342 132H348.192V129.7C348.192 128.39 348.692 127.61 350.062 127.61V126.71C349.142 126.68 348.572 127.09 348.162 127.92H348.142V126.83H347.342V132ZM354.256 130.36C354.106 131.03 353.616 131.37 352.916 131.37C351.786 131.37 351.276 130.57 351.306 129.67H355.176C355.226 128.42 354.666 126.71 352.836 126.71C351.426 126.71 350.406 127.85 350.406 129.4C350.456 130.98 351.236 132.12 352.886 132.12C354.046 132.12 354.866 131.5 355.096 130.36H354.256ZM351.306 128.92C351.366 128.13 351.896 127.46 352.786 127.46C353.626 127.46 354.236 128.11 354.276 128.92H351.306ZM359.417 130.2C359.417 130.67 358.957 131.37 357.837 131.37C357.317 131.37 356.837 131.17 356.837 130.61C356.837 129.98 357.317 129.78 357.877 129.68C358.447 129.58 359.087 129.57 359.417 129.33V130.2ZM360.797 131.32C360.687 131.36 360.607 131.37 360.537 131.37C360.267 131.37 360.267 131.19 360.267 130.79V128.13C360.267 126.92 359.257 126.71 358.327 126.71C357.177 126.71 356.187 127.16 356.137 128.44H356.987C357.027 127.68 357.557 127.46 358.277 127.46C358.817 127.46 359.427 127.58 359.427 128.32C359.427 128.96 358.627 128.9 357.687 129.08C356.807 129.25 355.937 129.5 355.937 130.67C355.937 131.7 356.707 132.12 357.647 132.12C358.367 132.12 358.997 131.87 359.467 131.32C359.467 131.88 359.747 132.12 360.187 132.12C360.457 132.12 360.647 132.07 360.797 131.98V131.32ZM366.369 124.86H365.519V127.52H365.499C365.119 126.91 364.359 126.71 363.829 126.71C362.249 126.71 361.469 127.94 361.469 129.4C361.469 130.86 362.259 132.12 363.849 132.12C364.559 132.12 365.219 131.87 365.499 131.3H365.519V132H366.369V124.86ZM362.369 129.46C362.369 128.45 362.759 127.46 363.919 127.46C365.089 127.46 365.549 128.4 365.549 129.42C365.549 130.39 365.109 131.37 363.969 131.37C362.869 131.37 362.369 130.43 362.369 129.46ZM368.026 132H369.136V130.89H368.026V132ZM369.136 126.83H368.026V127.94H369.136V126.83ZM370.56 128.52C370.56 130.08 370.7 132.12 372.92 132.12C375.14 132.12 375.28 130.08 375.28 128.52C375.28 126.95 375.14 124.91 372.92 124.91C370.7 124.91 370.56 126.95 370.56 128.52ZM371.46 128.51C371.46 127.46 371.47 125.66 372.92 125.66C374.37 125.66 374.38 127.46 374.38 128.51C374.38 129.57 374.37 131.37 372.92 131.37C371.47 131.37 371.46 129.57 371.46 128.51ZM334.38 140.43C334.38 142.37 335.53 144.17 337.8 144.17C340.07 144.17 341.22 142.37 341.22 140.43C341.22 138.49 340.07 136.69 337.8 136.69C335.53 136.69 334.38 138.49 334.38 140.43ZM335.33 140.43C335.33 138.99 336.06 137.49 337.8 137.49C339.54 137.49 340.27 138.99 340.27 140.43C340.27 141.87 339.54 143.37 337.8 143.37C336.06 143.37 335.33 141.87 335.33 140.43ZM346.428 141.37C346.428 142.38 346.038 143.37 344.878 143.37C343.708 143.37 343.248 142.43 343.248 141.41C343.248 140.44 343.688 139.46 344.828 139.46C345.928 139.46 346.428 140.4 346.428 141.37ZM342.428 145.98H343.278V143.31H343.298C343.678 143.92 344.438 144.12 344.968 144.12C346.548 144.12 347.328 142.89 347.328 141.43C347.328 139.97 346.538 138.71 344.948 138.71C344.238 138.71 343.578 138.96 343.298 139.53H343.278V138.83H342.428V145.98ZM351.685 142.2C351.685 142.67 351.225 143.37 350.105 143.37C349.585 143.37 349.105 143.17 349.105 142.61C349.105 141.98 349.585 141.78 350.145 141.68C350.715 141.58 351.355 141.57 351.685 141.33V142.2ZM353.065 143.32C352.955 143.36 352.875 143.37 352.805 143.37C352.535 143.37 352.535 143.19 352.535 142.79V140.13C352.535 138.92 351.525 138.71 350.595 138.71C349.445 138.71 348.455 139.16 348.405 140.44H349.255C349.295 139.68 349.825 139.46 350.545 139.46C351.085 139.46 351.695 139.58 351.695 140.32C351.695 140.96 350.895 140.9 349.955 141.08C349.075 141.25 348.205 141.5 348.205 142.67C348.205 143.7 348.975 144.12 349.915 144.12C350.635 144.12 351.265 143.87 351.735 143.32C351.735 143.88 352.015 144.12 352.455 144.12C352.725 144.12 352.915 144.07 353.065 143.98V143.32ZM358.406 140.49C358.286 139.26 357.346 138.71 356.176 138.71C354.536 138.71 353.736 139.93 353.736 141.48C353.736 143.02 354.576 144.12 356.156 144.12C357.456 144.12 358.246 143.37 358.436 142.11H357.566C357.456 142.89 356.966 143.37 356.146 143.37C355.066 143.37 354.636 142.43 354.636 141.48C354.636 140.43 355.016 139.46 356.246 139.46C356.946 139.46 357.396 139.84 357.526 140.49H358.406ZM359.598 144H360.448V138.83H359.598V144ZM360.448 136.86H359.598V137.9H360.448V136.86ZM363.104 137.28H362.254V138.83H361.374V139.58H362.254V142.87C362.254 143.82 362.604 144 363.484 144H364.134V143.25H363.744C363.214 143.25 363.104 143.18 363.104 142.79V139.58H364.134V138.83H363.104V137.28ZM369.519 138.83H368.619L367.169 143.06H367.149L365.639 138.83H364.679L366.729 143.97L366.379 144.85C366.219 145.15 366.029 145.32 365.679 145.32C365.509 145.32 365.339 145.25 365.179 145.2V145.98C365.369 146.05 365.569 146.07 365.769 146.07C366.529 146.07 366.879 145.7 367.269 144.69L369.519 138.83ZM370.589 144H371.699V142.89H370.589V144ZM371.699 138.83H370.589V139.94H371.699V138.83ZM373.992 139.42C373.962 138.57 374.382 137.66 375.372 137.66C376.122 137.66 376.742 138.17 376.742 138.94C376.742 139.92 376.132 140.36 374.932 141.1C373.932 141.72 373.082 142.32 372.942 144H377.572V143.25H373.932C374.102 142.37 375.032 141.92 375.922 141.38C376.802 140.83 377.642 140.2 377.642 138.95C377.642 137.63 376.662 136.91 375.422 136.91C373.922 136.91 373.072 137.98 373.142 139.42H373.992ZM383.119 137.03H379.619L378.959 140.71L379.689 140.75C380.019 140.35 380.469 140.08 381.009 140.08C381.959 140.08 382.609 140.75 382.609 141.69C382.609 142.82 381.919 143.37 381.109 143.37C380.259 143.37 379.669 142.82 379.619 142.09H378.769C378.799 143.37 379.799 144.12 381.029 144.12C382.679 144.12 383.509 142.96 383.509 141.76C383.509 140.14 382.479 139.33 381.219 139.33C380.739 139.33 380.209 139.49 379.899 139.84L379.879 139.82L380.259 137.78H383.119V137.03Z" fill="#1D1D1D"/>
<path d="M394.78 84H399.51V83.2H395.73V76.86H394.78V84ZM403.927 82.36C403.777 83.03 403.287 83.37 402.587 83.37C401.457 83.37 400.947 82.57 400.977 81.67H404.847C404.897 80.42 404.337 78.71 402.507 78.71C401.097 78.71 400.077 79.85 400.077 81.4C400.127 82.98 400.907 84.12 402.557 84.12C403.717 84.12 404.537 83.5 404.767 82.36H403.927ZM400.977 80.92C401.037 80.13 401.567 79.46 402.457 79.46C403.297 79.46 403.907 80.11 403.947 80.92H400.977ZM410.108 78.83H409.218L407.808 83.14H407.788L406.338 78.83H405.388L407.308 84H408.218L410.108 78.83ZM414.618 82.36C414.468 83.03 413.978 83.37 413.278 83.37C412.148 83.37 411.638 82.57 411.668 81.67H415.538C415.588 80.42 415.028 78.71 413.198 78.71C411.788 78.71 410.768 79.85 410.768 81.4C410.818 82.98 411.598 84.12 413.248 84.12C414.408 84.12 415.228 83.5 415.458 82.36H414.618ZM411.668 80.92C411.728 80.13 412.258 79.46 413.148 79.46C413.988 79.46 414.598 80.11 414.638 80.92H411.668ZM416.629 84H417.479V76.86H416.629V84ZM422.549 79.42C422.519 78.57 422.939 77.66 423.929 77.66C424.679 77.66 425.299 78.17 425.299 78.94C425.299 79.92 424.689 80.36 423.489 81.1C422.489 81.72 421.639 82.32 421.499 84H426.129V83.25H422.489C422.659 82.37 423.589 81.92 424.479 81.38C425.359 80.83 426.199 80.2 426.199 78.95C426.199 77.63 425.219 76.91 423.979 76.91C422.479 76.91 421.629 77.98 421.699 79.42H422.549ZM393.99 96H395.06L397.04 93.05L398.96 96H400.12L397.61 92.33L399.97 88.86H398.91L397.05 91.65L395.27 88.86H394.13L396.48 92.33L393.99 96ZM401.103 96H402.213V94.89H401.103V96ZM402.213 90.83H401.103V91.94H402.213V90.83ZM403.636 92.52C403.636 94.08 403.776 96.12 405.996 96.12C408.216 96.12 408.356 94.08 408.356 92.52C408.356 90.95 408.216 88.91 405.996 88.91C403.776 88.91 403.636 90.95 403.636 92.52ZM404.536 92.51C404.536 91.46 404.546 89.66 405.996 89.66C407.446 89.66 407.456 91.46 407.456 92.51C407.456 93.57 407.446 95.37 405.996 95.37C404.546 95.37 404.536 93.57 404.536 92.51ZM400.46 100.86H399.38L397.29 104.26L395.15 100.86H394.02L396.78 105.08V108H397.73V105.08L400.46 100.86ZM400.556 108H401.666V106.89H400.556V108ZM401.666 102.83H400.556V103.94H401.666V102.83ZM406.86 100.91H406.18L402.95 105.52V106.34H406.06V108H406.86V106.34H407.82V105.59H406.86V100.91ZM403.68 105.59L406.04 102.12H406.06V105.59H403.68ZM395.73 116.73H397.9C398.7 116.73 399.45 116.99 399.45 117.92C399.45 118.7 398.93 119.2 398.11 119.2H395.73V116.73ZM394.78 120H398.23C399.65 120 400.4 119 400.4 117.95C400.4 117.07 399.92 116.41 399.04 116.23V116.21C399.7 115.94 400.1 115.37 400.1 114.61C400.1 113.91 399.73 113.4 399.26 113.12C398.83 112.86 398 112.86 397.37 112.86H394.78V120ZM395.73 113.66H397.63C398.45 113.66 399.15 113.8 399.15 114.79C399.15 115.54 398.71 115.93 397.63 115.93H395.73V113.66ZM401.696 120H402.546V112.86H401.696V120ZM408.302 114.83H407.452V117.75C407.452 118.68 406.952 119.37 405.922 119.37C405.272 119.37 404.872 118.96 404.872 118.33V114.83H404.022V118.23C404.022 119.34 404.442 120.12 405.802 120.12C406.542 120.12 407.122 119.82 407.482 119.18H407.502V120H408.302V114.83ZM409.709 120H410.559V117.7C410.559 116.39 411.059 115.61 412.429 115.61V114.71C411.509 114.68 410.939 115.09 410.529 115.92H410.509V114.83H409.709V120ZM413.419 120H414.529V118.89H413.419V120ZM414.529 114.83H413.419V115.94H414.529V114.83ZM418.392 116.19C419.362 116.19 419.822 116.92 419.822 117.8C419.822 118.64 419.312 119.37 418.392 119.37C417.462 119.37 416.922 118.67 416.922 117.79C416.922 116.9 417.442 116.19 418.392 116.19ZM420.522 114.72C420.422 113.57 419.692 112.91 418.522 112.91C416.502 112.91 415.912 114.76 415.912 116.71C415.912 118.2 416.252 120.12 418.352 120.12C420.142 120.12 420.722 118.77 420.722 117.74C420.722 116.43 419.912 115.44 418.552 115.44C417.782 115.44 417.182 115.72 416.782 116.37L416.762 116.35C416.802 115.26 417.032 113.66 418.482 113.66C419.152 113.66 419.592 114.08 419.672 114.72H420.522ZM399.81 126.95C399.75 125.38 398.64 124.69 397.18 124.69C395.88 124.69 394.59 125.33 394.59 126.78C394.59 128.09 395.74 128.42 396.88 128.67C398.02 128.92 399.16 129.09 399.16 130.07C399.16 131.1 398.21 131.37 397.35 131.37C396.27 131.37 395.27 130.85 395.27 129.65H394.37C394.37 131.39 395.72 132.17 397.32 132.17C398.62 132.17 400.11 131.56 400.11 130.04C400.11 128.64 398.97 128.24 397.83 127.98C396.68 127.72 395.54 127.59 395.54 126.71C395.54 125.78 396.34 125.49 397.14 125.49C398.12 125.49 398.8 125.93 398.91 126.95H399.81ZM405.314 129.37C405.314 130.38 404.924 131.37 403.764 131.37C402.594 131.37 402.134 130.43 402.134 129.41C402.134 128.44 402.574 127.46 403.714 127.46C404.814 127.46 405.314 128.4 405.314 129.37ZM401.314 133.98H402.164V131.31H402.184C402.564 131.92 403.324 132.12 403.854 132.12C405.434 132.12 406.214 130.89 406.214 129.43C406.214 127.97 405.424 126.71 403.834 126.71C403.124 126.71 402.464 126.96 402.184 127.53H402.164V126.83H401.314V133.98ZM407.342 132H408.192V129.7C408.192 128.39 408.692 127.61 410.062 127.61V126.71C409.142 126.68 408.572 127.09 408.162 127.92H408.142V126.83H407.342V132ZM414.256 130.36C414.106 131.03 413.616 131.37 412.916 131.37C411.786 131.37 411.276 130.57 411.306 129.67H415.176C415.226 128.42 414.666 126.71 412.836 126.71C411.426 126.71 410.406 127.85 410.406 129.4C410.456 130.98 411.236 132.12 412.886 132.12C414.046 132.12 414.866 131.5 415.096 130.36H414.256ZM411.306 128.92C411.366 128.13 411.896 127.46 412.786 127.46C413.626 127.46 414.236 128.11 414.276 128.92H411.306ZM419.417 130.2C419.417 130.67 418.957 131.37 417.837 131.37C417.317 131.37 416.837 131.17 416.837 130.61C416.837 129.98 417.317 129.78 417.877 129.68C418.447 129.58 419.087 129.57 419.417 129.33V130.2ZM420.797 131.32C420.687 131.36 420.607 131.37 420.537 131.37C420.267 131.37 420.267 131.19 420.267 130.79V128.13C420.267 126.92 419.257 126.71 418.327 126.71C417.177 126.71 416.187 127.16 416.137 128.44H416.987C417.027 127.68 417.557 127.46 418.277 127.46C418.817 127.46 419.427 127.58 419.427 128.32C419.427 128.96 418.627 128.9 417.687 129.08C416.807 129.25 415.937 129.5 415.937 130.67C415.937 131.7 416.707 132.12 417.647 132.12C418.367 132.12 418.997 131.87 419.467 131.32C419.467 131.88 419.747 132.12 420.187 132.12C420.457 132.12 420.647 132.07 420.797 131.98V131.32ZM426.369 124.86H425.519V127.52H425.499C425.119 126.91 424.359 126.71 423.829 126.71C422.249 126.71 421.469 127.94 421.469 129.4C421.469 130.86 422.259 132.12 423.849 132.12C424.559 132.12 425.219 131.87 425.499 131.3H425.519V132H426.369V124.86ZM422.369 129.46C422.369 128.45 422.759 127.46 423.919 127.46C425.089 127.46 425.549 128.4 425.549 129.42C425.549 130.39 425.109 131.37 423.969 131.37C422.869 131.37 422.369 130.43 422.369 129.46ZM428.026 132H429.136V130.89H428.026V132ZM429.136 126.83H428.026V127.94H429.136V126.83ZM431.43 127.42C431.4 126.57 431.82 125.66 432.81 125.66C433.56 125.66 434.18 126.17 434.18 126.94C434.18 127.92 433.57 128.36 432.37 129.1C431.37 129.72 430.52 130.32 430.38 132H435.01V131.25H431.37C431.54 130.37 432.47 129.92 433.36 129.38C434.24 128.83 435.08 128.2 435.08 126.95C435.08 125.63 434.1 124.91 432.86 124.91C431.36 124.91 430.51 125.98 430.58 127.42H431.43ZM394.38 140.43C394.38 142.37 395.53 144.17 397.8 144.17C400.07 144.17 401.22 142.37 401.22 140.43C401.22 138.49 400.07 136.69 397.8 136.69C395.53 136.69 394.38 138.49 394.38 140.43ZM395.33 140.43C395.33 138.99 396.06 137.49 397.8 137.49C399.54 137.49 400.27 138.99 400.27 140.43C400.27 141.87 399.54 143.37 397.8 143.37C396.06 143.37 395.33 141.87 395.33 140.43ZM406.428 141.37C406.428 142.38 406.038 143.37 404.878 143.37C403.708 143.37 403.248 142.43 403.248 141.41C403.248 140.44 403.688 139.46 404.828 139.46C405.928 139.46 406.428 140.4 406.428 141.37ZM402.428 145.98H403.278V143.31H403.298C403.678 143.92 404.438 144.12 404.968 144.12C406.548 144.12 407.328 142.89 407.328 141.43C407.328 139.97 406.538 138.71 404.948 138.71C404.238 138.71 403.578 138.96 403.298 139.53H403.278V138.83H402.428V145.98ZM411.685 142.2C411.685 142.67 411.225 143.37 410.105 143.37C409.585 143.37 409.105 143.17 409.105 142.61C409.105 141.98 409.585 141.78 410.145 141.68C410.715 141.58 411.355 141.57 411.685 141.33V142.2ZM413.065 143.32C412.955 143.36 412.875 143.37 412.805 143.37C412.535 143.37 412.535 143.19 412.535 142.79V140.13C412.535 138.92 411.525 138.71 410.595 138.71C409.445 138.71 408.455 139.16 408.405 140.44H409.255C409.295 139.68 409.825 139.46 410.545 139.46C411.085 139.46 411.695 139.58 411.695 140.32C411.695 140.96 410.895 140.9 409.955 141.08C409.075 141.25 408.205 141.5 408.205 142.67C408.205 143.7 408.975 144.12 409.915 144.12C410.635 144.12 411.265 143.87 411.735 143.32C411.735 143.88 412.015 144.12 412.455 144.12C412.725 144.12 412.915 144.07 413.065 143.98V143.32ZM418.406 140.49C418.286 139.26 417.346 138.71 416.176 138.71C414.536 138.71 413.736 139.93 413.736 141.48C413.736 143.02 414.576 144.12 416.156 144.12C417.456 144.12 418.246 143.37 418.436 142.11H417.566C417.456 142.89 416.966 143.37 416.146 143.37C415.066 143.37 414.636 142.43 414.636 141.48C414.636 140.43 415.016 139.46 416.246 139.46C416.946 139.46 417.396 139.84 417.526 140.49H418.406ZM419.598 144H420.448V138.83H419.598V144ZM420.448 136.86H419.598V137.9H420.448V136.86ZM423.104 137.28H422.254V138.83H421.374V139.58H422.254V142.87C422.254 143.82 422.604 144 423.484 144H424.134V143.25H423.744C423.214 143.25 423.104 143.18 423.104 142.79V139.58H424.134V138.83H423.104V137.28ZM429.519 138.83H428.619L427.169 143.06H427.149L425.639 138.83H424.679L426.729 143.97L426.379 144.85C426.219 145.15 426.029 145.32 425.679 145.32C425.509 145.32 425.339 145.25 425.179 145.2V145.98C425.369 146.05 425.569 146.07 425.769 146.07C426.529 146.07 426.879 145.7 427.269 144.69L429.519 138.83ZM430.589 144H431.699V142.89H430.589V144ZM431.699 138.83H430.589V139.94H431.699V138.83ZM433.992 139.42C433.962 138.57 434.382 137.66 435.372 137.66C436.122 137.66 436.742 138.17 436.742 138.94C436.742 139.92 436.132 140.36 434.932 141.1C433.932 141.72 433.082 142.32 432.942 144H437.572V143.25H433.932C434.102 142.37 435.032 141.92 435.922 141.38C436.802 140.83 437.642 140.2 437.642 138.95C437.642 137.63 436.662 136.91 435.422 136.91C433.922 136.91 433.072 137.98 433.142 139.42H433.992ZM443.119 137.03H439.619L438.959 140.71L439.689 140.75C440.019 140.35 440.469 140.08 441.009 140.08C441.959 140.08 442.609 140.75 442.609 141.69C442.609 142.82 441.919 143.37 441.109 143.37C440.259 143.37 439.669 142.82 439.619 142.09H438.769C438.799 143.37 439.799 144.12 441.029 144.12C442.679 144.12 443.509 142.96 443.509 141.76C443.509 140.14 442.479 139.33 441.219 139.33C440.739 139.33 440.209 139.49 439.899 139.84L439.879 139.82L440.259 137.78H443.119V137.03Z" fill="#1D1D1D"/>
<g filter="url(#filter3_dd_10993_81688)">
<rect x="474" y="20" width="110" height="46" rx="2" fill="#F4F4F4"/>
</g>
<path d="M474.78 84H479.51V83.2H475.73V76.86H474.78V84ZM483.927 82.36C483.777 83.03 483.287 83.37 482.587 83.37C481.457 83.37 480.947 82.57 480.977 81.67H484.847C484.897 80.42 484.337 78.71 482.507 78.71C481.097 78.71 480.077 79.85 480.077 81.4C480.127 82.98 480.907 84.12 482.557 84.12C483.717 84.12 484.537 83.5 484.767 82.36H483.927ZM480.977 80.92C481.037 80.13 481.567 79.46 482.457 79.46C483.297 79.46 483.907 80.11 483.947 80.92H480.977ZM490.108 78.83H489.218L487.808 83.14H487.788L486.338 78.83H485.388L487.308 84H488.218L490.108 78.83ZM494.618 82.36C494.468 83.03 493.978 83.37 493.278 83.37C492.148 83.37 491.638 82.57 491.668 81.67H495.538C495.588 80.42 495.028 78.71 493.198 78.71C491.788 78.71 490.768 79.85 490.768 81.4C490.818 82.98 491.598 84.12 493.248 84.12C494.408 84.12 495.228 83.5 495.458 82.36H494.618ZM491.668 80.92C491.728 80.13 492.258 79.46 493.148 79.46C493.988 79.46 494.598 80.11 494.638 80.92H491.668ZM496.629 84H497.479V76.86H496.629V84ZM504.819 76.91H504.169C503.979 77.98 503.099 78.24 502.129 78.24V78.92H503.969V84H504.819V76.91ZM473.99 96H475.06L477.04 93.05L478.96 96H480.12L477.61 92.33L479.97 88.86H478.91L477.05 91.65L475.27 88.86H474.13L476.48 92.33L473.99 96ZM481.103 96H482.213V94.89H481.103V96ZM482.213 90.83H481.103V91.94H482.213V90.83ZM483.636 92.52C483.636 94.08 483.776 96.12 485.996 96.12C488.216 96.12 488.356 94.08 488.356 92.52C488.356 90.95 488.216 88.91 485.996 88.91C483.776 88.91 483.636 90.95 483.636 92.52ZM484.536 92.51C484.536 91.46 484.546 89.66 485.996 89.66C487.446 89.66 487.456 91.46 487.456 92.51C487.456 93.57 487.446 95.37 485.996 95.37C484.546 95.37 484.536 93.57 484.536 92.51ZM480.46 100.86H479.38L477.29 104.26L475.15 100.86H474.02L476.78 105.08V108H477.73V105.08L480.46 100.86ZM480.556 108H481.666V106.89H480.556V108ZM481.666 102.83H480.556V103.94H481.666V102.83ZM484.85 104.67C485.01 104.65 485.19 104.64 485.36 104.64C486.2 104.64 486.87 105.11 486.87 106C486.87 106.86 486.16 107.37 485.33 107.37C484.36 107.37 483.85 106.73 483.82 105.81H482.97C482.94 107.27 483.89 108.12 485.33 108.12C486.66 108.12 487.77 107.38 487.77 105.96C487.77 105.11 487.35 104.43 486.49 104.24V104.22C487.03 103.97 487.47 103.43 487.47 102.81C487.47 101.5 486.54 100.91 485.31 100.91C483.89 100.91 483.17 101.85 483.12 103.2H483.97C483.98 102.37 484.38 101.66 485.31 101.66C486.03 101.66 486.57 102.06 486.57 102.8C486.57 103.57 485.94 103.96 485.22 103.96C485.1 103.96 484.98 103.96 484.85 103.95V104.67ZM475.73 116.73H477.9C478.7 116.73 479.45 116.99 479.45 117.92C479.45 118.7 478.93 119.2 478.11 119.2H475.73V116.73ZM474.78 120H478.23C479.65 120 480.4 119 480.4 117.95C480.4 117.07 479.92 116.41 479.04 116.23V116.21C479.7 115.94 480.1 115.37 480.1 114.61C480.1 113.91 479.73 113.4 479.26 113.12C478.83 112.86 478 112.86 477.37 112.86H474.78V120ZM475.73 113.66H477.63C478.45 113.66 479.15 113.8 479.15 114.79C479.15 115.54 478.71 115.93 477.63 115.93H475.73V113.66ZM481.696 120H482.546V112.86H481.696V120ZM488.302 114.83H487.452V117.75C487.452 118.68 486.952 119.37 485.922 119.37C485.272 119.37 484.872 118.96 484.872 118.33V114.83H484.022V118.23C484.022 119.34 484.442 120.12 485.802 120.12C486.542 120.12 487.122 119.82 487.482 119.18H487.502V120H488.302V114.83ZM489.709 120H490.559V117.7C490.559 116.39 491.059 115.61 492.429 115.61V114.71C491.509 114.68 490.939 115.09 490.529 115.92H490.509V114.83H489.709V120ZM493.419 120H494.529V118.89H493.419V120ZM494.529 114.83H493.419V115.94H494.529V114.83ZM497.712 116.67C497.872 116.65 498.052 116.64 498.222 116.64C499.062 116.64 499.732 117.11 499.732 118C499.732 118.86 499.022 119.37 498.192 119.37C497.222 119.37 496.712 118.73 496.682 117.81H495.832C495.802 119.27 496.752 120.12 498.192 120.12C499.522 120.12 500.632 119.38 500.632 117.96C500.632 117.11 500.212 116.43 499.352 116.24V116.22C499.892 115.97 500.332 115.43 500.332 114.81C500.332 113.5 499.402 112.91 498.172 112.91C496.752 112.91 496.032 113.85 495.982 115.2H496.832C496.842 114.37 497.242 113.66 498.172 113.66C498.892 113.66 499.432 114.06 499.432 114.8C499.432 115.57 498.802 115.96 498.082 115.96C497.962 115.96 497.842 115.96 497.712 115.95V116.67ZM479.81 126.95C479.75 125.38 478.64 124.69 477.18 124.69C475.88 124.69 474.59 125.33 474.59 126.78C474.59 128.09 475.74 128.42 476.88 128.67C478.02 128.92 479.16 129.09 479.16 130.07C479.16 131.1 478.21 131.37 477.35 131.37C476.27 131.37 475.27 130.85 475.27 129.65H474.37C474.37 131.39 475.72 132.17 477.32 132.17C478.62 132.17 480.11 131.56 480.11 130.04C480.11 128.64 478.97 128.24 477.83 127.98C476.68 127.72 475.54 127.59 475.54 126.71C475.54 125.78 476.34 125.49 477.14 125.49C478.12 125.49 478.8 125.93 478.91 126.95H479.81ZM485.314 129.37C485.314 130.38 484.924 131.37 483.764 131.37C482.594 131.37 482.134 130.43 482.134 129.41C482.134 128.44 482.574 127.46 483.714 127.46C484.814 127.46 485.314 128.4 485.314 129.37ZM481.314 133.98H482.164V131.31H482.184C482.564 131.92 483.324 132.12 483.854 132.12C485.434 132.12 486.214 130.89 486.214 129.43C486.214 127.97 485.424 126.71 483.834 126.71C483.124 126.71 482.464 126.96 482.184 127.53H482.164V126.83H481.314V133.98ZM487.342 132H488.192V129.7C488.192 128.39 488.692 127.61 490.062 127.61V126.71C489.142 126.68 488.572 127.09 488.162 127.92H488.142V126.83H487.342V132ZM494.256 130.36C494.106 131.03 493.616 131.37 492.916 131.37C491.786 131.37 491.276 130.57 491.306 129.67H495.176C495.226 128.42 494.666 126.71 492.836 126.71C491.426 126.71 490.406 127.85 490.406 129.4C490.456 130.98 491.236 132.12 492.886 132.12C494.046 132.12 494.866 131.5 495.096 130.36H494.256ZM491.306 128.92C491.366 128.13 491.896 127.46 492.786 127.46C493.626 127.46 494.236 128.11 494.276 128.92H491.306ZM499.417 130.2C499.417 130.67 498.957 131.37 497.837 131.37C497.317 131.37 496.837 131.17 496.837 130.61C496.837 129.98 497.317 129.78 497.877 129.68C498.447 129.58 499.087 129.57 499.417 129.33V130.2ZM500.797 131.32C500.687 131.36 500.607 131.37 500.537 131.37C500.267 131.37 500.267 131.19 500.267 130.79V128.13C500.267 126.92 499.257 126.71 498.327 126.71C497.177 126.71 496.187 127.16 496.137 128.44H496.987C497.027 127.68 497.557 127.46 498.277 127.46C498.817 127.46 499.427 127.58 499.427 128.32C499.427 128.96 498.627 128.9 497.687 129.08C496.807 129.25 495.937 129.5 495.937 130.67C495.937 131.7 496.707 132.12 497.647 132.12C498.367 132.12 498.997 131.87 499.467 131.32C499.467 131.88 499.747 132.12 500.187 132.12C500.457 132.12 500.647 132.07 500.797 131.98V131.32ZM506.369 124.86H505.519V127.52H505.499C505.119 126.91 504.359 126.71 503.829 126.71C502.249 126.71 501.469 127.94 501.469 129.4C501.469 130.86 502.259 132.12 503.849 132.12C504.559 132.12 505.219 131.87 505.499 131.3H505.519V132H506.369V124.86ZM502.369 129.46C502.369 128.45 502.759 127.46 503.919 127.46C505.089 127.46 505.549 128.4 505.549 129.42C505.549 130.39 505.109 131.37 503.969 131.37C502.869 131.37 502.369 130.43 502.369 129.46ZM508.026 132H509.136V130.89H508.026V132ZM509.136 126.83H508.026V127.94H509.136V126.83ZM510.56 128.52C510.56 130.08 510.7 132.12 512.92 132.12C515.14 132.12 515.28 130.08 515.28 128.52C515.28 126.95 515.14 124.91 512.92 124.91C510.7 124.91 510.56 126.95 510.56 128.52ZM511.46 128.51C511.46 127.46 511.47 125.66 512.92 125.66C514.37 125.66 514.38 127.46 514.38 128.51C514.38 129.57 514.37 131.37 512.92 131.37C511.47 131.37 511.46 129.57 511.46 128.51ZM474.38 140.43C474.38 142.37 475.53 144.17 477.8 144.17C480.07 144.17 481.22 142.37 481.22 140.43C481.22 138.49 480.07 136.69 477.8 136.69C475.53 136.69 474.38 138.49 474.38 140.43ZM475.33 140.43C475.33 138.99 476.06 137.49 477.8 137.49C479.54 137.49 480.27 138.99 480.27 140.43C480.27 141.87 479.54 143.37 477.8 143.37C476.06 143.37 475.33 141.87 475.33 140.43ZM486.428 141.37C486.428 142.38 486.038 143.37 484.878 143.37C483.708 143.37 483.248 142.43 483.248 141.41C483.248 140.44 483.688 139.46 484.828 139.46C485.928 139.46 486.428 140.4 486.428 141.37ZM482.428 145.98H483.278V143.31H483.298C483.678 143.92 484.438 144.12 484.968 144.12C486.548 144.12 487.328 142.89 487.328 141.43C487.328 139.97 486.538 138.71 484.948 138.71C484.238 138.71 483.578 138.96 483.298 139.53H483.278V138.83H482.428V145.98ZM491.685 142.2C491.685 142.67 491.225 143.37 490.105 143.37C489.585 143.37 489.105 143.17 489.105 142.61C489.105 141.98 489.585 141.78 490.145 141.68C490.715 141.58 491.355 141.57 491.685 141.33V142.2ZM493.065 143.32C492.955 143.36 492.875 143.37 492.805 143.37C492.535 143.37 492.535 143.19 492.535 142.79V140.13C492.535 138.92 491.525 138.71 490.595 138.71C489.445 138.71 488.455 139.16 488.405 140.44H489.255C489.295 139.68 489.825 139.46 490.545 139.46C491.085 139.46 491.695 139.58 491.695 140.32C491.695 140.96 490.895 140.9 489.955 141.08C489.075 141.25 488.205 141.5 488.205 142.67C488.205 143.7 488.975 144.12 489.915 144.12C490.635 144.12 491.265 143.87 491.735 143.32C491.735 143.88 492.015 144.12 492.455 144.12C492.725 144.12 492.915 144.07 493.065 143.98V143.32ZM498.406 140.49C498.286 139.26 497.346 138.71 496.176 138.71C494.536 138.71 493.736 139.93 493.736 141.48C493.736 143.02 494.576 144.12 496.156 144.12C497.456 144.12 498.246 143.37 498.436 142.11H497.566C497.456 142.89 496.966 143.37 496.146 143.37C495.066 143.37 494.636 142.43 494.636 141.48C494.636 140.43 495.016 139.46 496.246 139.46C496.946 139.46 497.396 139.84 497.526 140.49H498.406ZM499.598 144H500.448V138.83H499.598V144ZM500.448 136.86H499.598V137.9H500.448V136.86ZM503.104 137.28H502.254V138.83H501.374V139.58H502.254V142.87C502.254 143.82 502.604 144 503.484 144H504.134V143.25H503.744C503.214 143.25 503.104 143.18 503.104 142.79V139.58H504.134V138.83H503.104V137.28ZM509.519 138.83H508.619L507.169 143.06H507.149L505.639 138.83H504.679L506.729 143.97L506.379 144.85C506.219 145.15 506.029 145.32 505.679 145.32C505.509 145.32 505.339 145.25 505.179 145.2V145.98C505.369 146.05 505.569 146.07 505.769 146.07C506.529 146.07 506.879 145.7 507.269 144.69L509.519 138.83ZM510.589 144H511.699V142.89H510.589V144ZM511.699 138.83H510.589V139.94H511.699V138.83ZM513.992 139.42C513.962 138.57 514.382 137.66 515.372 137.66C516.122 137.66 516.742 138.17 516.742 138.94C516.742 139.92 516.132 140.36 514.932 141.1C513.932 141.72 513.082 142.32 512.942 144H517.572V143.25H513.932C514.102 142.37 515.032 141.92 515.922 141.38C516.802 140.83 517.642 140.2 517.642 138.95C517.642 137.63 516.662 136.91 515.422 136.91C513.922 136.91 513.072 137.98 513.142 139.42H513.992ZM523.119 137.03H519.619L518.959 140.71L519.689 140.75C520.019 140.35 520.469 140.08 521.009 140.08C521.959 140.08 522.609 140.75 522.609 141.69C522.609 142.82 521.919 143.37 521.109 143.37C520.259 143.37 519.669 142.82 519.619 142.09H518.769C518.799 143.37 519.799 144.12 521.029 144.12C522.679 144.12 523.509 142.96 523.509 141.76C523.509 140.14 522.479 139.33 521.219 139.33C520.739 139.33 520.209 139.49 519.899 139.84L519.879 139.82L520.259 137.78H523.119V137.03Z" fill="#1D1D1D"/>
<path d="M534.78 84H539.51V83.2H535.73V76.86H534.78V84ZM543.927 82.36C543.777 83.03 543.287 83.37 542.587 83.37C541.457 83.37 540.947 82.57 540.977 81.67H544.847C544.897 80.42 544.337 78.71 542.507 78.71C541.097 78.71 540.077 79.85 540.077 81.4C540.127 82.98 540.907 84.12 542.557 84.12C543.717 84.12 544.537 83.5 544.767 82.36H543.927ZM540.977 80.92C541.037 80.13 541.567 79.46 542.457 79.46C543.297 79.46 543.907 80.11 543.947 80.92H540.977ZM550.108 78.83H549.218L547.808 83.14H547.788L546.338 78.83H545.388L547.308 84H548.218L550.108 78.83ZM554.618 82.36C554.468 83.03 553.978 83.37 553.278 83.37C552.148 83.37 551.638 82.57 551.668 81.67H555.538C555.588 80.42 555.028 78.71 553.198 78.71C551.788 78.71 550.768 79.85 550.768 81.4C550.818 82.98 551.598 84.12 553.248 84.12C554.408 84.12 555.228 83.5 555.458 82.36H554.618ZM551.668 80.92C551.728 80.13 552.258 79.46 553.148 79.46C553.988 79.46 554.598 80.11 554.638 80.92H551.668ZM556.629 84H557.479V76.86H556.629V84ZM562.549 79.42C562.519 78.57 562.939 77.66 563.929 77.66C564.679 77.66 565.299 78.17 565.299 78.94C565.299 79.92 564.689 80.36 563.489 81.1C562.489 81.72 561.639 82.32 561.499 84H566.129V83.25H562.489C562.659 82.37 563.589 81.92 564.479 81.38C565.359 80.83 566.199 80.2 566.199 78.95C566.199 77.63 565.219 76.91 563.979 76.91C562.479 76.91 561.629 77.98 561.699 79.42H562.549ZM533.99 96H535.06L537.04 93.05L538.96 96H540.12L537.61 92.33L539.97 88.86H538.91L537.05 91.65L535.27 88.86H534.13L536.48 92.33L533.99 96ZM541.103 96H542.213V94.89H541.103V96ZM542.213 90.83H541.103V91.94H542.213V90.83ZM543.636 92.52C543.636 94.08 543.776 96.12 545.996 96.12C548.216 96.12 548.356 94.08 548.356 92.52C548.356 90.95 548.216 88.91 545.996 88.91C543.776 88.91 543.636 90.95 543.636 92.52ZM544.536 92.51C544.536 91.46 544.546 89.66 545.996 89.66C547.446 89.66 547.456 91.46 547.456 92.51C547.456 93.57 547.446 95.37 545.996 95.37C544.546 95.37 544.536 93.57 544.536 92.51ZM540.46 100.86H539.38L537.29 104.26L535.15 100.86H534.02L536.78 105.08V108H537.73V105.08L540.46 100.86ZM540.556 108H541.666V106.89H540.556V108ZM541.666 102.83H540.556V103.94H541.666V102.83ZM545.53 104.19C546.5 104.19 546.96 104.92 546.96 105.8C546.96 106.64 546.45 107.37 545.53 107.37C544.6 107.37 544.06 106.67 544.06 105.79C544.06 104.9 544.58 104.19 545.53 104.19ZM547.66 102.72C547.56 101.57 546.83 100.91 545.66 100.91C543.64 100.91 543.05 102.76 543.05 104.71C543.05 106.2 543.39 108.12 545.49 108.12C547.28 108.12 547.86 106.77 547.86 105.74C547.86 104.43 547.05 103.44 545.69 103.44C544.92 103.44 544.32 103.72 543.92 104.37L543.9 104.35C543.94 103.26 544.17 101.66 545.62 101.66C546.29 101.66 546.73 102.08 546.81 102.72H547.66ZM535.73 116.73H537.9C538.7 116.73 539.45 116.99 539.45 117.92C539.45 118.7 538.93 119.2 538.11 119.2H535.73V116.73ZM534.78 120H538.23C539.65 120 540.4 119 540.4 117.95C540.4 117.07 539.92 116.41 539.04 116.23V116.21C539.7 115.94 540.1 115.37 540.1 114.61C540.1 113.91 539.73 113.4 539.26 113.12C538.83 112.86 538 112.86 537.37 112.86H534.78V120ZM535.73 113.66H537.63C538.45 113.66 539.15 113.8 539.15 114.79C539.15 115.54 538.71 115.93 537.63 115.93H535.73V113.66ZM541.696 120H542.546V112.86H541.696V120ZM548.302 114.83H547.452V117.75C547.452 118.68 546.952 119.37 545.922 119.37C545.272 119.37 544.872 118.96 544.872 118.33V114.83H544.022V118.23C544.022 119.34 544.442 120.12 545.802 120.12C546.542 120.12 547.122 119.82 547.482 119.18H547.502V120H548.302V114.83ZM549.709 120H550.559V117.7C550.559 116.39 551.059 115.61 552.429 115.61V114.71C551.509 114.68 550.939 115.09 550.529 115.92H550.509V114.83H549.709V120ZM553.419 120H554.529V118.89H553.419V120ZM554.529 114.83H553.419V115.94H554.529V114.83ZM560.622 113.03H556.032V113.83H559.752C558.262 115.41 557.112 117.6 556.952 120H557.902C558.032 117.78 559.192 115.18 560.622 113.76V113.03ZM539.81 126.95C539.75 125.38 538.64 124.69 537.18 124.69C535.88 124.69 534.59 125.33 534.59 126.78C534.59 128.09 535.74 128.42 536.88 128.67C538.02 128.92 539.16 129.09 539.16 130.07C539.16 131.1 538.21 131.37 537.35 131.37C536.27 131.37 535.27 130.85 535.27 129.65H534.37C534.37 131.39 535.72 132.17 537.32 132.17C538.62 132.17 540.11 131.56 540.11 130.04C540.11 128.64 538.97 128.24 537.83 127.98C536.68 127.72 535.54 127.59 535.54 126.71C535.54 125.78 536.34 125.49 537.14 125.49C538.12 125.49 538.8 125.93 538.91 126.95H539.81ZM545.314 129.37C545.314 130.38 544.924 131.37 543.764 131.37C542.594 131.37 542.134 130.43 542.134 129.41C542.134 128.44 542.574 127.46 543.714 127.46C544.814 127.46 545.314 128.4 545.314 129.37ZM541.314 133.98H542.164V131.31H542.184C542.564 131.92 543.324 132.12 543.854 132.12C545.434 132.12 546.214 130.89 546.214 129.43C546.214 127.97 545.424 126.71 543.834 126.71C543.124 126.71 542.464 126.96 542.184 127.53H542.164V126.83H541.314V133.98ZM547.342 132H548.192V129.7C548.192 128.39 548.692 127.61 550.062 127.61V126.71C549.142 126.68 548.572 127.09 548.162 127.92H548.142V126.83H547.342V132ZM554.256 130.36C554.106 131.03 553.616 131.37 552.916 131.37C551.786 131.37 551.276 130.57 551.306 129.67H555.176C555.226 128.42 554.666 126.71 552.836 126.71C551.426 126.71 550.406 127.85 550.406 129.4C550.456 130.98 551.236 132.12 552.886 132.12C554.046 132.12 554.866 131.5 555.096 130.36H554.256ZM551.306 128.92C551.366 128.13 551.896 127.46 552.786 127.46C553.626 127.46 554.236 128.11 554.276 128.92H551.306ZM559.417 130.2C559.417 130.67 558.957 131.37 557.837 131.37C557.317 131.37 556.837 131.17 556.837 130.61C556.837 129.98 557.317 129.78 557.877 129.68C558.447 129.58 559.087 129.57 559.417 129.33V130.2ZM560.797 131.32C560.687 131.36 560.607 131.37 560.537 131.37C560.267 131.37 560.267 131.19 560.267 130.79V128.13C560.267 126.92 559.257 126.71 558.327 126.71C557.177 126.71 556.187 127.16 556.137 128.44H556.987C557.027 127.68 557.557 127.46 558.277 127.46C558.817 127.46 559.427 127.58 559.427 128.32C559.427 128.96 558.627 128.9 557.687 129.08C556.807 129.25 555.937 129.5 555.937 130.67C555.937 131.7 556.707 132.12 557.647 132.12C558.367 132.12 558.997 131.87 559.467 131.32C559.467 131.88 559.747 132.12 560.187 132.12C560.457 132.12 560.647 132.07 560.797 131.98V131.32ZM566.369 124.86H565.519V127.52H565.499C565.119 126.91 564.359 126.71 563.829 126.71C562.249 126.71 561.469 127.94 561.469 129.4C561.469 130.86 562.259 132.12 563.849 132.12C564.559 132.12 565.219 131.87 565.499 131.3H565.519V132H566.369V124.86ZM562.369 129.46C562.369 128.45 562.759 127.46 563.919 127.46C565.089 127.46 565.549 128.4 565.549 129.42C565.549 130.39 565.109 131.37 563.969 131.37C562.869 131.37 562.369 130.43 562.369 129.46ZM568.026 132H569.136V130.89H568.026V132ZM569.136 126.83H568.026V127.94H569.136V126.83ZM572.32 128.67C572.48 128.65 572.66 128.64 572.83 128.64C573.67 128.64 574.34 129.11 574.34 130C574.34 130.86 573.63 131.37 572.8 131.37C571.83 131.37 571.32 130.73 571.29 129.81H570.44C570.41 131.27 571.36 132.12 572.8 132.12C574.13 132.12 575.24 131.38 575.24 129.96C575.24 129.11 574.82 128.43 573.96 128.24V128.22C574.5 127.97 574.94 127.43 574.94 126.81C574.94 125.5 574.01 124.91 572.78 124.91C571.36 124.91 570.64 125.85 570.59 127.2H571.44C571.45 126.37 571.85 125.66 572.78 125.66C573.5 125.66 574.04 126.06 574.04 126.8C574.04 127.57 573.41 127.96 572.69 127.96C572.57 127.96 572.45 127.96 572.32 127.95V128.67ZM534.38 140.43C534.38 142.37 535.53 144.17 537.8 144.17C540.07 144.17 541.22 142.37 541.22 140.43C541.22 138.49 540.07 136.69 537.8 136.69C535.53 136.69 534.38 138.49 534.38 140.43ZM535.33 140.43C535.33 138.99 536.06 137.49 537.8 137.49C539.54 137.49 540.27 138.99 540.27 140.43C540.27 141.87 539.54 143.37 537.8 143.37C536.06 143.37 535.33 141.87 535.33 140.43ZM546.428 141.37C546.428 142.38 546.038 143.37 544.878 143.37C543.708 143.37 543.248 142.43 543.248 141.41C543.248 140.44 543.688 139.46 544.828 139.46C545.928 139.46 546.428 140.4 546.428 141.37ZM542.428 145.98H543.278V143.31H543.298C543.678 143.92 544.438 144.12 544.968 144.12C546.548 144.12 547.328 142.89 547.328 141.43C547.328 139.97 546.538 138.71 544.948 138.71C544.238 138.71 543.578 138.96 543.298 139.53H543.278V138.83H542.428V145.98ZM551.685 142.2C551.685 142.67 551.225 143.37 550.105 143.37C549.585 143.37 549.105 143.17 549.105 142.61C549.105 141.98 549.585 141.78 550.145 141.68C550.715 141.58 551.355 141.57 551.685 141.33V142.2ZM553.065 143.32C552.955 143.36 552.875 143.37 552.805 143.37C552.535 143.37 552.535 143.19 552.535 142.79V140.13C552.535 138.92 551.525 138.71 550.595 138.71C549.445 138.71 548.455 139.16 548.405 140.44H549.255C549.295 139.68 549.825 139.46 550.545 139.46C551.085 139.46 551.695 139.58 551.695 140.32C551.695 140.96 550.895 140.9 549.955 141.08C549.075 141.25 548.205 141.5 548.205 142.67C548.205 143.7 548.975 144.12 549.915 144.12C550.635 144.12 551.265 143.87 551.735 143.32C551.735 143.88 552.015 144.12 552.455 144.12C552.725 144.12 552.915 144.07 553.065 143.98V143.32ZM558.406 140.49C558.286 139.26 557.346 138.71 556.176 138.71C554.536 138.71 553.736 139.93 553.736 141.48C553.736 143.02 554.576 144.12 556.156 144.12C557.456 144.12 558.246 143.37 558.436 142.11H557.566C557.456 142.89 556.966 143.37 556.146 143.37C555.066 143.37 554.636 142.43 554.636 141.48C554.636 140.43 555.016 139.46 556.246 139.46C556.946 139.46 557.396 139.84 557.526 140.49H558.406ZM559.598 144H560.448V138.83H559.598V144ZM560.448 136.86H559.598V137.9H560.448V136.86ZM563.104 137.28H562.254V138.83H561.374V139.58H562.254V142.87C562.254 143.82 562.604 144 563.484 144H564.134V143.25H563.744C563.214 143.25 563.104 143.18 563.104 142.79V139.58H564.134V138.83H563.104V137.28ZM569.519 138.83H568.619L567.169 143.06H567.149L565.639 138.83H564.679L566.729 143.97L566.379 144.85C566.219 145.15 566.029 145.32 565.679 145.32C565.509 145.32 565.339 145.25 565.179 145.2V145.98C565.369 146.05 565.569 146.07 565.769 146.07C566.529 146.07 566.879 145.7 567.269 144.69L569.519 138.83ZM570.589 144H571.699V142.89H570.589V144ZM571.699 138.83H570.589V139.94H571.699V138.83ZM573.992 139.42C573.962 138.57 574.382 137.66 575.372 137.66C576.122 137.66 576.742 138.17 576.742 138.94C576.742 139.92 576.132 140.36 574.932 141.1C573.932 141.72 573.082 142.32 572.942 144H577.572V143.25H573.932C574.102 142.37 575.032 141.92 575.922 141.38C576.802 140.83 577.642 140.2 577.642 138.95C577.642 137.63 576.662 136.91 575.422 136.91C573.922 136.91 573.072 137.98 573.142 139.42H573.992ZM583.119 137.03H579.619L578.959 140.71L579.689 140.75C580.019 140.35 580.469 140.08 581.009 140.08C581.959 140.08 582.609 140.75 582.609 141.69C582.609 142.82 581.919 143.37 581.109 143.37C580.259 143.37 579.669 142.82 579.619 142.09H578.769C578.799 143.37 579.799 144.12 581.029 144.12C582.679 144.12 583.509 142.96 583.509 141.76C583.509 140.14 582.479 139.33 581.219 139.33C580.739 139.33 580.209 139.49 579.899 139.84L579.879 139.82L580.259 137.78H583.119V137.03Z" fill="#1D1D1D"/>
<defs>
<filter id="filter0_dd_10993_81688" x="47" y="18" width="120" height="52" filterUnits="userSpaceOnUse" color-interpolation-filters="sRGB">
<feFlood flood-opacity="0" result="BackgroundImageFix"/>
<feColorMatrix in="SourceAlpha" type="matrix" values="0 0 0 0 0 0 0 0 0 0 0 0 0 0 0 0 0 0 127 0" result="hardAlpha"/>
<feMorphology radius="1" operator="dilate" in="SourceAlpha" result="effect1_dropShadow_10993_81688"/>
<feOffset dy="1"/>
<feGaussianBlur stdDeviation="1"/>
<feColorMatrix type="matrix" values="0 0 0 0 0.156863 0 0 0 0 0.180392 0 0 0 0 0.2 0 0 0 0.15 0"/>
<feBlend mode="normal" in2="BackgroundImageFix" result="effect1_dropShadow_10993_81688"/>
<feColorMatrix in="SourceAlpha" type="matrix" values="0 0 0 0 0 0 0 0 0 0 0 0 0 0 0 0 0 0 127 0" result="hardAlpha"/>
<feOffset dy="1"/>
<feGaussianBlur stdDeviation="0.5"/>
<feComposite in2="hardAlpha" operator="out"/>
<feColorMatrix type="matrix" values="0 0 0 0 0.156863 0 0 0 0 0.180392 0 0 0 0 0.2 0 0 0 0.25 0"/>
<feBlend mode="normal" in2="effect1_dropShadow_10993_81688" result="effect2_dropShadow_10993_81688"/>
<feBlend mode="normal" in="SourceGraphic" in2="effect2_dropShadow_10993_81688" result="shape"/>
</filter>
<filter id="filter1_dd_10993_81688" x="189" y="17" width="120" height="56" filterUnits="userSpaceOnUse" color-interpolation-filters="sRGB">
<feFlood flood-opacity="0" result="BackgroundImageFix"/>
<feColorMatrix in="SourceAlpha" type="matrix" values="0 0 0 0 0 0 0 0 0 0 0 0 0 0 0 0 0 0 127 0" result="hardAlpha"/>
<feMorphology radius="1" operator="dilate" in="SourceAlpha" result="effect1_dropShadow_10993_81688"/>
<feOffset dy="2"/>
<feGaussianBlur stdDeviation="2"/>
<feColorMatrix type="matrix" values="0 0 0 0 0 0 0 0 0 0 0 0 0 0 0 0 0 0 0.15 0"/>
<feBlend mode="normal" in2="BackgroundImageFix" result="effect1_dropShadow_10993_81688"/>
<feColorMatrix in="SourceAlpha" type="matrix" values="0 0 0 0 0 0 0 0 0 0 0 0 0 0 0 0 0 0 127 0" result="hardAlpha"/>
<feOffset dy="2"/>
<feGaussianBlur stdDeviation="1"/>
<feComposite in2="hardAlpha" operator="out"/>
<feColorMatrix type="matrix" values="0 0 0 0 0.156863 0 0 0 0 0.180392 0 0 0 0 0.2 0 0 0 0.25 0"/>
<feBlend mode="normal" in2="effect1_dropShadow_10993_81688" result="effect2_dropShadow_10993_81688"/>
<feBlend mode="normal" in="SourceGraphic" in2="effect2_dropShadow_10993_81688" result="shape"/>
</filter>
<filter id="filter2_dd_10993_81688" x="326" y="16" width="126" height="62" filterUnits="userSpaceOnUse" color-interpolation-filters="sRGB">
<feFlood flood-opacity="0" result="BackgroundImageFix"/>
<feColorMatrix in="SourceAlpha" type="matrix" values="0 0 0 0 0 0 0 0 0 0 0 0 0 0 0 0 0 0 127 0" result="hardAlpha"/>
<feMorphology radius="2" operator="dilate" in="SourceAlpha" result="effect1_dropShadow_10993_81688"/>
<feOffset dy="4"/>
<feGaussianBlur stdDeviation="3"/>
<feColorMatrix type="matrix" values="0 0 0 0 0 0 0 0 0 0 0 0 0 0 0 0 0 0 0.15 0"/>
<feBlend mode="normal" in2="BackgroundImageFix" result="effect1_dropShadow_10993_81688"/>
<feColorMatrix in="SourceAlpha" type="matrix" values="0 0 0 0 0 0 0 0 0 0 0 0 0 0 0 0 0 0 127 0" result="hardAlpha"/>
<feOffset dy="2"/>
<feGaussianBlur stdDeviation="1.5"/>
<feComposite in2="hardAlpha" operator="out"/>
<feColorMatrix type="matrix" values="0 0 0 0 0.156863 0 0 0 0 0.180392 0 0 0 0 0.2 0 0 0 0.25 0"/>
<feBlend mode="normal" in2="effect1_dropShadow_10993_81688" result="effect2_dropShadow_10993_81688"/>
<feBlend mode="normal" in="SourceGraphic" in2="effect2_dropShadow_10993_81688" result="shape"/>
</filter>
<filter id="filter3_dd_10993_81688" x="464" y="16" width="130" height="66" filterUnits="userSpaceOnUse" color-interpolation-filters="sRGB">
<feFlood flood-opacity="0" result="BackgroundImageFix"/>
<feColorMatrix in="SourceAlpha" type="matrix" values="0 0 0 0 0 0 0 0 0 0 0 0 0 0 0 0 0 0 127 0" result="hardAlpha"/>
<feMorphology radius="3" operator="dilate" in="SourceAlpha" result="effect1_dropShadow_10993_81688"/>
<feOffset dy="6"/>
<feGaussianBlur stdDeviation="3.5"/>
<feColorMatrix type="matrix" values="0 0 0 0 0 0 0 0 0 0 0 0 0 0 0 0 0 0 0.15 0"/>
<feBlend mode="normal" in2="BackgroundImageFix" result="effect1_dropShadow_10993_81688"/>
<feColorMatrix in="SourceAlpha" type="matrix" values="0 0 0 0 0 0 0 0 0 0 0 0 0 0 0 0 0 0 127 0" result="hardAlpha"/>
<feOffset dy="3"/>
<feGaussianBlur stdDeviation="1.5"/>
<feComposite in2="hardAlpha" operator="out"/>
<feColorMatrix type="matrix" values="0 0 0 0 0 0 0 0 0 0 0 0 0 0 0 0 0 0 0.25 0"/>
<feBlend mode="normal" in2="effect1_dropShadow_10993_81688" result="effect2_dropShadow_10993_81688"/>
<feBlend mode="normal" in="SourceGraphic" in2="effect2_dropShadow_10993_81688" result="shape"/>
</filter>
</defs>
</svg>
