<svg width="387" height="115" viewBox="0 0 387 115" fill="none" xmlns="http://www.w3.org/2000/svg">
<rect width="352" height="115" fill="#F4F4F4"/>
<path d="M1.104 19V7.576H9.648V9.688H3.616V12.136H9.152V14.088H3.616V16.888H9.776V19H1.104ZM11.463 19V7.576H13.735V19H11.463ZM23.524 15.416H17.556C17.62 16.856 18.324 17.512 19.588 17.512C20.5 17.512 21.236 16.952 21.38 16.44H23.38C22.74 18.392 21.38 19.224 19.508 19.224C16.9 19.224 15.284 17.432 15.284 14.872C15.284 12.392 16.996 10.504 19.508 10.504C22.324 10.504 23.684 12.872 23.524 15.416ZM17.556 13.976H21.252C21.044 12.824 20.548 12.216 19.444 12.216C18.004 12.216 17.588 13.336 17.556 13.976ZM32.4075 10.728L29.6075 19H27.0795L24.2475 10.728H26.6315L28.3755 16.376H28.4075L30.1515 10.728H32.4075ZM38.656 15.8V14.952C38.272 15.288 37.472 15.304 36.768 15.432C36.064 15.576 35.424 15.816 35.424 16.648C35.424 17.496 36.08 17.704 36.816 17.704C38.592 17.704 38.656 16.296 38.656 15.8ZM35.68 13.272H33.408C33.536 11.144 35.44 10.504 37.296 10.504C38.944 10.504 40.928 10.872 40.928 12.856V17.16C40.928 17.912 41.008 18.664 41.216 19H38.912C38.832 18.744 38.768 18.472 38.752 18.2C38.032 18.952 36.976 19.224 35.968 19.224C34.4 19.224 33.152 18.44 33.152 16.744C33.152 14.872 34.56 14.424 35.968 14.232C37.36 14.024 38.656 14.072 38.656 13.144C38.656 12.168 37.984 12.024 37.184 12.024C36.32 12.024 35.76 12.376 35.68 13.272ZM45.7315 8.248V10.728H47.3955V12.248H45.7315V16.344C45.7315 17.112 45.9235 17.304 46.6915 17.304C46.9315 17.304 47.1555 17.288 47.3955 17.24V19.016C47.0115 19.08 46.5155 19.096 46.0675 19.096C44.6755 19.096 43.4595 18.776 43.4595 17.128V12.248H42.0835V10.728H43.4595V8.248H45.7315ZM48.7005 19V10.728H50.9725V19H48.7005ZM50.9725 7.576V9.448H48.7005V7.576H50.9725ZM52.6655 14.872C52.6655 12.232 54.3455 10.504 56.9375 10.504C59.5455 10.504 61.2255 12.232 61.2255 14.872C61.2255 17.496 59.5455 19.224 56.9375 19.224C54.3455 19.224 52.6655 17.496 52.6655 14.872ZM54.9375 14.872C54.9375 16.184 55.4015 17.512 56.9375 17.512C58.4895 17.512 58.9535 16.184 58.9535 14.872C58.9535 13.544 58.4895 12.216 56.9375 12.216C55.4015 12.216 54.9375 13.544 54.9375 14.872ZM62.8627 19V10.728H65.0227V11.88H65.0707C65.6467 10.952 66.6387 10.504 67.5987 10.504C70.0147 10.504 70.6227 11.864 70.6227 13.912V19H68.3507V14.328C68.3507 12.968 67.9507 12.296 66.8947 12.296C65.6627 12.296 65.1347 12.984 65.1347 14.664V19H62.8627ZM84.9762 13.64H82.7522C82.6082 12.712 82.0162 12.216 81.0722 12.216C79.6162 12.216 79.1362 13.688 79.1362 14.904C79.1362 16.088 79.6002 17.512 81.0242 17.512C82.0802 17.512 82.6882 16.84 82.8322 15.832H85.0242C84.7362 18.024 83.2162 19.224 81.0402 19.224C78.5442 19.224 76.8642 17.464 76.8642 14.984C76.8642 12.408 78.4002 10.504 81.0882 10.504C83.0402 10.504 84.8322 11.528 84.9762 13.64ZM86.2118 14.872C86.2118 12.232 87.8918 10.504 90.4838 10.504C93.0918 10.504 94.7718 12.232 94.7718 14.872C94.7718 17.496 93.0918 19.224 90.4838 19.224C87.8918 19.224 86.2118 17.496 86.2118 14.872ZM88.4838 14.872C88.4838 16.184 88.9478 17.512 90.4838 17.512C92.0358 17.512 92.4998 16.184 92.4998 14.872C92.4998 13.544 92.0358 12.216 90.4838 12.216C88.9478 12.216 88.4838 13.544 88.4838 14.872ZM96.473 19V7.576H98.745V19H96.473ZM100.438 14.872C100.438 12.232 102.118 10.504 104.71 10.504C107.318 10.504 108.998 12.232 108.998 14.872C108.998 17.496 107.318 19.224 104.71 19.224C102.118 19.224 100.438 17.496 100.438 14.872ZM102.71 14.872C102.71 16.184 103.174 17.512 104.71 17.512C106.262 17.512 106.726 16.184 106.726 14.872C106.726 13.544 106.262 12.216 104.71 12.216C103.174 12.216 102.71 13.544 102.71 14.872ZM110.635 19V10.728H112.795V12.264H112.827C113.243 11.224 114.363 10.504 115.467 10.504C115.627 10.504 115.819 10.536 115.963 10.584V12.696C115.755 12.648 115.419 12.616 115.147 12.616C113.483 12.616 112.907 13.816 112.907 15.272V19H110.635ZM117.126 19V16.536H119.638V19H117.126ZM119.638 10.872V13.336H117.126V10.872H119.638ZM126.304 19V7.576H128.576V19H126.304ZM130.589 19V10.728H132.861V19H130.589ZM132.861 7.576V9.448H130.589V7.576H132.861ZM142.762 10.728V18.472C142.762 19.832 142.282 22.136 138.474 22.136C136.842 22.136 134.938 21.368 134.826 19.48H137.082C137.29 20.328 137.978 20.616 138.778 20.616C140.042 20.616 140.618 19.752 140.602 18.568V17.48H140.57C140.074 18.344 139.082 18.76 138.09 18.76C135.61 18.76 134.554 16.872 134.554 14.6C134.554 12.456 135.786 10.504 138.106 10.504C139.194 10.504 140.026 10.872 140.57 11.832H140.602V10.728H142.762ZM138.666 17.048C139.962 17.048 140.602 15.944 140.602 14.76C140.602 13.416 140.138 12.216 138.666 12.216C137.386 12.216 136.826 13.336 136.826 14.568C136.826 15.752 137.274 17.048 138.666 17.048ZM144.751 19V7.576H147.023V11.88H147.071C147.647 10.952 148.639 10.504 149.487 10.504C151.903 10.504 152.511 11.864 152.511 13.912V19H150.239V14.328C150.239 12.968 149.839 12.296 148.783 12.296C147.551 12.296 147.023 12.984 147.023 14.664V19H144.751ZM157.276 8.248V10.728H158.94V12.248H157.276V16.344C157.276 17.112 157.468 17.304 158.236 17.304C158.476 17.304 158.7 17.288 158.94 17.24V19.016C158.556 19.08 158.06 19.096 157.612 19.096C156.22 19.096 155.004 18.776 155.004 17.128V12.248H153.628V10.728H155.004V8.248H157.276ZM164.858 19V10.728H167.002V11.848H167.034C167.626 11 168.49 10.504 169.562 10.504C170.602 10.504 171.53 10.888 171.978 11.88C172.458 11.16 173.322 10.504 174.474 10.504C176.234 10.504 177.498 11.32 177.498 13.464V19H175.226V14.312C175.226 13.208 175.13 12.296 173.834 12.296C172.554 12.296 172.314 13.352 172.314 14.392V19H170.042V14.36C170.042 13.4 170.106 12.296 168.666 12.296C168.218 12.296 167.13 12.584 167.13 14.2V19H164.858ZM179.198 14.872C179.198 12.232 180.878 10.504 183.47 10.504C186.078 10.504 187.758 12.232 187.758 14.872C187.758 17.496 186.078 19.224 183.47 19.224C180.878 19.224 179.198 17.496 179.198 14.872ZM181.47 14.872C181.47 16.184 181.934 17.512 183.47 17.512C185.022 17.512 185.486 16.184 185.486 14.872C185.486 13.544 185.022 12.216 183.47 12.216C181.934 12.216 181.47 13.544 181.47 14.872ZM195.299 19V17.944H195.267C194.739 18.84 193.811 19.224 192.755 19.224C190.259 19.224 189.043 17.08 189.043 14.792C189.043 12.568 190.275 10.504 192.707 10.504C193.683 10.504 194.643 10.92 195.155 11.736H195.187V7.576H197.459V19H195.299ZM195.267 14.84C195.267 13.496 194.787 12.216 193.315 12.216C191.827 12.216 191.315 13.496 191.315 14.856C191.315 16.152 191.907 17.512 193.315 17.512C194.819 17.512 195.267 16.2 195.267 14.84ZM207.177 15.416H201.209C201.273 16.856 201.977 17.512 203.241 17.512C204.153 17.512 204.889 16.952 205.033 16.44H207.033C206.393 18.392 205.033 19.224 203.161 19.224C200.553 19.224 198.937 17.432 198.937 14.872C198.937 12.392 200.649 10.504 203.161 10.504C205.977 10.504 207.337 12.872 207.177 15.416ZM201.209 13.976H204.905C204.697 12.824 204.201 12.216 203.097 12.216C201.657 12.216 201.241 13.336 201.209 13.976Z" fill="black"/>
<path d="M19.758 43.364C19.492 41.054 17.644 39.766 15.446 39.766C12.352 39.766 10.532 42.076 10.532 45.044C10.532 47.928 12.352 50.238 15.446 50.238C17.896 50.238 19.618 48.642 19.842 46.15H17.714C17.546 47.466 16.79 48.39 15.446 48.39C13.472 48.39 12.73 46.71 12.73 45.044C12.73 43.294 13.472 41.614 15.446 41.614C16.538 41.614 17.49 42.37 17.63 43.364H19.758ZM21.069 46.388C21.069 48.684 22.539 50.196 24.807 50.196C27.089 50.196 28.559 48.684 28.559 46.388C28.559 44.078 27.089 42.566 24.807 42.566C22.539 42.566 21.069 44.078 21.069 46.388ZM23.057 46.388C23.057 45.226 23.463 44.064 24.807 44.064C26.165 44.064 26.571 45.226 26.571 46.388C26.571 47.536 26.165 48.698 24.807 48.698C23.463 48.698 23.057 47.536 23.057 46.388ZM30.0675 50H32.0555V40.004H30.0675V50ZM33.5569 46.388C33.5569 48.684 35.0269 50.196 37.2949 50.196C39.5769 50.196 41.0469 48.684 41.0469 46.388C41.0469 44.078 39.5769 42.566 37.2949 42.566C35.0269 42.566 33.5569 44.078 33.5569 46.388ZM35.5449 46.388C35.5449 45.226 35.9509 44.064 37.2949 44.064C38.6529 44.064 39.0589 45.226 39.0589 46.388C39.0589 47.536 38.6529 48.698 37.2949 48.698C35.9509 48.698 35.5449 47.536 35.5449 46.388ZM42.4995 50H44.4875V46.738C44.4875 45.464 44.9915 44.414 46.4475 44.414C46.6855 44.414 46.9795 44.442 47.1615 44.484V42.636C47.0355 42.594 46.8675 42.566 46.7275 42.566C45.7615 42.566 44.7815 43.196 44.4175 44.106H44.3895V42.762H42.4995V50Z" fill="#1D1D1D"/>
<path d="M142.45 40.004H140.252V46.22C140.252 47.704 139.748 48.39 138.18 48.39C136.402 48.39 136.122 47.312 136.122 46.22V40.004H133.924V46.22C133.924 48.936 135.492 50.238 138.18 50.238C140.854 50.238 142.45 48.922 142.45 46.22V40.004ZM143.943 47.648C144.027 49.566 145.665 50.196 147.345 50.196C148.997 50.196 150.649 49.58 150.649 47.676C150.649 46.332 149.515 45.912 148.353 45.646C147.219 45.38 146.099 45.282 146.099 44.568C146.099 43.98 146.757 43.896 147.205 43.896C147.919 43.896 148.507 44.106 148.563 44.876H150.453C150.299 43.098 148.843 42.566 147.261 42.566C145.707 42.566 144.111 43.042 144.111 44.89C144.111 46.164 145.259 46.57 146.407 46.822C147.835 47.13 148.661 47.34 148.661 47.942C148.661 48.642 147.933 48.866 147.359 48.866C146.575 48.866 145.847 48.516 145.833 47.648H143.943ZM158.832 46.864C158.972 44.638 157.782 42.566 155.318 42.566C153.12 42.566 151.622 44.218 151.622 46.388C151.622 48.628 153.036 50.196 155.318 50.196C156.956 50.196 158.146 49.468 158.706 47.76H156.956C156.83 48.208 156.186 48.698 155.388 48.698C154.282 48.698 153.666 48.124 153.61 46.864H158.832ZM153.61 45.604C153.638 45.044 154.002 44.064 155.262 44.064C156.228 44.064 156.662 44.596 156.844 45.604H153.61ZM173.23 43.364C172.964 41.054 171.116 39.766 168.918 39.766C165.824 39.766 164.004 42.076 164.004 45.044C164.004 47.928 165.824 50.238 168.918 50.238C171.368 50.238 173.09 48.642 173.314 46.15H171.186C171.018 47.466 170.262 48.39 168.918 48.39C166.944 48.39 166.202 46.71 166.202 45.044C166.202 43.294 166.944 41.614 168.918 41.614C170.01 41.614 170.962 42.37 171.102 43.364H173.23ZM179.273 47.2C179.273 47.634 179.217 48.866 177.663 48.866C177.019 48.866 176.445 48.684 176.445 47.942C176.445 47.214 177.005 47.004 177.621 46.878C178.237 46.766 178.937 46.752 179.273 46.458V47.2ZM176.669 44.988C176.739 44.204 177.229 43.896 177.985 43.896C178.685 43.896 179.273 44.022 179.273 44.876C179.273 45.688 178.139 45.646 176.921 45.828C175.689 45.996 174.457 46.388 174.457 48.026C174.457 49.51 175.549 50.196 176.921 50.196C177.803 50.196 178.727 49.958 179.357 49.3C179.371 49.538 179.427 49.776 179.497 50H181.513C181.331 49.706 181.261 49.048 181.261 48.39V44.624C181.261 42.888 179.525 42.566 178.083 42.566C176.459 42.566 174.793 43.126 174.681 44.988H176.669ZM182.614 47.648C182.698 49.566 184.336 50.196 186.016 50.196C187.668 50.196 189.32 49.58 189.32 47.676C189.32 46.332 188.186 45.912 187.024 45.646C185.89 45.38 184.77 45.282 184.77 44.568C184.77 43.98 185.428 43.896 185.876 43.896C186.59 43.896 187.178 44.106 187.234 44.876H189.124C188.97 43.098 187.514 42.566 185.932 42.566C184.378 42.566 182.782 43.042 182.782 44.89C182.782 46.164 183.93 46.57 185.078 46.822C186.506 47.13 187.332 47.34 187.332 47.942C187.332 48.642 186.604 48.866 186.03 48.866C185.246 48.866 184.518 48.516 184.504 47.648H182.614ZM197.504 46.864C197.644 44.638 196.454 42.566 193.99 42.566C191.792 42.566 190.294 44.218 190.294 46.388C190.294 48.628 191.708 50.196 193.99 50.196C195.628 50.196 196.818 49.468 197.378 47.76H195.628C195.502 48.208 194.858 48.698 194.06 48.698C192.954 48.698 192.338 48.124 192.282 46.864H197.504ZM192.282 45.604C192.31 45.044 192.674 44.064 193.934 44.064C194.9 44.064 195.334 44.596 195.516 45.604H192.282ZM198.493 47.648C198.577 49.566 200.215 50.196 201.895 50.196C203.547 50.196 205.199 49.58 205.199 47.676C205.199 46.332 204.065 45.912 202.903 45.646C201.769 45.38 200.649 45.282 200.649 44.568C200.649 43.98 201.307 43.896 201.755 43.896C202.469 43.896 203.057 44.106 203.113 44.876H205.003C204.849 43.098 203.393 42.566 201.811 42.566C200.257 42.566 198.661 43.042 198.661 44.89C198.661 46.164 199.809 46.57 200.957 46.822C202.385 47.13 203.211 47.34 203.211 47.942C203.211 48.642 202.483 48.866 201.909 48.866C201.125 48.866 200.397 48.516 200.383 47.648H198.493Z" fill="#1D1D1D"/>
<path d="M291.966 50H294.164V45.688H298.21V50H300.408V40.004H298.21V43.84H294.164V40.004H291.966V50ZM309.153 46.864C309.293 44.638 308.103 42.566 305.639 42.566C303.441 42.566 301.943 44.218 301.943 46.388C301.943 48.628 303.357 50.196 305.639 50.196C307.277 50.196 308.467 49.468 309.027 47.76H307.277C307.151 48.208 306.507 48.698 305.709 48.698C304.603 48.698 303.987 48.124 303.931 46.864H309.153ZM303.931 45.604C303.959 45.044 304.323 44.064 305.583 44.064C306.549 44.064 306.983 44.596 307.165 45.604H303.931ZM309.736 50H311.962L313.474 47.718L314.986 50H317.254L314.58 46.15L316.96 42.762H314.762L313.502 44.652L312.228 42.762H309.96L312.34 46.192L309.736 50Z" fill="#1D1D1D"/>
<mask id="path-5-inside-1_11186_81620" fill="white">
<path d="M0 60H352V108H0V60Z"/>
</mask>
<path d="M0 60H352V108H0V60Z" fill="#F4F4F4"/>
<rect x="10" y="69" width="30" height="30" fill="#282E33"/>
<path d="M90.972 80.94C90.9 79.056 89.568 78.228 87.816 78.228C86.256 78.228 84.708 78.996 84.708 80.736C84.708 82.308 86.088 82.704 87.456 83.004C88.824 83.304 90.192 83.508 90.192 84.684C90.192 85.92 89.052 86.244 88.02 86.244C86.724 86.244 85.524 85.62 85.524 84.18H84.444C84.444 86.268 86.064 87.204 87.984 87.204C89.544 87.204 91.332 86.472 91.332 84.648C91.332 82.968 89.964 82.488 88.596 82.176C87.216 81.864 85.848 81.708 85.848 80.652C85.848 79.536 86.808 79.188 87.768 79.188C88.944 79.188 89.76 79.716 89.892 80.94H90.972ZM94.1252 78.936H93.1052V80.796H92.0492V81.696H93.1052V85.644C93.1052 86.784 93.5252 87 94.5813 87H95.3613V86.1H94.8932C94.2572 86.1 94.1252 86.016 94.1252 85.548V81.696H95.3613V80.796H94.1252V78.936ZM100.938 85.032C100.758 85.836 100.17 86.244 99.3304 86.244C97.9744 86.244 97.3624 85.284 97.3984 84.204H102.042C102.102 82.704 101.43 80.652 99.2344 80.652C97.5424 80.652 96.3184 82.02 96.3184 83.88C96.3784 85.776 97.3144 87.144 99.2944 87.144C100.686 87.144 101.67 86.4 101.946 85.032H100.938ZM97.3984 83.304C97.4704 82.356 98.1064 81.552 99.1744 81.552C100.182 81.552 100.914 82.332 100.962 83.304H97.3984ZM107.544 85.032C107.364 85.836 106.776 86.244 105.936 86.244C104.58 86.244 103.968 85.284 104.004 84.204H108.648C108.708 82.704 108.036 80.652 105.84 80.652C104.148 80.652 102.924 82.02 102.924 83.88C102.984 85.776 103.92 87.144 105.9 87.144C107.292 87.144 108.276 86.4 108.552 85.032H107.544ZM104.004 83.304C104.076 82.356 104.712 81.552 105.78 81.552C106.788 81.552 107.52 82.332 107.568 83.304H104.004ZM109.925 87H110.945V78.432H109.925V87ZM120.325 81.336C120.325 82.344 119.653 83.208 118.585 83.208C117.601 83.208 116.905 82.344 116.905 81.408C116.905 80.364 117.361 79.392 118.573 79.392C119.713 79.392 120.325 80.292 120.325 81.336ZM116.005 84.948C116.137 86.412 117.157 87.144 118.585 87.144C120.649 87.144 121.537 85.5 121.537 82.56C121.537 79.344 120.205 78.492 118.621 78.492C116.977 78.492 115.825 79.62 115.825 81.264C115.825 82.944 116.785 84.108 118.513 84.108C119.341 84.108 120.097 83.652 120.481 82.932L120.505 82.956C120.445 85.152 119.833 86.244 118.585 86.244C117.769 86.244 117.097 85.776 117.025 84.948H116.005ZM122.749 82.824C122.749 84.696 122.917 87.144 125.581 87.144C128.245 87.144 128.413 84.696 128.413 82.824C128.413 80.94 128.245 78.492 125.581 78.492C122.917 78.492 122.749 80.94 122.749 82.824ZM123.829 82.812C123.829 81.552 123.841 79.392 125.581 79.392C127.321 79.392 127.333 81.552 127.333 82.812C127.333 84.084 127.321 86.244 125.581 86.244C123.841 86.244 123.829 84.084 123.829 82.812Z" fill="#1D1D1D"/>
<path d="M179.972 80.94C179.9 79.056 178.568 78.228 176.816 78.228C175.256 78.228 173.708 78.996 173.708 80.736C173.708 82.308 175.088 82.704 176.456 83.004C177.824 83.304 179.192 83.508 179.192 84.684C179.192 85.92 178.052 86.244 177.02 86.244C175.724 86.244 174.524 85.62 174.524 84.18H173.444C173.444 86.268 175.064 87.204 176.984 87.204C178.544 87.204 180.332 86.472 180.332 84.648C180.332 82.968 178.964 82.488 177.596 82.176C176.216 81.864 174.848 81.708 174.848 80.652C174.848 79.536 175.808 79.188 176.768 79.188C177.944 79.188 178.76 79.716 178.892 80.94H179.972ZM181.709 87H182.729V83.496C182.729 82.38 183.329 81.552 184.565 81.552C185.345 81.552 185.825 82.044 185.825 82.8V87H186.845V82.92C186.845 81.588 186.341 80.652 184.709 80.652C183.965 80.652 183.089 80.964 182.753 81.708H182.729V78.432H181.709V87ZM192.377 84.84C192.377 85.404 191.825 86.244 190.481 86.244C189.857 86.244 189.281 86.004 189.281 85.332C189.281 84.576 189.857 84.336 190.529 84.216C191.213 84.096 191.981 84.084 192.377 83.796V84.84ZM194.033 86.184C193.901 86.232 193.805 86.244 193.721 86.244C193.397 86.244 193.397 86.028 193.397 85.548V82.356C193.397 80.904 192.185 80.652 191.069 80.652C189.689 80.652 188.501 81.192 188.441 82.728H189.461C189.509 81.816 190.145 81.552 191.009 81.552C191.657 81.552 192.389 81.696 192.389 82.584C192.389 83.352 191.429 83.28 190.301 83.496C189.245 83.7 188.201 84 188.201 85.404C188.201 86.64 189.125 87.144 190.253 87.144C191.117 87.144 191.873 86.844 192.437 86.184C192.437 86.856 192.773 87.144 193.301 87.144C193.625 87.144 193.853 87.084 194.033 86.976V86.184ZM200.687 78.432H199.667V81.624H199.643C199.187 80.892 198.275 80.652 197.639 80.652C195.743 80.652 194.807 82.128 194.807 83.88C194.807 85.632 195.755 87.144 197.663 87.144C198.515 87.144 199.307 86.844 199.643 86.16H199.667V87H200.687V78.432ZM195.887 83.952C195.887 82.74 196.355 81.552 197.747 81.552C199.151 81.552 199.703 82.68 199.703 83.904C199.703 85.068 199.175 86.244 197.807 86.244C196.487 86.244 195.887 85.116 195.887 83.952ZM202.08 83.904C202.08 85.716 203.124 87.144 205.092 87.144C207.06 87.144 208.104 85.716 208.104 83.904C208.104 82.08 207.06 80.652 205.092 80.652C203.124 80.652 202.08 82.08 202.08 83.904ZM203.16 83.904C203.16 82.392 204.024 81.552 205.092 81.552C206.16 81.552 207.024 82.392 207.024 83.904C207.024 85.404 206.16 86.244 205.092 86.244C204.024 86.244 203.16 85.404 203.16 83.904ZM217.59 80.796H216.534L215.142 85.872H215.118L213.822 80.796H212.706L211.458 85.872H211.434L210.03 80.796H208.902L210.894 87H211.998L213.246 82.068H213.27L214.53 87H215.61L217.59 80.796ZM222.388 87H228.064V86.04H223.528V78.432H222.388V87ZM229.108 87H230.128V80.796H229.108V87ZM230.128 78.432H229.108V79.68H230.128V78.432ZM234.364 86.172C233.02 86.172 232.612 84.924 232.612 83.808C232.612 82.62 233.14 81.552 234.448 81.552C235.732 81.552 236.212 82.68 236.212 83.772C236.212 84.936 235.708 86.172 234.364 86.172ZM237.22 80.796H236.26V81.684H236.248C235.876 81 235.18 80.652 234.4 80.652C232.252 80.652 231.532 82.464 231.532 83.928C231.532 85.62 232.456 87.072 234.304 87.072C235.084 87.072 235.9 86.7 236.236 85.944H236.26V86.352C236.26 87.744 235.732 88.704 234.4 88.704C233.728 88.704 232.84 88.44 232.792 87.696H231.772C231.832 89.052 233.176 89.52 234.34 89.52C236.296 89.52 237.22 88.488 237.22 86.472V80.796ZM238.919 87H239.939V83.496C239.939 82.38 240.539 81.552 241.775 81.552C242.555 81.552 243.035 82.044 243.035 82.8V87H244.055V82.92C244.055 81.588 243.551 80.652 241.919 80.652C241.175 80.652 240.299 80.964 239.963 81.708H239.939V78.432H238.919V87ZM247.163 78.936H246.143V80.796H245.087V81.696H246.143V85.644C246.143 86.784 246.563 87 247.619 87H248.399V86.1H247.931C247.295 86.1 247.163 86.016 247.163 85.548V81.696H248.399V80.796H247.163V78.936Z" fill="#1D1D1D"/>
<path d="M294.548 81.504C294.512 80.484 295.016 79.392 296.204 79.392C297.104 79.392 297.848 80.004 297.848 80.928C297.848 82.104 297.116 82.632 295.676 83.52C294.476 84.264 293.456 84.984 293.288 87H298.844V86.1H294.476C294.68 85.044 295.796 84.504 296.864 83.856C297.92 83.196 298.928 82.44 298.928 80.94C298.928 79.356 297.752 78.492 296.264 78.492C294.464 78.492 293.444 79.776 293.528 81.504H294.548ZM301.388 84.6C301.388 83.616 302.18 82.968 303.188 82.968C304.148 82.968 304.94 83.664 304.94 84.588C304.94 85.536 304.22 86.244 303.2 86.244C302.144 86.244 301.388 85.62 301.388 84.6ZM300.608 80.664C300.608 81.432 301.088 82.14 301.796 82.428C300.848 82.764 300.308 83.544 300.308 84.552C300.308 86.292 301.568 87.144 303.2 87.144C304.772 87.144 306.02 86.196 306.02 84.552C306.02 83.496 305.528 82.752 304.508 82.428C305.204 82.116 305.684 81.42 305.684 80.664C305.684 79.584 304.964 78.492 303.104 78.492C301.796 78.492 300.608 79.26 300.608 80.664ZM301.688 80.7C301.688 79.848 302.36 79.392 303.176 79.392C304.004 79.392 304.604 79.848 304.604 80.7C304.604 81.564 304.004 82.068 303.2 82.068C302.36 82.068 301.688 81.636 301.688 80.7ZM308.204 81.504C308.168 80.484 308.672 79.392 309.86 79.392C310.76 79.392 311.504 80.004 311.504 80.928C311.504 82.104 310.772 82.632 309.332 83.52C308.132 84.264 307.112 84.984 306.944 87H312.5V86.1H308.132C308.336 85.044 309.452 84.504 310.52 83.856C311.576 83.196 312.584 82.44 312.584 80.94C312.584 79.356 311.408 78.492 309.92 78.492C308.12 78.492 307.1 79.776 307.184 81.504H308.204ZM314.42 87H320.372V86.04H315.56V83.076H320.012V82.116H315.56V79.392H320.336V78.432H314.42V87ZM323.596 83.004C323.788 82.98 324.004 82.968 324.208 82.968C325.216 82.968 326.02 83.532 326.02 84.6C326.02 85.632 325.168 86.244 324.172 86.244C323.008 86.244 322.396 85.476 322.36 84.372H321.34C321.304 86.124 322.444 87.144 324.172 87.144C325.768 87.144 327.1 86.256 327.1 84.552C327.1 83.532 326.596 82.716 325.564 82.488V82.464C326.212 82.164 326.74 81.516 326.74 80.772C326.74 79.2 325.624 78.492 324.148 78.492C322.444 78.492 321.58 79.62 321.52 81.24H322.54C322.552 80.244 323.032 79.392 324.148 79.392C325.012 79.392 325.66 79.872 325.66 80.76C325.66 81.684 324.904 82.152 324.04 82.152C323.896 82.152 323.752 82.152 323.596 82.14V83.004ZM330.424 83.004C330.616 82.98 330.832 82.968 331.036 82.968C332.044 82.968 332.848 83.532 332.848 84.6C332.848 85.632 331.996 86.244 331 86.244C329.836 86.244 329.224 85.476 329.188 84.372H328.168C328.132 86.124 329.272 87.144 331 87.144C332.596 87.144 333.928 86.256 333.928 84.552C333.928 83.532 333.424 82.716 332.392 82.488V82.464C333.04 82.164 333.568 81.516 333.568 80.772C333.568 79.2 332.452 78.492 330.976 78.492C329.272 78.492 328.408 79.62 328.348 81.24H329.368C329.38 80.244 329.86 79.392 330.976 79.392C331.84 79.392 332.488 79.872 332.488 80.76C332.488 81.684 331.732 82.152 330.868 82.152C330.724 82.152 330.58 82.152 330.424 82.14V83.004Z" fill="#1D1D1D"/>
<path d="M0 61H352V59H0V61ZM352 107H0V109H352V107Z" fill="#CACACA" mask="url(#path-5-inside-1_11186_81620)"/>
</svg>
