<svg width="364" height="241" viewBox="0 0 364 241" fill="none" xmlns="http://www.w3.org/2000/svg">
<rect x="1" y="1" width="362" height="239" rx="5" fill="white"/>
<path d="M40.6667 32H43.3334V34.6667H40.6667V32ZM40.6667 21.3333H43.3334V29.3333H40.6667V21.3333ZM41.9867 14.6667C34.6267 14.6667 28.6667 20.64 28.6667 28C28.6667 35.36 34.6267 41.3333 41.9867 41.3333C49.3601 41.3333 55.3334 35.36 55.3334 28C55.3334 20.64 49.3601 14.6667 41.9867 14.6667ZM42.0001 38.6667C36.1067 38.6667 31.3334 33.8933 31.3334 28C31.3334 22.1067 36.1067 17.3333 42.0001 17.3333C47.8934 17.3333 52.6667 22.1067 52.6667 28C52.6667 33.8933 47.8934 38.6667 42.0001 38.6667Z" fill="#1D1D1D"/>
<path d="M70 15.5C70 14.3954 70.8954 13.5 72 13.5H155C156.105 13.5 157 14.3954 157 15.5V40.5C157 41.6046 156.105 42.5 155 42.5H72C70.8954 42.5 70 41.6046 70 40.5V15.5Z" fill="#D9D9D9"/>
<path d="M362 53H2V55H362V53Z" fill="#CACACA" mask="url(#path-2-inside-1_39460_10974)"/>
<path d="M26 78C26 76.8954 26.8954 76 28 76H252C253.105 76 254 76.8954 254 78V92C254 93.1046 253.105 94 252 94H28C26.8954 94 26 93.1046 26 92V78Z" fill="#D9D9D9"/>
<path d="M26 112C26 110.895 26.8954 110 28 110H336C337.105 110 338 110.895 338 112V126C338 127.105 337.105 128 336 128H28C26.8954 128 26 127.105 26 126V112Z" fill="#D9D9D9"/>
<path d="M26 146C26 144.895 26.8954 144 28 144H199C200.105 144 201 144.895 201 146V160C201 161.105 200.105 162 199 162H28C26.8954 162 26 161.105 26 160V146Z" fill="#D9D9D9"/>
<g filter="url(#filter0_dd_39460_10974)">
<rect x="261" y="194" width="77" height="35" rx="4" fill="#DF4907"/>
<path d="M282.236 208.135L280.616 212.74H283.886L282.281 208.135H282.236ZM277.166 217L281.276 206.29H283.271L287.396 217H285.386L284.381 214.165H280.106L279.101 217H277.166ZM295.121 211.84H293.411C293.276 210.895 292.586 210.385 291.641 210.385C290.756 210.385 289.511 210.85 289.511 213.205C289.511 214.495 290.081 215.86 291.566 215.86C292.556 215.86 293.246 215.2 293.411 214.09H295.121C294.806 216.1 293.561 217.21 291.566 217.21C289.136 217.21 287.801 215.485 287.801 213.205C287.801 210.865 289.076 209.035 291.626 209.035C293.426 209.035 294.956 209.935 295.121 211.84ZM295.731 210.52V209.245H297.021V206.92H298.731V209.245H300.276V210.52H298.731V214.66C298.731 215.365 298.791 215.725 299.556 215.725C299.796 215.725 300.036 215.725 300.276 215.665V216.985C299.901 217.015 299.541 217.075 299.166 217.075C297.381 217.075 297.051 216.385 297.021 215.095V210.52H295.731ZM301.551 217V209.245H303.261V217H301.551ZM301.551 207.91V206.29H303.261V207.91H301.551ZM308.679 215.86C310.209 215.86 310.884 214.465 310.884 213.115C310.884 211.78 310.209 210.385 308.679 210.385C307.149 210.385 306.474 211.78 306.474 213.115C306.474 214.465 307.149 215.86 308.679 215.86ZM308.679 217.21C306.189 217.21 304.764 215.5 304.764 213.115C304.764 210.745 306.189 209.035 308.679 209.035C311.169 209.035 312.594 210.745 312.594 213.115C312.594 215.5 311.169 217.21 308.679 217.21ZM314.016 217V209.245H315.636V210.385L315.666 210.415C316.176 209.56 317.061 209.035 318.081 209.035C319.761 209.035 320.826 209.935 320.826 211.675V217H319.116V212.125C319.086 210.91 318.606 210.385 317.601 210.385C316.461 210.385 315.726 211.285 315.726 212.425V217H314.016Z" fill="white"/>
</g>
<path d="M2 185H362V183H2V185Z" fill="#CACACA" mask="url(#path-9-inside-2_39460_10974)"/>
<rect x="1" y="1" width="362" height="239" rx="5" stroke="#D9D9D9" stroke-width="2"/>
<defs>
<filter id="filter0_dd_39460_10974" x="258" y="192" width="83" height="41" filterUnits="userSpaceOnUse" color-interpolation-filters="sRGB">
<feFlood flood-opacity="0" result="BackgroundImageFix"/>
<feColorMatrix in="SourceAlpha" type="matrix" values="0 0 0 0 0 0 0 0 0 0 0 0 0 0 0 0 0 0 127 0" result="hardAlpha"/>
<feMorphology radius="1" operator="dilate" in="SourceAlpha" result="effect1_dropShadow_39460_10974"/>
<feOffset dy="1"/>
<feGaussianBlur stdDeviation="1"/>
<feColorMatrix type="matrix" values="0 0 0 0 0.156863 0 0 0 0 0.180392 0 0 0 0 0.2 0 0 0 0.15 0"/>
<feBlend mode="normal" in2="BackgroundImageFix" result="effect1_dropShadow_39460_10974"/>
<feColorMatrix in="SourceAlpha" type="matrix" values="0 0 0 0 0 0 0 0 0 0 0 0 0 0 0 0 0 0 127 0" result="hardAlpha"/>
<feOffset dy="1"/>
<feGaussianBlur stdDeviation="0.5"/>
<feComposite in2="hardAlpha" operator="out"/>
<feColorMatrix type="matrix" values="0 0 0 0 0.156863 0 0 0 0 0.180392 0 0 0 0 0.2 0 0 0 0.25 0"/>
<feBlend mode="normal" in2="effect1_dropShadow_39460_10974" result="effect2_dropShadow_39460_10974"/>
<feBlend mode="normal" in="SourceGraphic" in2="effect2_dropShadow_39460_10974" result="shape"/>
</filter>
</defs>
</svg>
