<svg width="302" height="90" viewBox="0 0 302 90" fill="none" xmlns="http://www.w3.org/2000/svg">
<rect x="1" y="1" width="300" height="88" rx="5" fill="white"/>
<path d="M40.6667 32H43.3334V34.6667H40.6667V32ZM40.6667 21.3333H43.3334V29.3333H40.6667V21.3333ZM41.9867 14.6667C34.6267 14.6667 28.6667 20.64 28.6667 28C28.6667 35.36 34.6267 41.3333 41.9867 41.3333C49.3601 41.3333 55.3334 35.36 55.3334 28C55.3334 20.64 49.3601 14.6667 41.9867 14.6667ZM42.0001 38.6667C36.1067 38.6667 31.3334 33.8933 31.3334 28C31.3334 22.1067 36.1067 17.3333 42.0001 17.3333C47.8934 17.3333 52.6667 22.1067 52.6667 28C52.6667 33.8933 47.8934 38.6667 42.0001 38.6667Z" fill="#1D1D1D"/>
<path d="M73.296 24.044L71.568 28.956H75.056L73.344 24.044H73.296ZM67.888 33.5L72.272 22.076H74.4L78.8 33.5H76.656L75.584 30.476H71.024L69.952 33.5H67.888ZM79.6799 33.5V22.076H81.5039V33.5H79.6799ZM90.9953 29.836H84.9153C84.9153 31.132 85.6193 32.284 87.1393 32.284C88.1953 32.284 88.8353 31.82 89.1553 30.908H90.8833C90.4833 32.716 88.9473 33.724 87.1393 33.724C84.5473 33.724 83.0913 31.916 83.0913 29.372C83.0913 27.02 84.6273 25.004 87.0913 25.004C89.6993 25.004 91.2993 27.356 90.9953 29.836ZM84.9153 28.636H89.1713C89.1073 27.484 88.3233 26.444 87.0913 26.444C85.8273 26.444 84.9633 27.404 84.9153 28.636ZM92.3819 33.5V25.228H94.0939V26.828H94.1259C94.3339 25.948 95.4219 25.004 96.5419 25.004C96.9579 25.004 97.0699 25.036 97.2299 25.052V26.812C96.9739 26.78 96.7019 26.732 96.4459 26.732C95.1979 26.732 94.2059 27.74 94.2059 29.564V33.5H92.3819ZM97.1749 26.588V25.228H98.5509V22.748H100.375V25.228H102.023V26.588H100.375V31.004C100.375 31.756 100.439 32.14 101.255 32.14C101.511 32.14 101.767 32.14 102.023 32.076V33.484C101.623 33.516 101.239 33.58 100.839 33.58C98.9349 33.58 98.5829 32.844 98.5509 31.468V26.588H97.1749ZM106.956 26.588V25.228H108.332V22.748H110.156V25.228H111.804V26.588H110.156V31.004C110.156 31.756 110.22 32.14 111.036 32.14C111.292 32.14 111.548 32.14 111.804 32.076V33.484C111.404 33.516 111.02 33.58 110.62 33.58C108.716 33.58 108.364 32.844 108.332 31.468V26.588H106.956ZM113.164 33.5V25.228H114.988V33.5H113.164ZM113.164 23.804V22.076H114.988V23.804H113.164ZM116.144 26.588V25.228H117.52V22.748H119.344V25.228H120.992V26.588H119.344V31.004C119.344 31.756 119.408 32.14 120.224 32.14C120.48 32.14 120.736 32.14 120.992 32.076V33.484C120.592 33.516 120.208 33.58 119.808 33.58C117.904 33.58 117.552 32.844 117.52 31.468V26.588H116.144ZM122.352 33.5V22.076H124.176V33.5H122.352ZM133.667 29.836H127.587C127.587 31.132 128.291 32.284 129.811 32.284C130.867 32.284 131.507 31.82 131.827 30.908H133.555C133.155 32.716 131.619 33.724 129.811 33.724C127.219 33.724 125.763 31.916 125.763 29.372C125.763 27.02 127.299 25.004 129.763 25.004C132.371 25.004 133.971 27.356 133.667 29.836ZM127.587 28.636H131.843C131.779 27.484 130.995 26.444 129.763 26.444C128.499 26.444 127.635 27.404 127.587 28.636Z" fill="#1D1D1D"/>
<path d="M271.417 39.8758L270.124 38.5833L265 43.7075L259.876 38.5833L258.583 39.8758L263.707 45L258.583 50.1242L259.876 51.4167L265 46.2925L270.124 51.4167L271.417 50.1242L266.292 45L271.417 39.8758Z" fill="#323232"/>
<rect x="1" y="1" width="300" height="88" rx="5" stroke="#D9D9D9" stroke-width="2"/>
<path d="M68 19C68 16.7909 69.7909 15 72 15H151C153.209 15 155 16.7909 155 19V40C155 42.2091 153.209 44 151 44H72C69.7909 44 68 42.2091 68 40V19Z" fill="#D9D9D9"/>
<path d="M68 60C68 57.7909 69.7909 56 72 56H228C230.209 56 232 57.7909 232 60V70C232 72.2091 230.209 74 228 74H72C69.7909 74 68 72.2091 68 70V60Z" fill="#D9D9D9"/>
</svg>
