<svg width="55" height="22" viewBox="0 0 55 22" fill="none" xmlns="http://www.w3.org/2000/svg">
<rect x="0.5" y="0.5" width="54" height="21" rx="1.5" fill="#E2E2E2"/>
<path d="M16.1 8.012H14.96C14.72 6.8 13.748 6.188 12.56 6.188C10.52 6.188 9.656 7.868 9.656 9.656C9.656 11.612 10.52 13.244 12.572 13.244C14.072 13.244 14.936 12.188 15.044 10.772H16.184C15.968 12.908 14.636 14.204 12.476 14.204C9.812 14.204 8.516 12.236 8.516 9.74C8.516 7.256 9.932 5.228 12.572 5.228C14.36 5.228 15.836 6.188 16.1 8.012ZM17.4282 14V5.432H18.4482V8.708H18.4722C18.8082 7.964 19.6842 7.652 20.4282 7.652C22.0602 7.652 22.5642 8.588 22.5642 9.92V14H21.5442V9.8C21.5442 9.044 21.0642 8.552 20.2842 8.552C19.0482 8.552 18.4482 9.38 18.4482 10.496V14H17.4282ZM24.1561 14V7.796H25.1761V14H24.1561ZM25.1761 5.432V6.68H24.1561V5.432H25.1761ZM31.5923 10.844C31.5923 9.68 30.9923 8.552 29.6723 8.552C28.3043 8.552 27.7763 9.728 27.7763 10.892C27.7763 12.116 28.3283 13.244 29.7323 13.244C31.1243 13.244 31.5923 12.056 31.5923 10.844ZM26.7923 16.376V7.796H27.8123V8.636H27.8363C28.1723 7.952 28.9643 7.652 29.8163 7.652C31.7243 7.652 32.6723 9.164 32.6723 10.916C32.6723 12.668 31.7363 14.144 29.8403 14.144C29.2043 14.144 28.2923 13.904 27.8363 13.172H27.8123V16.376H26.7923Z" fill="#343434"/>
<path d="M44.9166 8.67075L44.3291 8.08325L41.9999 10.4124L39.6708 8.08325L39.0833 8.67075L41.4124 10.9999L39.0833 13.3291L39.6708 13.9166L41.9999 11.5874L44.3291 13.9166L44.9166 13.3291L42.5874 10.9999L44.9166 8.67075Z" fill="#343434"/>
<rect x="0.5" y="0.5" width="54" height="21" rx="1.5" stroke="#757575"/>
</svg>
