<svg width="158" height="34" viewBox="0 0 158 34" fill="none" xmlns="http://www.w3.org/2000/svg">
<g clip-path="url(#clip0_43210_10978)">
<rect x="1" y="1" width="156" height="32" rx="2" fill="white"/>
<rect x="1" y="1" width="156" height="32" rx="2" fill="white"/>
<path d="M15.086 18.458C15.086 19.704 15.702 20.936 17.088 20.936C18.516 20.936 19.118 19.634 19.118 18.374C19.118 16.778 18.348 15.826 17.116 15.826C15.618 15.826 15.086 17.156 15.086 18.458ZM20.658 12.004V22H19.146V21.02H19.118C18.698 21.846 17.788 22.196 16.878 22.196C14.596 22.196 13.49 20.502 13.49 18.332C13.49 15.714 15.044 14.566 16.626 14.566C17.536 14.566 18.544 14.902 19.034 15.7H19.062V12.004H20.658ZM22.3986 22V14.762H23.8966V16.162H23.9246C24.1066 15.392 25.0586 14.566 26.0386 14.566C26.4026 14.566 26.5006 14.594 26.6406 14.608V16.148C26.4166 16.12 26.1786 16.078 25.9546 16.078C24.8626 16.078 23.9946 16.96 23.9946 18.556V22H22.3986ZM30.3924 20.936C31.8204 20.936 32.4504 19.634 32.4504 18.374C32.4504 17.128 31.8204 15.826 30.3924 15.826C28.9644 15.826 28.3344 17.128 28.3344 18.374C28.3344 19.634 28.9644 20.936 30.3924 20.936ZM30.3924 22.196C28.0684 22.196 26.7384 20.6 26.7384 18.374C26.7384 16.162 28.0684 14.566 30.3924 14.566C32.7164 14.566 34.0464 16.162 34.0464 18.374C34.0464 20.6 32.7164 22.196 30.3924 22.196ZM40.9872 18.388C40.9872 17.072 40.3012 15.826 38.9852 15.826C37.6412 15.826 36.9552 16.848 36.9552 18.388C36.9552 19.844 37.6972 20.936 38.9852 20.936C40.4412 20.936 40.9872 19.648 40.9872 18.388ZM35.4152 24.674V14.762H36.9272V15.742H36.9552C37.4032 14.916 38.2712 14.566 39.1952 14.566C41.4772 14.566 42.5832 16.302 42.5832 18.416C42.5832 20.362 41.6032 22.196 39.4612 22.196C38.5372 22.196 37.5432 21.86 37.0392 21.062H37.0112V24.674H35.4152ZM45.1778 18.458C45.1778 19.704 45.7938 20.936 47.1798 20.936C48.6078 20.936 49.2098 19.634 49.2098 18.374C49.2098 16.778 48.4398 15.826 47.2078 15.826C45.7098 15.826 45.1778 17.156 45.1778 18.458ZM50.7498 12.004V22H49.2378V21.02H49.2098C48.7898 21.846 47.8798 22.196 46.9698 22.196C44.6878 22.196 43.5818 20.502 43.5818 18.332C43.5818 15.714 45.1358 14.566 46.7178 14.566C47.6278 14.566 48.6358 14.902 49.1258 15.7H49.1538V12.004H50.7498ZM55.8084 20.936C57.2364 20.936 57.8664 19.634 57.8664 18.374C57.8664 17.128 57.2364 15.826 55.8084 15.826C54.3804 15.826 53.7504 17.128 53.7504 18.374C53.7504 19.634 54.3804 20.936 55.8084 20.936ZM55.8084 22.196C53.4844 22.196 52.1544 20.6 52.1544 18.374C52.1544 16.162 53.4844 14.566 55.8084 14.566C58.1324 14.566 59.4624 16.162 59.4624 18.374C59.4624 20.6 58.1324 22.196 55.8084 22.196ZM62.3712 22L60.1312 14.762H61.8252L63.2392 20.166H63.2672L64.6252 14.762H66.2352L67.5372 20.166H67.5652L69.0352 14.762H70.6592L68.3912 22H66.7532L65.4092 16.624H65.3812L64.0512 22H62.3712ZM71.6857 22V14.762H73.1977V15.826L73.2257 15.854C73.7017 15.056 74.5277 14.566 75.4797 14.566C77.0477 14.566 78.0417 15.406 78.0417 17.03V22H76.4457V17.45C76.4177 16.316 75.9697 15.826 75.0317 15.826C73.9677 15.826 73.2817 16.666 73.2817 17.73V22H71.6857Z" fill="#343434"/>
<path d="M133.94 14.7266L137 17.7799L140.06 14.7266L141 15.6666L137 19.6666L133 15.6666L133.94 14.7266Z" fill="#323232"/>
<rect x="1" y="1" width="156" height="32" rx="2" stroke="#D9D9D9"/>
</g>
<rect x="1" y="1" width="156" height="32" rx="2" stroke="#D9D9D9"/>
<defs>
<clipPath id="clip0_43210_10978">
<rect x="1" y="1" width="156" height="32" rx="2" fill="white"/>
</clipPath>
</defs>
</svg>
