<svg width="181" height="28" viewBox="0 0 181 28" fill="none" xmlns="http://www.w3.org/2000/svg">
<rect width="46" height="16" transform="translate(0 5)" fill="white" fill-opacity="0.01"/>
<circle cx="8" cy="13" r="8" fill="#E6F7FF"/>
<path d="M8 20.5C3.85786 20.5 0.5 17.1421 0.5 13C0.5 8.85786 3.85786 5.5 8 5.5C12.1421 5.5 15.5 8.85786 15.5 13C15.5 17.1421 12.1421 20.5 8 20.5Z" fill="white" stroke="#DF4907"/>
<rect x="4" y="9" width="8" height="8" rx="4" fill="#DF4907"/>
<path d="M29.696 7.156V18.5H28.336V10.372H25.392V9.284C26.944 9.284 28.352 8.868 28.656 7.156H29.696ZM33.3866 15.892H34.7466C34.7946 17.108 35.8506 17.492 36.9706 17.492C37.8186 17.492 38.9706 17.3 38.9706 16.26C38.9706 15.204 37.6266 15.028 36.2666 14.724C34.9226 14.42 33.5626 13.972 33.5626 12.388C33.5626 10.724 35.2106 10.036 36.6506 10.036C38.4746 10.036 39.9306 10.612 40.0426 12.628H38.6826C38.5866 11.572 37.6586 11.236 36.7626 11.236C35.9466 11.236 35.0026 11.46 35.0026 12.292C35.0026 13.268 36.4426 13.428 37.7066 13.732C39.0666 14.036 40.4106 14.484 40.4106 16.084C40.4106 18.052 38.5706 18.692 36.8906 18.692C35.0346 18.692 33.4666 17.94 33.3866 15.892ZM43.8026 7.748V10.228H45.4506V11.428H43.8026V16.564C43.8026 17.188 43.9786 17.3 44.8266 17.3H45.4506V18.5H44.4106C43.0026 18.5 42.4426 18.212 42.4426 16.692V11.428H41.0346V10.228H42.4426V7.748H43.8026Z" fill="black" fill-opacity="0.85"/>
<rect width="52" height="16" transform="translate(62 5)" fill="white" fill-opacity="0.01"/>
<path d="M70 20.5C65.8579 20.5 62.5 17.1421 62.5 13C62.5 8.85786 65.8579 5.5 70 5.5C74.1421 5.5 77.5 8.85786 77.5 13C77.5 17.1421 74.1421 20.5 70 20.5Z" fill="white" stroke="#757575"/>
<path d="M88.064 11.172H86.704C86.592 8.868 87.952 7.156 90.352 7.156C92.336 7.156 93.904 8.308 93.904 10.42C93.904 12.42 92.56 13.428 91.152 14.308C89.728 15.172 88.24 15.892 87.968 17.3H93.792V18.5H86.384C86.608 15.812 87.968 14.852 89.568 13.86C91.488 12.676 92.464 11.972 92.464 10.404C92.464 9.172 91.472 8.356 90.272 8.356C88.688 8.356 88.016 9.812 88.064 11.172ZM95.9146 18.5V10.228H97.1946V11.54H97.2266C97.8026 10.516 98.7306 10.036 99.9146 10.036C102.091 10.036 102.763 11.284 102.763 13.06V18.5H101.403V12.9C101.403 11.892 100.763 11.236 99.7226 11.236C98.0746 11.236 97.2746 12.34 97.2746 13.828V18.5H95.9146ZM112.197 7.076V18.5H110.837V17.38H110.805C110.357 18.292 109.301 18.692 108.165 18.692C105.621 18.692 104.357 16.676 104.357 14.34C104.357 12.004 105.605 10.036 108.133 10.036C108.981 10.036 110.197 10.356 110.805 11.332H110.837V7.076H112.197ZM105.797 14.436C105.797 15.988 106.597 17.492 108.357 17.492C110.181 17.492 110.885 15.924 110.885 14.372C110.885 12.74 110.149 11.236 108.277 11.236C106.421 11.236 105.797 12.82 105.797 14.436Z" fill="black" fill-opacity="0.85"/>
<rect width="48" height="16" transform="translate(130 5)" fill="white" fill-opacity="0.01"/>
<path d="M138 20.5C133.858 20.5 130.5 17.1421 130.5 13C130.5 8.85786 133.858 5.5 138 5.5C142.142 5.5 145.5 8.85786 145.5 13C145.5 17.1421 142.142 20.5 138 20.5Z" fill="white" stroke="#757575"/>
<path d="M157.488 13.172V12.02C157.696 12.036 157.888 12.036 158.08 12.036C159.232 12.036 160.24 11.412 160.24 10.18C160.24 8.996 159.376 8.356 158.224 8.356C156.736 8.356 156.096 9.492 156.08 10.82H154.72C154.8 8.66 155.952 7.156 158.224 7.156C160.192 7.156 161.68 8.1 161.68 10.196C161.68 11.188 160.976 12.052 160.112 12.452V12.484C161.488 12.788 162.16 13.876 162.16 15.236C162.16 17.508 160.384 18.692 158.256 18.692C155.952 18.692 154.432 17.332 154.48 14.996H155.84C155.888 16.468 156.704 17.492 158.256 17.492C159.584 17.492 160.72 16.676 160.72 15.3C160.72 13.876 159.648 13.124 158.304 13.124C158.032 13.124 157.744 13.14 157.488 13.172ZM163.867 18.5V10.228H165.147V11.972H165.179C165.835 10.644 166.747 9.988 168.219 10.036V11.476C166.027 11.476 165.227 12.724 165.227 14.82V18.5H163.867ZM176.354 7.076V18.5H174.994V17.38H174.962C174.514 18.292 173.458 18.692 172.322 18.692C169.778 18.692 168.514 16.676 168.514 14.34C168.514 12.004 169.762 10.036 172.29 10.036C173.138 10.036 174.354 10.356 174.962 11.332H174.994V7.076H176.354ZM169.954 14.436C169.954 15.988 170.754 17.492 172.514 17.492C174.338 17.492 175.042 15.924 175.042 14.372C175.042 12.74 174.306 11.236 172.434 11.236C170.578 11.236 169.954 12.82 169.954 14.436Z" fill="black" fill-opacity="0.85"/>
</svg>
