<svg width="157" height="35" viewBox="0 0 157 35" fill="none" xmlns="http://www.w3.org/2000/svg">
<rect width="157" height="35" fill="white" fill-opacity="0.01"/>
<g clip-path="url(#clip0_39353_49811)">
<g clip-path="url(#clip1_39353_49811)">
<path d="M0.12 13.91V12.29H8.79V13.91H5.385V23H3.51V13.91H0.12ZM13.0825 20.39V19.115C12.5575 19.46 11.7325 19.445 10.9825 19.58C10.2475 19.7 9.58746 19.97 9.58746 20.87C9.58746 21.635 10.5625 21.86 11.1625 21.86C11.9125 21.86 13.0825 21.47 13.0825 20.39ZM14.7925 17.285V21.275C14.7925 21.695 14.8825 21.86 15.1975 21.86C15.3025 21.86 15.4375 21.86 15.6175 21.83V23.015C15.3625 23.105 14.8225 23.21 14.5375 23.21C13.8475 23.21 13.3525 22.97 13.2175 22.265C12.5425 22.925 11.4475 23.21 10.5325 23.21C9.13746 23.21 7.87746 22.46 7.87746 20.945C7.87746 19.01 9.42246 18.695 10.8625 18.53C12.0925 18.305 13.1875 18.44 13.1875 17.435C13.1875 16.55 12.2725 16.385 11.5825 16.385C10.6225 16.385 9.94746 16.775 9.87246 17.615H8.16246C8.28246 15.62 9.97746 15.035 11.6875 15.035C13.2025 15.035 14.7925 15.65 14.7925 17.285ZM22.6474 19.13C22.6474 17.72 21.9124 16.385 20.5024 16.385C19.0624 16.385 18.3274 17.48 18.3274 19.13C18.3274 20.69 19.1224 21.86 20.5024 21.86C22.0624 21.86 22.6474 20.48 22.6474 19.13ZM16.6774 23V12.29H18.3874V16.25H18.4174C18.8824 15.5 19.8574 15.035 20.7274 15.035C23.1724 15.035 24.3574 16.895 24.3574 19.16C24.3574 21.245 23.3074 23.21 21.0124 23.21C19.9624 23.21 18.8374 22.955 18.3274 21.935H18.2974V23H16.6774Z" fill="#DF4907"/>
</g>
<line y1="34" x2="25" y2="34" stroke="#DF4907" stroke-width="2"/>
</g>
<path d="M57.12 13.91V12.29H65.79V13.91H62.385V23H60.51V13.91H57.12ZM70.0825 20.39V19.115C69.5575 19.46 68.7325 19.445 67.9825 19.58C67.2475 19.7 66.5875 19.97 66.5875 20.87C66.5875 21.635 67.5625 21.86 68.1625 21.86C68.9125 21.86 70.0825 21.47 70.0825 20.39ZM71.7925 17.285V21.275C71.7925 21.695 71.8825 21.86 72.1975 21.86C72.3025 21.86 72.4375 21.86 72.6175 21.83V23.015C72.3625 23.105 71.8225 23.21 71.5375 23.21C70.8475 23.21 70.3525 22.97 70.2175 22.265C69.5425 22.925 68.4475 23.21 67.5325 23.21C66.1375 23.21 64.8775 22.46 64.8775 20.945C64.8775 19.01 66.4225 18.695 67.8625 18.53C69.0925 18.305 70.1875 18.44 70.1875 17.435C70.1875 16.55 69.2725 16.385 68.5825 16.385C67.6225 16.385 66.9475 16.775 66.8725 17.615H65.1625C65.2825 15.62 66.9775 15.035 68.6875 15.035C70.2025 15.035 71.7925 15.65 71.7925 17.285ZM79.6474 19.13C79.6474 17.72 78.9124 16.385 77.5024 16.385C76.0624 16.385 75.3274 17.48 75.3274 19.13C75.3274 20.69 76.1224 21.86 77.5024 21.86C79.0624 21.86 79.6474 20.48 79.6474 19.13ZM73.6774 23V12.29H75.3874V16.25H75.4174C75.8824 15.5 76.8574 15.035 77.7274 15.035C80.1724 15.035 81.3574 16.895 81.3574 19.16C81.3574 21.245 80.3074 23.21 78.0124 23.21C76.9624 23.21 75.8374 22.955 75.3274 21.935H75.2974V23H73.6774ZM89.6573 21.47V23H82.4873C82.5023 21.275 83.3873 19.97 84.7973 19.025C86.1623 18.035 87.9323 17.21 87.9623 15.575C87.9773 14.825 87.6623 13.715 86.1923 13.715C84.8423 13.715 84.4373 14.87 84.3923 16.34H82.6823C82.6823 14.015 83.9573 12.29 86.2973 12.29C88.8623 12.29 89.6723 14.165 89.6723 15.515C89.6723 17.18 88.5323 18.215 87.3323 19.055C86.1173 19.895 84.8423 20.54 84.5423 21.47H89.6573Z" fill="black" fill-opacity="0.85"/>
<path d="M123.12 13.91V12.29H131.79V13.91H128.385V23H126.51V13.91H123.12ZM136.082 20.39V19.115C135.557 19.46 134.732 19.445 133.982 19.58C133.247 19.7 132.587 19.97 132.587 20.87C132.587 21.635 133.562 21.86 134.162 21.86C134.912 21.86 136.082 21.47 136.082 20.39ZM137.792 17.285V21.275C137.792 21.695 137.882 21.86 138.197 21.86C138.302 21.86 138.437 21.86 138.617 21.83V23.015C138.362 23.105 137.822 23.21 137.537 23.21C136.847 23.21 136.352 22.97 136.217 22.265C135.542 22.925 134.447 23.21 133.532 23.21C132.137 23.21 130.877 22.46 130.877 20.945C130.877 19.01 132.422 18.695 133.862 18.53C135.092 18.305 136.187 18.44 136.187 17.435C136.187 16.55 135.272 16.385 134.582 16.385C133.622 16.385 132.947 16.775 132.872 17.615H131.162C131.282 15.62 132.977 15.035 134.687 15.035C136.202 15.035 137.792 15.65 137.792 17.285ZM145.647 19.13C145.647 17.72 144.912 16.385 143.502 16.385C142.062 16.385 141.327 17.48 141.327 19.13C141.327 20.69 142.122 21.86 143.502 21.86C145.062 21.86 145.647 20.48 145.647 19.13ZM139.677 23V12.29H141.387V16.25H141.417C141.882 15.5 142.857 15.035 143.727 15.035C146.172 15.035 147.357 16.895 147.357 19.16C147.357 21.245 146.307 23.21 144.012 23.21C142.962 23.21 141.837 22.955 141.327 21.935H141.297V23H139.677ZM151.322 18.125V16.85C152.462 16.895 153.647 16.49 153.647 15.2C153.647 14.315 152.957 13.715 152.012 13.715C150.827 13.715 150.242 14.78 150.272 15.86H148.562C148.652 13.82 149.927 12.29 152.042 12.29C153.677 12.29 155.357 13.235 155.357 15.095C155.357 16.145 154.877 16.985 153.872 17.345V17.375C155.057 17.615 155.777 18.65 155.777 20C155.777 21.98 154.067 23.21 152.057 23.21C149.627 23.21 148.412 21.74 148.367 19.55H150.077C150.032 20.825 150.722 21.785 152.057 21.785C153.197 21.785 154.067 21.11 154.067 19.91C154.067 18.275 152.672 18.065 151.322 18.125Z" fill="black" fill-opacity="0.85"/>
<defs>
<clipPath id="clip0_39353_49811">
<rect width="25" height="35" fill="white"/>
</clipPath>
<clipPath id="clip1_39353_49811">
<rect width="25" height="11" fill="white" transform="translate(0 12)"/>
</clipPath>
</defs>
</svg>
