<svg width="370" height="56" viewBox="0 0 370 56" fill="none" xmlns="http://www.w3.org/2000/svg">
<rect x="1" y="1" width="368" height="54" rx="3" fill="white"/>
<path d="M22 18C16.48 18 12 22.48 12 28C12 33.52 16.48 38 22 38C27.52 38 32 33.52 32 28C32 22.48 27.52 18 22 18ZM20 33L15 28L16.41 26.59L20 30.17L27.59 22.58L29 24L20 33Z" fill="#343434"/>
<path d="M56.8394 28.45V31.572H59.9334C60.9974 31.572 61.6134 30.998 61.6134 29.99C61.6134 29.01 60.9974 28.45 59.9334 28.45H56.8394ZM55.0894 33V23.004H59.9474C61.7394 23.004 62.9154 23.816 62.9154 25.482C62.9154 26.49 62.3974 27.218 61.4874 27.61V27.638C62.7054 27.904 63.3634 28.856 63.3634 30.214C63.3634 31.782 62.2714 33 59.6814 33H55.0894ZM56.8394 24.432V27.19H59.6954C60.5354 27.19 61.1654 26.7 61.1654 25.804C61.1654 24.796 60.6474 24.432 59.6954 24.432H56.8394ZM71.0788 25.762V33H69.5108V31.992H69.4828C69.0908 32.72 68.2228 33.196 67.4248 33.196C65.5348 33.196 64.7228 32.244 64.7228 30.354V25.762H66.3188V30.2C66.3188 31.474 66.8368 31.936 67.7048 31.936C69.0348 31.936 69.4828 31.082 69.4828 29.962V25.762H71.0788ZM72.0339 26.952V25.762H73.2379V23.592H74.8339V25.762H76.2759V26.952H74.8339V30.816C74.8339 31.474 74.8899 31.81 75.6039 31.81C75.8279 31.81 76.0519 31.81 76.2759 31.754V32.986C75.9259 33.014 75.5899 33.07 75.2399 33.07C73.5739 33.07 73.2659 32.426 73.2379 31.222V26.952H72.0339ZM76.696 26.952V25.762H77.9V23.592H79.496V25.762H80.938V26.952H79.496V30.816C79.496 31.474 79.552 31.81 80.266 31.81C80.49 31.81 80.714 31.81 80.938 31.754V32.986C80.588 33.014 80.252 33.07 79.902 33.07C78.236 33.07 77.928 32.426 77.9 31.222V26.952H76.696ZM85.4041 31.936C86.8321 31.936 87.4621 30.634 87.4621 29.374C87.4621 28.128 86.8321 26.826 85.4041 26.826C83.9761 26.826 83.3461 28.128 83.3461 29.374C83.3461 30.634 83.9761 31.936 85.4041 31.936ZM85.4041 33.196C83.0801 33.196 81.7501 31.6 81.7501 29.374C81.7501 27.162 83.0801 25.566 85.4041 25.566C87.7281 25.566 89.0581 27.162 89.0581 29.374C89.0581 31.6 87.7281 33.196 85.4041 33.196ZM90.3849 33V25.762H91.8969V26.826L91.9249 26.854C92.4009 26.056 93.2269 25.566 94.1789 25.566C95.7469 25.566 96.7409 26.406 96.7409 28.03V33H95.1449V28.45C95.1169 27.316 94.6689 26.826 93.7309 26.826C92.6669 26.826 91.9809 27.666 91.9809 28.73V33H90.3849ZM101.592 24.516V23.004H109.684V24.516H106.506V33H104.756V24.516H101.592ZM110.661 33V25.762H112.257V33H110.661ZM110.661 24.516V23.004H112.257V24.516H110.661ZM113.268 26.952V25.762H114.472V23.592H116.068V25.762H117.51V26.952H116.068V30.816C116.068 31.474 116.124 31.81 116.838 31.81C117.062 31.81 117.286 31.81 117.51 31.754V32.986C117.16 33.014 116.824 33.07 116.474 33.07C114.808 33.07 114.5 32.426 114.472 31.222V26.952H113.268ZM118.7 33V23.004H120.296V33H118.7ZM128.601 29.794H123.281C123.281 30.928 123.897 31.936 125.227 31.936C126.151 31.936 126.711 31.53 126.991 30.732H128.503C128.153 32.314 126.809 33.196 125.227 33.196C122.959 33.196 121.685 31.614 121.685 29.388C121.685 27.33 123.029 25.566 125.185 25.566C127.467 25.566 128.867 27.624 128.601 29.794ZM123.281 28.744H127.005C126.949 27.736 126.263 26.826 125.185 26.826C124.079 26.826 123.323 27.666 123.281 28.744Z" fill="#1890FF"/>
<path d="M361.25 8.8075L360.193 7.75L356 11.9425L351.807 7.75L350.75 8.8075L354.943 13L350.75 17.1925L351.807 18.25L356 14.0575L360.193 18.25L361.25 17.1925L357.057 13L361.25 8.8075Z" fill="#757575"/>
<rect y="51" width="188" height="5" fill="#343434"/>
<rect x="1" y="1" width="368" height="54" rx="3" stroke="#D9D9D9" stroke-width="2"/>
<path d="M42 18C42 16.8954 42.8954 16 44 16H293C294.105 16 295 16.8954 295 18V32C295 33.1046 294.105 34 293 34H44C42.8954 34 42 33.1046 42 32V18Z" fill="#D9D9D9"/>
</svg>
