<svg width="89" height="70" viewBox="0 0 89 70" fill="none" xmlns="http://www.w3.org/2000/svg">
<g filter="url(#filter0_d_39353_49790)">
<rect x="15.5" y="6" width="58" height="34" rx="2" fill="#343434"/>
<path d="M27.1198 26V17.124H23.7878V16.004H31.7818V17.124H28.4498V26H27.1198ZM30.7442 22.388C30.7442 20.26 31.9622 18.594 34.2582 18.594C36.5542 18.594 37.7722 20.26 37.7722 22.388C37.7722 24.502 36.5542 26.168 34.2582 26.168C31.9622 26.168 30.7442 24.502 30.7442 22.388ZM32.0042 22.388C32.0042 24.138 33.0122 25.118 34.2582 25.118C35.5042 25.118 36.5122 24.138 36.5122 22.388C36.5122 20.624 35.5042 19.644 34.2582 19.644C33.0122 19.644 32.0042 20.624 32.0042 22.388ZM38.7833 22.388C38.7833 20.26 40.0013 18.594 42.2973 18.594C44.5933 18.594 45.8113 20.26 45.8113 22.388C45.8113 24.502 44.5933 26.168 42.2973 26.168C40.0013 26.168 38.7833 24.502 38.7833 22.388ZM40.0433 22.388C40.0433 24.138 41.0513 25.118 42.2973 25.118C43.5433 25.118 44.5513 24.138 44.5513 22.388C44.5513 20.624 43.5433 19.644 42.2973 19.644C41.0513 19.644 40.0433 20.624 40.0433 22.388ZM47.2844 26V16.004H48.4744V26H47.2844ZM51.9699 16.592V18.762H53.4119V19.812H51.9699V24.306C51.9699 24.852 52.1239 24.95 52.8659 24.95H53.4119V26H52.5019C51.2699 26 50.7799 25.748 50.7799 24.418V19.812H49.5479V18.762H50.7799V16.592H51.9699ZM54.8039 26V18.762H55.9939V26H54.8039ZM55.9939 16.004V17.46H54.8039V16.004H55.9939ZM63.4794 22.318C63.4794 20.96 62.7794 19.644 61.2394 19.644C59.6434 19.644 59.0274 21.016 59.0274 22.374C59.0274 23.802 59.6714 25.118 61.3094 25.118C62.9334 25.118 63.4794 23.732 63.4794 22.318ZM57.8794 28.772V18.762H59.0694V19.742H59.0974C59.4894 18.944 60.4134 18.594 61.4074 18.594C63.6334 18.594 64.7394 20.358 64.7394 22.402C64.7394 24.446 63.6474 26.168 61.4354 26.168C60.6934 26.168 59.6294 25.888 59.0974 25.034H59.0694V28.772H57.8794Z" fill="white"/>
<g clip-path="url(#clip0_39353_49790)">
<path d="M44.6567 34.3413L50.3136 39.9982L46.071 44.2408C45.2899 45.0219 44.0236 45.0219 43.2425 44.2408L38.9999 39.9982L44.6567 34.3413Z" fill="#343434"/>
</g>
</g>
<path d="M44.5 48C38.98 48 34.5 52.48 34.5 58C34.5 63.52 38.98 68 44.5 68C50.02 68 54.5 63.52 54.5 58C54.5 52.48 50.02 48 44.5 48ZM45.5 63H43.5V57H45.5V63ZM45.5 55H43.5V53H45.5V55Z" fill="#343434"/>
<defs>
<filter id="filter0_d_39353_49790" x="-8" y="0" width="105" height="56" filterUnits="userSpaceOnUse" color-interpolation-filters="sRGB">
<feFlood flood-opacity="0" result="BackgroundImageFix"/>
<feColorMatrix in="SourceAlpha" type="matrix" values="0 0 0 0 0 0 0 0 0 0 0 0 0 0 0 0 0 0 127 0" result="hardAlpha"/>
<feOffset dy="2"/>
<feGaussianBlur stdDeviation="4"/>
<feColorMatrix type="matrix" values="0 0 0 0 0 0 0 0 0 0 0 0 0 0 0 0 0 0 0.15 0"/>
<feBlend mode="normal" in2="BackgroundImageFix" result="effect1_dropShadow_39353_49790"/>
<feBlend mode="normal" in="SourceGraphic" in2="effect1_dropShadow_39353_49790" result="shape"/>
</filter>
<clipPath id="clip0_39353_49790">
<rect width="11.3137" height="5.655" fill="white" transform="translate(39 40)"/>
</clipPath>
</defs>
</svg>
