<?xml version="1.0" encoding="UTF-8"?><svg id="Layer_1" xmlns="http://www.w3.org/2000/svg" viewBox="0 0 512 512"><defs><style>.cls-1{fill:#fff;}.cls-2{fill:#ff601b;}</style></defs><circle class="cls-2" cx="256" cy="256" r="256"/><path class="cls-1" d="M185.55,423.98c-21.96-9.49-41.33-22.62-58.12-39.41-16.79-16.79-29.92-36.16-39.41-58.12-9.49-21.96-14.23-45.41-14.23-70.36s4.74-48.57,14.23-70.54c9.49-21.96,22.59-41.33,39.32-58.12,16.73-16.79,36.1-29.92,58.12-39.41,22.01-9.49,45.5-14.23,70.45-14.23s48.43,4.74,70.45,14.23c22.01,9.49,41.39,22.62,58.12,39.41,16.73,16.79,29.86,36.16,39.41,58.12,9.54,21.96,14.31,45.47,14.31,70.54s-4.77,48.4-14.31,70.36c-9.54,21.96-22.68,41.33-39.41,58.12-16.73,16.79-36.07,29.92-58.03,39.41-21.96,9.49-45.47,14.23-70.54,14.23s-48.4-4.74-70.36-14.23Zm123.65-41.91c16.56-7.07,31.07-16.84,43.55-29.32s22.25-26.99,29.32-43.55c7.07-16.56,10.61-34.26,10.61-53.12s-3.54-36.73-10.61-53.29-16.87-31.1-29.4-43.63c-12.53-12.53-27.05-22.3-43.55-29.32-16.5-7.01-34.23-10.52-53.2-10.52s-36.71,3.51-53.2,10.52c-16.5,7.01-31.02,16.79-43.55,29.32-12.53,12.53-22.31,27.08-29.32,43.63-7.01,16.56-10.52,34.32-10.52,53.29s3.51,36.56,10.52,53.12c7.01,16.56,16.79,31.07,29.32,43.55,12.53,12.48,27.08,22.25,43.63,29.32,16.56,7.07,34.26,10.61,53.12,10.61s36.73-3.54,53.29-10.61Zm19.66,11.47c-12.88,6.21-25.58,10.86-38.11,13.97-12.53,3.1-24.14,4.66-34.84,4.66s-21.99-1.55-34.58-4.66c-12.59-3.1-25.33-7.76-38.2-13.97-12.88-6.21-25.12-14.03-36.73-23.45l.86-4.83c5.06-8.39,12.68-16.27,22.85-23.63,10.18-7.36,22.51-13.31,36.99-17.85,14.49-4.54,30.76-6.81,48.81-6.81s34.52,2.27,49.06,6.81c14.54,4.54,26.9,10.49,37.08,17.85,10.18,7.36,17.79,15.29,22.85,23.8l.69,4.66c-11.62,9.43-23.86,17.25-36.73,23.45Zm-103.22-112.18c-9.03-5.8-16.18-13.65-21.47-23.54-5.29-9.89-7.93-20.93-7.93-33.11-.11-11.61,2.5-22.27,7.85-31.99,5.35-9.72,12.53-17.53,21.56-23.45,9.03-5.92,19.11-8.88,30.27-8.88s21.38,2.96,30.35,8.88c8.97,5.92,16.12,13.74,21.47,23.45,5.35,9.72,8.02,20.38,8.02,31.99,0,12.19-2.65,23.26-7.93,33.2-5.29,9.95-12.45,17.82-21.47,23.63-9.03,5.81-19.17,8.65-30.44,8.54-11.15,0-21.24-2.9-30.27-8.71Z"/></svg>