<?xml version="1.0" encoding="UTF-8"?><svg id="Layer_1" xmlns="http://www.w3.org/2000/svg" viewBox="0 0 512 512"><defs><style>.cls-1{fill:#fff;}.cls-2{fill:#a28ea6;}</style></defs><circle class="cls-2" cx="256" cy="256" r="256"/><path class="cls-1" d="M74.54,410.54c-5.66-4.42-8.49-10.48-8.49-18.19,0-11.94,3.64-24.56,10.92-37.88,7.28-13.31,17.73-25.78,31.35-37.41,13.62-11.63,30.1-21.08,49.44-28.36,19.34-7.28,41.14-10.91,65.4-10.91,20.15,0,38.59,2.68,55.32,8.02,16.73,5.35,31.44,12.31,44.13,20.9,4.97,10.2,11.82,18.72,20.52,25.56v70.34c0,5.23,1.12,10.08,3.36,14.55H97.96c-9.95,0-17.76-2.21-23.42-6.62Zm111.67-177.06c-11.32-7.28-20.43-17.1-27.33-29.48-6.9-12.38-10.36-26.28-10.36-41.7s3.45-28.85,10.36-41.05c6.9-12.19,16.01-21.83,27.33-28.92,11.32-7.09,23.63-10.64,36.94-10.64s25.62,3.48,36.94,10.45c11.32,6.97,20.43,16.51,27.33,28.64,6.9,12.13,10.36,25.84,10.36,41.14s-3.45,29.54-10.36,41.98c-6.9,12.44-16.02,22.3-27.33,29.57-11.32,7.28-23.63,10.92-36.94,10.92s-25.62-3.64-36.94-10.92Zm231.73-21.36c8.58,5.1,15.42,11.94,20.52,20.52,5.1,8.58,7.65,18.1,7.65,28.55,0,12.31-3.73,23.32-11.2,33.03-7.46,9.7-18.04,17.29-31.72,22.76l23.88,23.88c.99,1.12,1.52,2.27,1.59,3.45,.06,1.18-.34,2.21-1.21,3.08l-24.44,23.69,17.54,17.73c.99,.87,1.49,1.9,1.49,3.08s-.5,2.21-1.49,3.08l-28.17,28.36c-1,.99-2.08,1.46-3.27,1.4-1.18-.06-2.21-.53-3.08-1.4l-14.93-15.11c-1.74-1.99-2.61-3.86-2.61-5.6v-88.07c-10.95-4.35-19.72-11.32-26.31-20.9-6.59-9.58-9.89-20.4-9.89-32.46,0-10.45,2.55-19.96,7.65-28.55,5.1-8.58,11.94-15.42,20.52-20.52,8.58-5.1,18.22-7.65,28.92-7.65s19.96,2.55,28.55,7.65Zm-41.33,24.72c-3.42,3.42-5.13,7.49-5.13,12.22,0,5.1,1.74,9.36,5.23,12.78,3.48,3.42,7.65,5.13,12.5,5.13s8.8-1.71,12.22-5.13c3.42-3.42,5.13-7.68,5.13-12.78,0-4.73-1.71-8.8-5.13-12.22-3.42-3.42-7.5-5.13-12.22-5.13-4.98,0-9.18,1.71-12.59,5.13Z"/></svg>