<?xml version="1.0" encoding="UTF-8"?><svg id="Layer_1" xmlns="http://www.w3.org/2000/svg" viewBox="0 0 512 512"><defs><style>.cls-1{fill:#fff;}.cls-2{fill:#7e92a1;}</style></defs><circle class="cls-2" cx="256" cy="256" r="256"/><path class="cls-1" d="M73.12,253.75c0-100.04,82.83-182.88,182.7-182.88s183.06,82.83,183.06,182.88-82.83,182.88-182.88,182.88S73.12,353.62,73.12,253.75Zm335.27,0c-.18-84.63-67.95-152.4-152.58-152.4S103.78,169.13,103.78,253.75s67.59,152.4,152.22,152.4,152.58-67.77,152.4-152.4Zm-245.09,79.6c0-19.72,29.58-70.64,92.51-70.64s92.51,50.92,92.51,70.64c0,6.45-3.41,11.29-10.58,11.29H173.88c-7.17,0-10.58-4.84-10.58-11.29Zm46.44-135.54c0-26.89,20.62-49.13,46.08-49.13s46.08,22.23,46.08,49.13c0,28.69-20.62,50.56-46.08,50.38-25.46-.18-46.08-21.69-46.08-50.38Z"/></svg>